<svg width="56" height="56" viewBox="0 0 56 56" fill="none" xmlns="http://www.w3.org/2000/svg">
<path d="M48.6029 5.87847L41.2494 12.7222H14.7435L7.39007 5.87847C7.39007 5.87847 11.0527 0.752672 17.0846 0.0802639C22.9912 -0.578063 25.0414 3.04379 28.0021 3.19376C30.9529 3.04449 33.0096 -0.578063 38.9084 0.0802639C44.9459 0.751968 48.6029 5.87847 48.6029 5.87847ZM29.0139 38.7335V43.8995C29.7975 43.7755 30.4389 43.4735 30.9283 42.9806C31.4204 42.4849 31.6683 41.9118 31.6683 41.2528C31.6683 40.6656 31.4571 40.1516 31.0452 39.7284C30.6319 39.2947 29.9538 38.9701 29.0139 38.7335ZM24.7077 32.1193C24.7077 32.5896 24.8767 33.0198 25.2125 33.4212C25.5484 33.8295 26.0567 34.1499 26.7348 34.3984V29.8155C26.1166 29.9866 25.6265 30.2894 25.2618 30.716C24.8922 31.142 24.7077 31.6018 24.7077 32.1193ZM53.0619 49.8751C53.0619 49.8751 51.4643 56 44.1151 56H11.8962C4.53712 56 2.94026 49.8751 2.94026 49.8751C-1.87215 28.6432 12.7622 17.1292 12.7622 17.1292H43.2399C43.2399 17.1292 57.8665 28.6467 53.0619 49.8751ZM35.5105 40.7782C35.5105 39.3419 35.0584 38.1752 34.1431 37.2606C33.232 36.3445 31.5253 35.6045 29.0139 35.0251V29.8535C30.0271 30.2197 30.6544 30.9301 30.8987 31.9658L34.8697 31.5328C34.5959 30.2126 33.9657 29.1551 32.9884 28.3679C32.0041 27.5807 30.6769 27.1012 29.0139 26.9294V25.6156H26.7355V26.9294C24.9358 27.0787 23.496 27.6483 22.4131 28.6284C21.3267 29.6148 20.7888 30.8287 20.7888 32.2763C20.7888 33.7127 21.2626 34.9195 22.2251 35.9291C23.182 36.9282 24.6859 37.6753 26.7348 38.1717V43.7136C26.1715 43.4876 25.6575 43.1151 25.1977 42.6053C24.7387 42.0878 24.4247 41.4781 24.2571 40.7782L20.1614 41.1465C20.4712 42.8856 21.195 44.2311 22.3272 45.1823C23.4573 46.1406 24.9246 46.706 26.7348 46.8883V49.2984H29.0132V46.8228C31.0543 46.5778 32.6441 45.904 33.789 44.8106C34.938 43.7206 35.5105 42.3723 35.5105 40.7782Z" fill="#66B821"/>
</svg>
