<svg width="56" height="56" viewBox="0 0 56 56" fill="none" xmlns="http://www.w3.org/2000/svg">
<path d="M54.1313 39.7564C54.1296 39.7468 54.1278 39.7371 54.126 39.7275L50.5493 21.26C50.5466 21.2461 50.5423 21.2331 50.5393 21.2193C49.9859 18.1975 48.3914 15.465 46.033 13.4964C43.6745 11.5279 40.701 10.4476 37.629 10.4432H37.6238L18.376 10.5001C15.2881 10.4939 12.2974 11.5791 9.93191 13.5639C7.56645 15.5488 5.97842 18.3056 5.44824 21.3476C5.44546 21.3634 5.4429 21.3794 5.44055 21.3953L1.87625 39.7262C1.87432 39.7363 1.87251 39.7463 1.87069 39.7564C1.58004 41.4056 1.82266 43.1045 2.56332 44.6064C3.30397 46.1084 4.5041 47.3351 5.98943 48.1085C7.47476 48.8819 9.16795 49.1618 10.8231 48.9074C12.4783 48.6529 14.0093 47.8776 15.1938 46.6938C15.2256 46.6622 15.2559 46.6295 15.2848 46.5959L24.1943 36.7468L31.8177 36.7164L40.7145 46.5927C40.7442 46.6273 40.7754 46.661 40.8082 46.6938C41.9926 47.8777 43.5237 48.6533 45.1789 48.9078C46.8342 49.1623 48.5275 48.8825 50.0129 48.109C51.4983 47.3356 52.6984 46.1087 53.439 44.6067C54.1797 43.1047 54.4222 41.4056 54.1313 39.7564V39.7564ZM22.75 25.3751H21V27.1251C21 27.5892 20.8156 28.0343 20.4874 28.3625C20.1592 28.6907 19.7141 28.8751 19.25 28.8751C18.7859 28.8751 18.3407 28.6907 18.0126 28.3625C17.6844 28.0343 17.5 27.5892 17.5 27.1251V25.3751H15.75C15.2859 25.3751 14.8407 25.1907 14.5126 24.8625C14.1844 24.5343 14 24.0892 14 23.6251C14 23.1609 14.1844 22.7158 14.5126 22.3876C14.8407 22.0594 15.2859 21.8751 15.75 21.8751H17.5V20.1251C17.5 19.6609 17.6844 19.2158 18.0126 18.8876C18.3407 18.5594 18.7859 18.3751 19.25 18.3751C19.7141 18.3751 20.1592 18.5594 20.4874 18.8876C20.8156 19.2158 21 19.6609 21 20.1251V21.8751H22.75C23.2141 21.8751 23.6592 22.0594 23.9874 22.3876C24.3156 22.7158 24.5 23.1609 24.5 23.6251C24.5 24.0892 24.3156 24.5343 23.9874 24.8625C23.6592 25.1907 23.2141 25.3751 22.75 25.3751ZM31.5 23.6251C31.5 23.1609 31.6844 22.7158 32.0126 22.3876C32.3408 22.0594 32.7859 21.8751 33.25 21.8751H40.25C40.7141 21.8751 41.1593 22.0594 41.4874 22.3876C41.8156 22.7158 42 23.1609 42 23.6251C42 24.0892 41.8156 24.5343 41.4874 24.8625C41.1593 25.1907 40.7141 25.3751 40.25 25.3751H33.25C32.7859 25.375 32.3408 25.1907 32.0126 24.8625C31.6844 24.5343 31.5 24.0892 31.5 23.6251ZM47.1357 45.4325C46.4513 45.5527 45.748 45.5084 45.0841 45.3032C44.4202 45.098 43.8145 44.7379 43.3172 44.2525L36.5115 36.6977L37.629 36.6932C39.8603 36.6919 42.0545 36.1218 44.0043 35.0367C45.9541 33.9516 47.5951 32.3874 48.7722 30.4918L50.6869 40.3776C50.8832 41.5184 50.6198 42.6906 49.9544 43.6378C49.2889 44.5851 48.2755 45.2303 47.1357 45.4325Z" fill="#66B821"/>
</svg>
