<svg width="56" height="56" viewBox="0 0 56 56" fill="none" xmlns="http://www.w3.org/2000/svg">
<g clip-path="url(#clip0_27_1251)">
<path d="M52.1387 4.08205L51.9183 3.86101C46.7697 -1.28684 38.3452 -1.28684 33.1975 3.86101L21.2698 15.7903C16.122 20.9382 16.122 29.3624 21.2698 34.5104L21.4901 34.7306C21.9184 35.1598 22.3731 35.5467 22.8429 35.9041L27.2095 31.537C26.7008 31.2366 26.2183 30.8771 25.7812 30.4402L25.5602 30.2192C22.7649 27.4248 22.7649 22.8762 25.5602 20.0807L37.4892 8.15266C40.2847 5.35715 44.8323 5.35715 47.6273 8.15266L47.8484 8.37272C50.6429 11.1682 50.6429 15.7168 47.8484 18.5112L42.4515 23.9081C43.3883 26.2219 43.8322 28.6878 43.7935 31.148L52.1391 22.8025C57.287 17.6544 57.287 9.23033 52.1387 4.08205ZM34.5101 21.2699C34.0818 20.8416 33.6271 20.4538 33.1572 20.0974L28.7906 24.4632C29.2993 24.7638 29.7817 25.1235 30.2189 25.5604L30.4399 25.7813C33.2353 28.5768 33.2353 33.1244 30.4399 35.9197L18.5108 47.8489C15.7153 50.6438 11.1676 50.6438 8.37244 47.8489L8.15139 47.6278C5.35697 44.8321 5.35697 40.2846 8.15139 37.4894L13.5484 32.0926C12.6115 29.7791 12.1677 27.3128 12.2065 24.8528L3.86105 33.198C-1.28702 38.3456 -1.28702 46.7702 3.86105 51.9189L4.08122 52.1394C9.23016 57.2868 17.6542 57.2868 22.8023 52.1394L34.7302 40.211C39.878 35.0632 39.878 26.6377 34.7302 21.49L34.5101 21.2699Z" fill="#66B821"/>
</g>
<defs>
<clipPath id="clip0_27_1251">
<rect width="56" height="56" fill="white"/>
</clipPath>
</defs>
</svg>
