<svg width="110" height="85" viewBox="0 0 110 85" fill="none" xmlns="http://www.w3.org/2000/svg">
<path fill-rule="evenodd" clip-rule="evenodd" d="M43.8234 2.42857C43.5826 2.42857 43.3417 2.42857 43.1009 2.42857C42.2982 2.42857 41.4954 2.70408 40.6927 3.16327C39.9702 3.62245 39.4083 4.26531 38.9266 5L37 3.80612C37.883 2.33673 39.0872 1.14286 40.5321 0.591835C41.5757 0.132652 43.9037 0.132653 45.0275 0.0408163C47.4358 -0.0510204 49.8441 0.0408163 52.172 0.0408163C52.9748 0.0408163 53.6973 0.0408163 54.5 0.0408163C55.3028 0.0408163 56.0252 0.0408163 56.828 0.0408163C59.2362 0.0408163 61.6445 -0.0510204 63.9725 0.0408163C65.0963 0.0408163 67.4243 0.132652 68.4679 0.591835C69.9931 1.14286 71.117 2.42857 72 3.80612L70.0734 5C69.5917 4.26531 69.0298 3.62245 68.3073 3.16327C67.6651 2.79592 66.9427 2.52041 66.2202 2.42857H65.9794C65.7385 2.42857 65.4977 2.42857 65.2569 2.42857H43.8234Z" fill="#66B821"/>
<path fill-rule="evenodd" clip-rule="evenodd" d="M72.8041 21C75.5258 21 78 23.2608 78 26.024C78 30.4618 78 34.8997 78 39.4212C78 41.4308 76.6804 43.2729 74.866 44.0265C74.0412 44.3615 73.3814 44.3615 72.5567 44.5289C69.1753 44.9476 65.7938 45.45 62.4124 45.9524C60.9278 46.2036 59.2784 45.3663 58.6186 43.9428C58.0412 42.6031 57.4639 41.1796 56.8866 39.8399C56.5567 39.0863 55.9794 38.5002 55.2371 38.1652C54.8247 37.9978 54.4124 37.914 54 37.914C53.5876 37.914 53.1753 37.9978 52.7629 38.1652C52.0206 38.5002 51.4433 39.0863 51.1134 39.8399C50.5361 41.1796 49.9588 42.6031 49.3814 43.9428C48.8041 45.45 47.1546 46.2036 45.5876 45.9524C42.2062 45.45 38.8247 45.0313 35.4433 44.5289C34.6186 44.4452 33.9588 44.4452 33.134 44.0265C31.3196 43.2729 30 41.4308 30 39.4212C30 34.9834 30 30.5455 30 26.024C30 23.2608 32.4742 21 35.1959 21C41.0516 21 46.9072 21 52.6804 21H54.0825H55.4845C61.0928 21 66.9484 21 72.8041 21ZM35.0309 23.4283C33.7113 23.4283 32.3093 24.6005 32.3917 26.024C32.3917 30.4618 32.3917 34.9834 32.3917 39.4212C32.3917 40.426 33.134 41.4308 34.0412 41.7658C34.5361 42.017 35.1959 42.017 35.6907 42.017C39.0722 42.5194 42.4536 42.938 45.8351 43.4404C46.2474 43.5241 46.7423 43.2729 46.9072 42.8543C47.4845 41.5146 48.0619 40.0911 48.6392 38.6676C49.2165 37.3279 50.2887 36.2394 51.6907 35.737C52.433 35.4021 53.1753 35.3183 53.9175 35.3183C54.6598 35.3183 55.4845 35.4858 56.1443 35.737C57.4639 36.2394 58.6185 37.3279 59.1959 38.6676C59.7732 40.0074 60.3505 41.4308 60.9278 42.8543C61.0928 43.2729 61.5876 43.4404 62 43.4404C65.3815 42.938 68.7629 42.5194 72.1443 42.017C72.6392 41.9332 73.299 41.9332 73.7938 41.7658C74.701 41.3471 75.4433 40.426 75.4433 39.4212C75.4433 34.9834 75.4433 30.4618 75.4433 26.024C75.4433 24.6005 74.1237 23.4283 72.8041 23.4283C66.9484 23.4283 61.0928 23.4283 55.3196 23.4283H53.9175H52.5155C46.6598 23.4283 40.8041 23.4283 35.0309 23.4283Z" fill="white"/>
<path fill-rule="evenodd" clip-rule="evenodd" d="M38 27C38 27.6171 38 28.3371 38 28.9543C45.9761 29.0571 53.9523 28.9543 61.9284 28.9543C64.313 28.8514 66.6154 28.9543 69 28.9543C69 28.3371 69 27.6171 69 27C58.7215 27.1029 48.3607 27.1029 38 27Z" fill="#EAB92F"/>
<path fill-rule="evenodd" clip-rule="evenodd" d="M72.8125 38.8491C72.5625 38.8491 72.375 38.8491 72.125 38.8491H72.0625L72 38.6226V38.5472C72 34.8491 72 31.0755 72 27.3774V27.3019L72.125 27H72.1875C72.4375 27 72.625 27 72.875 27H73V27.3019C73 31.0755 73 34.8491 73 38.6981V39L72.8125 38.8491Z" fill="#EAB92F"/>
<path fill-rule="evenodd" clip-rule="evenodd" d="M36.625 38.8491C36.125 38.8491 35.75 38.8491 35.25 38.8491H35.125L35 38.6226V38.5472C35 34.8491 35 31.0755 35 27.3774V27.3019L35.25 27H35.375C35.875 27 36.25 27 36.75 27H37V27.3019C37 31.0755 37 34.8491 37 38.6981V39L36.625 38.8491Z" fill="#EAB92F"/>
<path fill-rule="evenodd" clip-rule="evenodd" d="M68.691 8.10091C66.3734 9.72418 64.3869 11.7339 62.8142 13.9756C61.7382 15.5216 60.7449 17.2221 60 19H62.4831C63.3936 17.1448 64.4697 15.367 65.794 13.821C67.615 11.6566 69.9326 9.80148 72.4157 8.41011C77.4648 5.85926 82.0999 4.93168 87.5629 5.08628C90.2943 5.24088 93.0258 5.85926 95.6744 6.63225C95.5917 7.25063 95.3434 7.79172 95.0951 8.41011C94.1846 10.6518 92.3636 12.6615 90.046 13.7437C85.9902 15.7535 80.1962 15.2124 75.7266 14.9805C72.3329 14.8259 69.9325 14.594 67.2011 16.6037C66.0423 17.3767 67.3666 19.1546 68.6082 18.227C71.1741 16.5264 73.409 16.9902 76.3887 17.1448C78.3752 17.2221 80.3618 17.2994 82.3483 17.2994C85.328 17.3767 88.3078 16.9129 90.9565 15.5989C93.6879 14.2848 95.84 12.0431 96.9988 9.49229C97.4954 8.33281 97.9093 7.17334 97.992 5.93656C98.0748 5.39547 97.4954 5.08627 96.9988 4.93168C90.9565 2.92192 84.252 2.30353 78.0441 3.9268C77.5475 4.0814 77.0509 4.1587 76.5543 4.31329C73.74 5.08628 71.0914 6.32305 68.691 8.10091Z" fill="#66B821"/>
<path fill-rule="evenodd" clip-rule="evenodd" d="M40.5377 8.10091C42.7943 9.72418 44.7285 11.7339 46.2598 13.9756C47.3075 15.5216 48.2747 17.2221 49 19H46.5822C45.6957 17.1448 44.648 15.367 43.3585 13.821C41.5854 11.6566 39.3288 9.80148 36.911 8.41011C31.9948 5.85926 27.4816 4.93168 22.1625 5.08628C19.5029 5.24088 16.8433 5.85926 14.2644 6.63225C14.3449 7.25063 14.5867 7.79172 14.8285 8.41011C15.715 10.6518 17.4881 12.6615 19.7447 13.7437C23.6937 15.7535 29.3353 15.2124 33.6873 14.9805C36.9916 14.8259 39.3288 14.594 41.9884 16.6037C43.1167 17.3767 41.8272 19.1546 40.6183 18.227C38.1199 16.5264 35.9439 16.9902 33.0425 17.1448C31.1083 17.2221 29.1741 17.2994 27.2399 17.2994C24.3385 17.3767 21.4371 16.9129 18.8581 15.5989C16.1986 14.2848 14.1032 12.0431 12.9749 9.49229C12.4913 8.33281 12.0883 7.17334 12.0077 5.93656C11.9271 5.39547 12.4913 5.08627 12.9749 4.93168C18.8582 2.92192 25.3862 2.30353 31.4307 3.9268C31.9142 4.0814 32.3978 4.1587 32.8814 4.31329C35.6215 5.08628 38.2005 6.32305 40.5377 8.10091Z" fill="#66B821"/>
<path fill-rule="evenodd" clip-rule="evenodd" d="M65.2918 48C64.8769 49.1921 64.6279 50.4637 64.6279 51.7353C65.9557 52.9274 66.7855 54.3579 66.9515 55.9474C67.1174 57.2984 66.8685 58.729 66.0386 60.0005C65.4578 60.7953 64.6279 61.4311 63.6321 61.749C62.8023 61.9874 61.8895 61.9874 60.9767 61.8284C59.8149 62.9411 58.0722 63.6563 56.2466 63.8948C54.338 64.1332 52.3464 63.9742 50.6037 63.3384C49.6909 63.0205 48.7781 62.4642 48.1142 61.8284C46.9525 62.0669 45.7077 61.9874 44.7119 61.5106C43.6331 60.9542 42.8863 60.08 42.4713 59.1263C41.3926 56.6626 42.2224 53.7221 44.38 51.8147C44.38 50.5432 44.131 49.2716 43.7161 48.0795L45.9567 48.3179C46.1226 49.0332 46.2886 49.7484 46.3716 50.4637C47.6163 49.8279 49.027 49.4305 50.4378 49.1126C52.6783 48.7153 55.0848 48.6358 57.3254 48.9537C59.151 49.1921 60.8937 49.6689 62.4704 50.4637C62.5533 49.7484 62.7193 49.0332 62.8853 48.3179L65.2918 48ZM52.3464 50.6226C51.1016 50.7816 49.9399 51.02 48.7781 51.4174C47.2844 51.8942 45.9567 52.7684 45.1268 53.8811C44.131 55.2321 43.7991 56.9011 44.38 58.4905C44.6289 59.0469 44.9609 59.6032 45.5417 60.0005C46.2056 60.3979 47.2014 60.3184 47.8653 60.08C49.276 59.5237 50.0229 58.3316 51.3506 57.7753C53.2592 56.9805 55.5827 56.9805 57.4914 57.7753C58.4042 58.1726 59.068 58.8879 59.8149 59.4442C60.4787 59.9211 61.2256 60.3184 62.1384 60.3184C62.6363 60.3184 63.1342 60.1595 63.4662 59.9211C64.13 59.3648 64.462 58.6495 64.6279 57.9342C64.9599 56.3448 64.462 54.5963 63.2172 53.4042C62.1384 52.3711 60.6447 51.6558 59.068 51.2584C56.9934 50.4637 54.5869 50.3047 52.3464 50.6226ZM51.9315 59.5237C51.2676 60.0005 50.6867 60.5569 50.0228 61.0337C51.2676 61.9874 53.0102 62.3053 54.5869 62.2258C56.1636 62.2258 57.8233 61.9079 58.985 61.0337C58.3212 60.6363 57.7403 60.08 57.1594 59.6032C56.4126 58.9674 55.2508 58.8084 54.172 58.8084C53.3422 58.8879 52.5123 59.0469 51.9315 59.5237Z" fill="#66B821"/>
<path fill-rule="evenodd" clip-rule="evenodd" d="M46.6759 54.0156C47.086 53.9361 47.4962 54.1746 47.838 54.413C48.5899 55.0489 49 56.0822 49 57.1155C49 57.5924 48.6582 57.9898 48.1797 57.9898C47.7013 58.0693 47.2227 57.6719 47.2227 57.195C47.1544 56.7181 47.086 56.1617 46.7443 55.8437C46.4708 55.6848 46.1974 55.5258 46.0607 55.2079C45.8556 54.731 46.1974 54.1746 46.6759 54.0156Z" fill="#66B821"/>
<path fill-rule="evenodd" clip-rule="evenodd" d="M60.5141 54.0248C61.3355 53.8656 62.1568 54.5025 61.9743 55.0599C61.883 55.3784 61.4267 55.6172 61.0617 55.7765C60.4229 56.1746 60.4228 56.8115 60.3316 57.3688C60.1491 57.9262 59.0539 58.2447 58.4151 57.7669C57.8675 57.4485 57.9588 56.8115 58.1413 56.3338C58.4151 55.3784 59.1452 54.4229 60.5141 54.0248Z" fill="#66B821"/>
<path d="M19.4177 83.0435C18.2897 81.9022 17.7257 80.4348 17.7257 78.6413C17.7257 76.8478 18.2897 75.3804 19.4982 74.2391C20.6262 73.0978 22.0765 72.5272 23.8491 72.5272C25.5411 72.5272 26.9913 73.0978 28.1193 74.2391C29.2473 75.3804 29.8113 76.8478 29.8113 78.6413V79.2935C29.8113 79.4565 29.7308 79.538 29.5696 79.538H19.8205C19.9817 80.5163 20.4651 81.3315 21.1902 81.9837C21.9154 82.6359 22.8822 82.8804 24.0102 82.8804C25.3799 82.8804 26.6691 82.3913 27.797 81.413C27.9582 81.3315 28.0388 81.3315 28.1193 81.4946L28.925 82.5543C29.0056 82.7174 29.0056 82.7989 28.8445 82.962C27.4748 84.1848 25.7828 84.7554 23.9296 84.7554C22.0765 84.837 20.6262 84.1848 19.4177 83.0435ZM12.8914 70.4891L7.81541 81.3315L2.73943 70.4891C2.65886 70.3261 2.57828 70.2446 2.41713 70.2446H0V70.3261V84.5924C0 84.5924 0 84.5924 0 84.6739H1.77258C1.77258 84.6739 1.77257 84.6739 1.85314 84.6739V84.5924V77.9891L1.77258 74.6467V72.3641L4.75371 78.9674L7.17084 84.3478C7.25141 84.4293 7.33198 84.5924 7.41256 84.5924H7.89598H8.37941C8.45998 84.5924 8.62112 84.5109 8.62112 84.3478L11.0383 78.9674L14.0194 72.3641V74.5652L13.9388 77.9076V84.5109C13.9388 84.5109 13.9388 84.5109 13.9388 84.5924H14.0194H15.792V84.5109V70.2446C15.792 70.2446 15.792 70.2446 15.792 70.163H13.3748C13.0525 70.2446 12.972 70.3261 12.8914 70.4891ZM49.4707 82.962H49.3901C48.2621 84.1848 46.7313 84.7554 44.9587 84.7554C43.6696 84.7554 42.6221 84.4293 41.8164 83.6956C41.0107 83.0435 40.6884 82.1467 40.6884 81.0054C40.6884 79.9457 41.0913 79.1304 41.8164 78.4783C42.5416 77.8261 43.4279 77.4185 44.5559 77.2554L49.229 76.6848V76.2772C49.229 75.625 48.9873 75.1359 48.4233 74.8098C47.9398 74.4837 47.2147 74.3206 46.409 74.3206C44.8781 74.3206 43.589 74.7283 42.461 75.625C42.2999 75.788 42.1387 75.7065 42.0582 75.5435L41.333 74.5652C41.1719 74.4022 41.2524 74.3206 41.4136 74.1576C42.8638 73.0978 44.5559 72.5272 46.4896 72.5272C47.7787 72.5272 48.9067 72.8533 49.8735 73.587C50.7598 74.2391 51.2433 75.2174 51.2433 76.5217V80.5978C51.2433 81.5761 51.4044 82.4728 51.7267 83.288L51.9684 83.9402C52.049 84.1033 51.9684 84.1848 51.8073 84.2663L50.6792 84.6739C50.5181 84.7554 50.357 84.6739 50.2764 84.5109L49.4707 82.962ZM49.1484 81.0054V78.4783L44.717 79.2119C44.153 79.2935 43.589 79.538 43.2667 79.8641C42.8639 80.1902 42.7027 80.5978 42.7027 81.087C42.7027 81.7391 42.9444 82.2283 43.4278 82.5543C43.9113 82.8804 44.4753 83.0435 45.2004 83.0435C46.0061 83.0435 46.8118 82.8804 47.537 82.5543C48.101 82.0652 48.665 81.5761 49.1484 81.0054ZM32.873 72.7717L33.1147 70.2446C33.1147 70.0815 33.1953 70 33.3565 70H34.565C34.7262 70 34.8067 70.0815 34.8067 70.3261V72.7717H38.1907C38.4324 72.7717 38.513 72.8533 38.513 73.0978V74.4022C38.513 74.5652 38.4324 74.6467 38.1907 74.6467H34.8067V80.9239C34.8067 81.5761 34.9679 82.0652 35.2902 82.4728C35.6125 82.7989 36.0959 83.0435 36.5793 83.0435C37.0627 83.0435 37.6267 82.8804 38.1907 82.6359C38.3519 82.5544 38.513 82.5543 38.5936 82.7989L38.9964 83.8587C39.077 84.0217 38.9964 84.1848 38.8353 84.2663C38.1102 84.7554 37.2239 85 36.3376 85C35.129 85 34.2428 84.6739 33.6788 84.0217C33.0342 83.3696 32.7925 82.3913 32.7925 81.1685V74.8098H31.3422C31.181 74.8098 31.1005 74.7283 31.1005 74.5652V73.1793C31.1005 73.0163 31.181 72.9348 31.3422 72.9348L32.873 72.7717ZM23.8491 74.4022C22.8016 74.4022 21.8348 74.7283 21.1097 75.3804C20.3845 76.0326 19.9011 76.8478 19.7399 77.8261H27.7165C27.6359 76.8478 27.1525 76.0326 26.4274 75.462C25.7022 74.7283 24.8159 74.4022 23.8491 74.4022Z" fill="white"/>
<path fill-rule="evenodd" clip-rule="evenodd" d="M80.319 73.1622H81.4355C81.6747 73.1622 81.7545 73.2432 81.7545 73.4054L81.914 74.3784H81.9937C82.9507 73.4054 84.0672 73 85.423 73C86.5395 73 87.4965 73.3243 88.294 73.973C89.0915 74.6216 89.6497 75.4324 89.9687 76.5676C90.0485 76.7297 89.9687 76.8108 89.8092 76.8108L88.4535 77.2973C88.3737 77.3784 88.294 77.2973 88.2142 77.1351C87.5762 75.5946 86.6192 74.7838 85.3432 74.7838C84.0672 74.7838 82.871 75.4324 81.9937 76.6486V84.6757C81.9937 84.9189 81.914 85 81.6747 85H80.319C80.0797 85 80 84.9189 80 84.6757V73.4865C80 73.3243 80.1595 73.1622 80.319 73.1622Z" fill="white"/>
<path fill-rule="evenodd" clip-rule="evenodd" d="M92 84.5973V73.4832C92 73.2416 92.0837 73.1611 92.3349 73.1611H93.507C93.6744 73.1611 93.8418 73.2416 93.8418 73.4027L94.0093 74.3691H94.1767C95.0139 73.4832 96.186 73 97.5256 73C99.2 73 100.456 73.6443 101.293 74.8524C102.298 73.6443 103.553 73 105.228 73C106.567 73 107.74 73.4027 108.66 74.2081C109.581 75.0134 110 76.2215 110 77.7517V84.5973C110 84.8389 109.916 84.9195 109.665 84.9195H108.242C108.074 84.9195 107.907 84.8389 107.907 84.5973V77.8322C107.907 76.8658 107.656 76.1409 107.153 75.5772C106.651 75.094 105.981 74.7718 105.06 74.7718C103.888 74.7718 102.884 75.3356 101.963 76.4631C102.047 76.7852 102.047 77.1879 102.047 77.6711V84.5973C102.047 84.8389 101.963 84.9195 101.712 84.9195H100.205C99.9535 84.9195 99.8698 84.8389 99.8698 84.5973V77.7517C99.8698 76.7852 99.6186 76.0604 99.2 75.5772C98.7814 75.094 98.1116 74.8524 97.2744 74.8524C96.0186 74.8524 94.9302 75.4966 94.0093 76.7047V84.6779C94.0093 84.9195 93.9256 85 93.7581 85H92.2512C92.0837 84.8389 92 84.7584 92 84.5973Z" fill="white"/>
<path fill-rule="evenodd" clip-rule="evenodd" d="M76.3167 83.24H76.2313C75.0346 84.44 73.4106 85 71.5302 85C70.1626 85 69.0514 84.68 68.1966 83.96C67.3419 83.32 67 82.44 67 81.32C67 80.28 67.4274 79.48 68.1966 78.84C68.9659 78.2 69.9061 77.8 71.1028 77.64L76.0603 77.08V76.68C76.0603 76.04 75.8039 75.56 75.2056 75.24C74.6927 74.92 73.9235 74.76 73.0687 74.76C71.4447 74.76 70.0771 75.16 68.8805 76.04C68.7095 76.2 68.5386 76.12 68.4531 75.96L67.6838 75C67.5128 74.84 67.5983 74.76 67.7693 74.6C69.3078 73.56 71.1028 73 73.1542 73C74.5218 73 75.7184 73.32 76.7441 74.04C77.6843 74.68 78.1972 75.64 78.1972 76.92V80.92C78.1972 81.88 78.3682 82.76 78.7101 83.56L78.9665 84.2C79.0519 84.36 78.9665 84.44 78.7955 84.52L77.5989 84.92C77.4279 85 77.257 84.92 77.1715 84.76L76.3167 83.24ZM75.9749 81.32V78.84L71.2737 79.56C70.5899 79.64 70.0771 79.88 69.7352 80.2C69.3078 80.52 69.1369 80.92 69.1369 81.4C69.1369 82.04 69.3933 82.52 69.9061 82.84C70.419 83.16 71.0173 83.32 71.7866 83.32C72.6413 83.32 73.4961 83.16 74.2654 82.84C74.8637 82.36 75.462 81.88 75.9749 81.32Z" fill="white"/>
<path fill-rule="evenodd" clip-rule="evenodd" d="M55.0023 70.0867C55.0023 70.0867 55.0023 70.1733 55.0023 70.0867V84.1257C55.0023 85.079 54.9185 84.9923 55.7574 84.9923H55.9252C57.0159 84.9923 56.932 85.1656 56.932 83.8657V78.1461H64.6508C65.1542 78.1461 65.1542 78.1461 65.1542 77.7128V77.1928C65.1542 76.4129 65.2381 76.3262 64.5669 76.3262L56.932 76.2396V71.9932H65.322C65.9932 71.9932 65.9931 71.9932 65.9931 71.4732V70.4333C65.9931 70.0867 66.0771 70 65.6576 70L55.0023 70.0867C55.0023 70.0867 55.0862 70.0867 55.0023 70.0867Z" fill="white"/>
</svg>
