<svg width="16" height="16" viewBox="0 0 16 16" fill="none" xmlns="http://www.w3.org/2000/svg">
<path fill-rule="evenodd" clip-rule="evenodd" d="M6.28601 5.97925H8.76201V7.21258C9.11868 6.50325 10.0333 5.86592 11.4073 5.86592C14.0413 5.86592 14.6667 7.27792 14.6667 9.86858V14.6666H12V10.4586C12 8.98325 11.6433 8.15125 10.7353 8.15125C9.47601 8.15125 8.95268 9.04792 8.95268 10.4579V14.6666H6.28601V5.97925ZM1.71334 14.5533H4.38001V5.86592H1.71334V14.5533ZM4.76201 3.03325C4.76211 3.25677 4.71778 3.47808 4.6316 3.68431C4.54542 3.89054 4.41911 4.07759 4.26001 4.23459C3.93761 4.555 3.50122 4.73435 3.04668 4.73325C2.59294 4.73295 2.15755 4.55405 1.83468 4.23525C1.67615 4.07773 1.55027 3.89047 1.46424 3.68421C1.37821 3.47794 1.33373 3.25673 1.33334 3.03325C1.33334 2.58192 1.51334 2.14992 1.83534 1.83125C2.15793 1.51202 2.5935 1.33305 3.04734 1.33325C3.50201 1.33325 3.93801 1.51259 4.26001 1.83125C4.58134 2.14992 4.76201 2.58192 4.76201 3.03325Z" fill="white"/>
</svg>
