<svg width="24" height="25" viewBox="0 0 24 25" fill="none" xmlns="http://www.w3.org/2000/svg">
<path d="M23.643 5.43708C22.808 5.80708 21.911 6.05708 20.968 6.17008C21.941 5.58787 22.6689 4.67154 23.016 3.59208C22.1018 4.13507 21.1013 4.51727 20.058 4.72208C19.3564 3.97294 18.4271 3.4764 17.4143 3.30955C16.4016 3.1427 15.3621 3.31487 14.4572 3.79933C13.5524 4.28379 12.8328 5.05344 12.4101 5.98878C11.9875 6.92412 11.8855 7.97283 12.12 8.97208C10.2677 8.87907 8.45562 8.39763 6.80142 7.55898C5.14722 6.72034 3.68784 5.54324 2.518 4.10408C2.118 4.79408 1.888 5.59408 1.888 6.44608C1.88755 7.21307 2.07643 7.96832 2.43787 8.64481C2.79932 9.3213 3.32216 9.89812 3.96 10.3241C3.22027 10.3005 2.49687 10.1007 1.85 9.74108V9.80108C1.84992 10.8768 2.22203 11.9195 2.90318 12.7521C3.58433 13.5847 4.53257 14.156 5.587 14.3691C4.90078 14.5548 4.18133 14.5822 3.483 14.4491C3.78049 15.3747 4.35999 16.1841 5.14036 16.764C5.92074 17.3439 6.86291 17.6653 7.835 17.6831C6.18483 18.9785 4.14688 19.6812 2.049 19.6781C1.67738 19.6782 1.30607 19.6565 0.936996 19.6131C3.06647 20.9823 5.54534 21.7089 8.077 21.7061C16.647 21.7061 21.332 14.6081 21.332 8.45208C21.332 8.25208 21.327 8.05008 21.318 7.85008C22.2293 7.19105 23.0159 6.37497 23.641 5.44008L23.643 5.43708Z" fill="white"/>
</svg>
