<svg width="1920" height="1004" viewBox="0 0 1920 1004" fill="none" xmlns="http://www.w3.org/2000/svg">
<path d="M1105.62 131.174C1371.58 105.535 1584.74 5.25645 1853.8 0.218286C1880.03 -0.272857 1921 0.218286 1921 0.218286V378H0.00012207V262.848C0.00012207 262.848 325.318 270.177 435.359 262.848C893.869 232.307 715.434 168.788 1105.62 131.174Z" fill="url(#paint0_linear_103_688)"/>
<g clip-path="url(#clip0_103_688)">
<rect y="378" width="1921" height="626" fill="#111111"/>
<g clip-path="url(#clip1_103_688)">
<path d="M1861.38 483.085C1862.16 481.791 1862.68 480.367 1862.81 478.944C1862.81 478.685 1862.81 478.426 1862.81 478.167C1862.68 477.779 1862.16 477.391 1861.77 477.391C1860.61 477.132 1859.44 477.649 1858.8 478.685C1858.15 479.72 1858.15 480.885 1858.54 481.92C1858.8 482.438 1859.19 483.085 1859.83 483.214C1860.48 483.473 1861.13 483.214 1861.51 482.696C1861.38 482.567 1861.13 482.438 1861 482.696L1861.38 483.085Z" fill="#66B821"/>
<path d="M1711.11 274.74C1709.56 274.74 1708.14 275.128 1706.85 275.775C1706.59 275.905 1706.46 276.034 1706.2 276.164C1705.94 276.552 1705.94 277.07 1706.07 277.458C1706.46 278.493 1707.62 279.269 1708.79 279.269C1709.95 279.269 1710.99 278.622 1711.63 277.717C1712.02 277.199 1712.28 276.552 1712.15 275.905C1712.02 275.258 1711.5 274.74 1710.86 274.74C1710.73 274.87 1710.86 275.128 1711.11 275.128V274.74Z" fill="#66B821"/>
<path d="M1854.92 484.767C1855.31 483.99 1855.31 483.085 1854.92 482.308C1854.01 482.308 1853.11 482.696 1852.72 483.473C1852.2 484.249 1852.46 485.284 1853.24 485.673C1854.01 486.061 1855.18 485.284 1854.92 484.508V484.767Z" fill="#66B821"/>
<path d="M1866.82 483.602C1866.82 483.344 1866.82 483.085 1866.69 482.697V482.567H1866.56C1866.3 482.567 1866.04 483.085 1865.78 482.955H1865.65C1865.52 482.955 1865.52 483.085 1865.65 483.214C1865.78 483.732 1866.43 483.861 1866.82 483.602Z" fill="#66B821"/>
<path d="M1876 480.885C1876 480.367 1876 479.849 1875.74 479.202C1875.74 479.202 1875.74 479.073 1875.61 479.073C1875.61 479.073 1875.48 479.073 1875.35 479.073C1874.83 479.202 1874.44 479.979 1873.93 479.849C1873.8 479.849 1873.67 479.72 1873.67 479.849C1873.54 479.849 1873.54 480.108 1873.54 480.238C1873.93 481.014 1875.09 481.273 1875.74 480.626C1875.87 480.755 1875.87 480.885 1876 480.885Z" fill="#66B821"/>
<path d="M1857.89 472.473C1858.02 472.085 1858.02 471.697 1857.89 471.309C1857.76 471.438 1857.5 471.438 1857.37 471.567C1857.25 471.697 1857.12 471.956 1857.25 472.085C1857.37 472.344 1857.63 472.344 1857.89 472.473C1857.89 472.473 1857.76 472.473 1857.89 472.473Z" fill="#66B821"/>
<path d="M1647.75 307.48C1647.62 307.48 1647.49 307.48 1647.49 307.61C1647.36 307.739 1647.36 307.739 1647.36 307.868C1647.36 308.127 1647.23 308.386 1647.1 308.774C1647.49 308.515 1648.01 308.386 1648.39 308.127H1648.52C1648.65 308.127 1648.78 308.257 1648.91 308.386C1649.04 308.515 1649.3 308.386 1649.43 308.127C1650.2 306.962 1648.39 307.48 1647.75 307.48Z" fill="#66B821"/>
<path d="M1877.55 460.697C1877.55 460.568 1877.55 460.439 1877.42 460.439C1877.29 460.309 1877.29 460.309 1877.16 460.309C1876.9 460.18 1876.64 460.05 1876.38 459.921C1876.51 460.439 1876.77 460.827 1876.9 461.344V461.474C1876.9 461.603 1876.77 461.733 1876.64 461.733C1876.51 461.862 1876.64 462.121 1876.77 462.25C1877.81 463.156 1877.55 461.215 1877.55 460.697Z" fill="#66B821"/>
<path d="M1659.65 278.105C1659.52 278.105 1659.39 278.105 1659.26 278.105C1659.26 278.364 1659.52 278.622 1659.77 278.622C1660.03 278.622 1660.29 278.364 1660.16 278.105C1660.03 277.975 1659.9 277.717 1660.03 277.717L1659.65 278.105Z" fill="#66B821"/>
<path d="M1885.57 468.203C1885.44 468.591 1884.79 468.721 1884.53 468.462C1884.27 468.203 1884.4 467.556 1884.79 467.556C1885.31 467.297 1885.7 467.815 1885.57 468.203Z" fill="#66B821"/>
<path d="M1870.05 475.45C1870.18 475.708 1870.44 476.097 1870.18 476.355C1869.92 476.614 1869.53 476.355 1869.4 476.226C1869.27 476.097 1869.14 476.097 1869.14 475.967C1869.14 475.708 1869.79 475.838 1869.92 475.45C1869.92 475.32 1870.05 475.45 1870.05 475.45Z" fill="#66B821"/>
<path d="M1856.73 477.132C1856.73 477.261 1856.86 477.391 1856.86 477.52C1856.6 477.391 1856.34 477.132 1856.34 476.873C1856.34 476.744 1856.21 476.485 1856.34 476.356C1856.47 476.226 1856.6 476.226 1856.73 476.226C1856.99 476.097 1857.12 475.838 1857.37 475.967C1857.5 475.967 1857.5 476.226 1857.5 476.356C1857.5 476.485 1857.37 476.614 1857.25 476.744C1856.99 477.003 1856.86 477.132 1856.6 477.391L1856.73 477.132Z" fill="#66B821"/>
<path d="M1852.46 479.332C1852.59 479.073 1852.2 478.944 1851.94 479.073C1851.68 479.202 1851.68 479.461 1851.68 479.72C1852.07 479.849 1852.46 479.591 1852.59 479.332H1852.46Z" fill="#66B821"/>
<path d="M1851.43 505.213C1851.43 505.084 1851.43 504.954 1851.43 504.825C1851.43 504.696 1851.3 504.566 1851.17 504.566C1850.91 504.566 1850.91 504.825 1850.65 504.954C1850.52 505.084 1850.26 504.954 1850.13 505.084C1850 505.213 1850.13 505.472 1850.26 505.601C1850.39 505.731 1850.65 505.731 1850.91 505.601C1851.04 505.601 1851.3 505.472 1851.43 505.343C1851.56 505.213 1851.56 504.954 1851.56 504.825L1851.43 505.213Z" fill="#66B821"/>
<path d="M1692.23 330.903C1692.36 331.032 1692.36 331.161 1692.23 331.161C1692.1 331.291 1691.98 331.291 1691.98 331.291C1691.85 331.291 1691.85 331.291 1691.72 331.291C1691.59 331.161 1691.46 331.032 1691.59 330.903C1691.72 330.773 1691.85 330.773 1691.98 330.773C1692.1 330.903 1692.1 331.032 1692.1 331.161L1692.23 330.903Z" fill="#66B821"/>
<path d="M1836.04 472.215C1836.04 472.344 1835.78 472.344 1835.78 472.344C1835.65 472.344 1835.65 472.215 1835.52 472.085C1835.52 471.956 1835.52 471.956 1835.52 471.826C1835.52 471.697 1835.78 471.568 1835.91 471.697C1836.04 471.697 1836.17 471.956 1836.04 472.085C1836.04 472.215 1835.78 472.344 1835.65 472.344L1836.04 472.215Z" fill="#66B821"/>
<path d="M1854.4 473.897C1854.66 473.897 1854.92 473.638 1854.79 473.379C1854.66 473.379 1854.53 473.379 1854.4 473.379C1854.27 473.509 1854.27 473.638 1854.27 473.767C1854.27 473.897 1854.53 473.897 1854.53 473.897H1854.4Z" fill="#66B821"/>
<path d="M1868.5 464.45C1868.75 464.45 1869.01 464.191 1868.88 463.933C1868.75 463.933 1868.63 463.933 1868.5 463.933C1868.37 464.062 1868.37 464.191 1868.37 464.321C1868.37 464.45 1868.63 464.45 1868.63 464.45H1868.5Z" fill="#66B821"/>
<path d="M1860.09 474.026C1860.35 473.767 1860.35 473.509 1860.35 473.25C1860.09 473.25 1859.83 473.379 1859.57 473.379C1859.44 473.379 1859.31 473.379 1859.31 473.509C1859.19 473.638 1859.19 474.026 1859.44 474.156C1859.57 474.285 1859.83 474.156 1860.09 474.026Z" fill="#66B821"/>
<path d="M1898.37 503.013C1898.5 503.402 1898.63 503.919 1898.76 504.307C1898.63 504.437 1898.37 504.178 1898.24 504.049C1898.11 503.79 1897.98 503.66 1897.98 503.402C1897.98 503.143 1898.24 502.884 1898.37 503.013Z" fill="#66B821"/>
<path d="M1892.68 496.543C1892.94 496.414 1892.94 495.896 1892.68 495.767C1892.42 495.637 1892.03 495.767 1891.77 496.025C1891.64 496.155 1891.64 496.284 1891.64 496.414C1891.64 496.672 1891.9 496.802 1892.16 496.802C1892.29 496.672 1892.55 496.672 1892.68 496.543Z" fill="#66B821"/>
<path d="M1869.14 473.638C1869.4 473.509 1869.53 473.25 1869.53 472.862C1869.27 472.862 1869.14 472.862 1868.88 472.991C1868.63 473.12 1868.5 473.379 1868.5 473.767C1868.75 474.026 1869.14 474.026 1869.14 473.638Z" fill="#66B821"/>
<path d="M1867.46 476.356C1867.46 476.614 1867.2 476.744 1866.94 476.614C1866.82 476.356 1866.82 476.226 1866.69 475.967C1866.94 475.709 1867.33 475.838 1867.46 476.226V476.356Z" fill="#66B821"/>
<path d="M1866.17 483.085C1866.17 483.214 1866.3 483.214 1866.3 483.344C1866.04 483.344 1865.91 483.344 1865.65 483.344C1865.39 483.344 1865.26 483.085 1865.26 482.955C1865.26 482.697 1865.52 482.567 1865.65 482.697C1865.91 482.697 1866.04 482.955 1866.17 483.085Z" fill="#66B821"/>
<path d="M1850.78 476.873C1850.65 477.002 1850.52 477.132 1850.39 477.132C1850.26 477.132 1850 477.002 1850 476.873C1850 476.744 1850 476.614 1850.13 476.614H1850.26C1850.39 476.614 1850.52 476.744 1850.78 476.873C1850.78 476.744 1850.78 476.873 1850.78 476.873Z" fill="#66B821"/>
<path d="M1848.19 473.638C1847.93 473.767 1847.93 474.026 1847.93 474.156C1847.93 474.414 1847.93 474.673 1847.68 474.803H1847.55C1847.42 474.803 1847.42 474.544 1847.42 474.414C1847.42 474.285 1847.29 474.156 1847.29 474.026C1847.16 473.767 1847.29 473.379 1847.55 473.25C1847.68 473.25 1847.81 473.25 1847.93 473.379C1848.06 473.509 1848.06 473.638 1847.93 473.767L1848.19 473.638Z" fill="#66B821"/>
<path d="M1846.38 472.344C1846.25 472.344 1846.25 472.215 1846.12 472.215C1845.99 472.344 1845.99 472.473 1845.99 472.603C1845.99 472.732 1846.25 472.732 1846.38 472.732C1846.51 472.603 1846.51 472.473 1846.38 472.344Z" fill="#66B821"/>
<path d="M1841.6 475.579C1841.47 475.579 1841.47 475.45 1841.34 475.45C1841.21 475.579 1841.21 475.709 1841.21 475.838C1841.21 475.967 1841.47 475.967 1841.6 475.967C1841.73 475.967 1841.73 475.709 1841.6 475.579Z" fill="#66B821"/>
<path d="M1856.21 473.638C1856.08 473.767 1856.34 473.897 1856.47 473.897C1856.6 473.897 1856.73 473.767 1856.99 473.767C1857.12 473.767 1857.37 473.767 1857.5 473.897C1857.63 474.026 1857.63 474.026 1857.63 474.156L1857.5 474.285C1857.25 474.544 1856.99 474.673 1856.73 474.803C1856.47 474.803 1856.08 474.803 1855.82 474.544C1855.69 474.414 1855.69 474.156 1855.82 473.897C1855.82 473.767 1856.08 473.638 1856.21 473.638Z" fill="#66B821"/>
<path d="M1633.01 254.165C1633.13 254.294 1633.26 254.165 1633.39 253.906C1633.39 253.776 1633.39 253.518 1633.39 253.388C1633.39 253.259 1633.52 253 1633.65 253C1633.78 253 1633.78 252.87 1633.91 253L1634.04 253.129C1634.17 253.388 1634.3 253.776 1634.3 254.035C1634.3 254.294 1634.17 254.682 1633.78 254.812C1633.52 254.941 1633.26 254.812 1633.13 254.682C1633.01 254.553 1633.01 254.294 1633.01 254.165Z" fill="#66B821"/>
<path d="M1627.32 321.844C1627.44 321.974 1627.57 321.844 1627.7 321.585C1627.7 321.456 1627.7 321.197 1627.7 321.068C1627.7 320.938 1627.83 320.68 1627.96 320.68C1628.09 320.68 1628.09 320.55 1628.22 320.68L1628.35 320.809C1628.48 321.068 1628.61 321.327 1628.61 321.715C1628.61 321.974 1628.48 322.362 1628.09 322.491C1627.83 322.621 1627.57 322.491 1627.44 322.362C1627.44 322.232 1627.32 321.974 1627.32 321.844Z" fill="#66B821"/>
<path d="M1867.98 454.874C1867.85 455.003 1868.11 455.133 1868.24 455.133C1868.37 455.133 1868.5 455.003 1868.75 455.003C1868.88 455.003 1869.14 455.003 1869.27 455.133C1869.4 455.262 1869.4 455.262 1869.4 455.392L1869.27 455.521C1869.01 455.78 1868.75 455.909 1868.5 456.039C1868.24 456.039 1867.85 456.039 1867.59 455.78C1867.46 455.65 1867.46 455.392 1867.59 455.133C1867.59 455.003 1867.85 454.874 1867.98 454.874Z" fill="#66B821"/>
<path d="M1858.93 470.273C1859.06 470.144 1859.06 469.885 1858.8 469.756C1858.67 469.626 1858.41 469.626 1858.28 469.756C1858.15 469.756 1858.15 469.885 1858.15 470.015L1858.28 470.144C1858.54 470.144 1858.8 470.273 1858.93 470.273Z" fill="#66B821"/>
<path d="M1888.8 543C1889.32 543 1889.83 542.87 1890.22 542.482C1890.35 542.482 1890.35 542.353 1890.35 542.223C1890.35 541.965 1890.09 541.965 1889.83 541.965C1889.58 541.835 1889.32 541.447 1889.06 541.318C1888.8 541.188 1888.54 541.318 1888.28 541.447C1887.89 541.576 1887.51 541.835 1887.51 542.223C1887.51 542.482 1887.76 542.482 1887.89 542.612C1888.28 542.741 1888.67 542.87 1889.19 543H1888.8Z" fill="#66B821"/>
<path d="M1877.68 472.603C1877.94 472.732 1878.2 472.344 1878.32 472.085C1878.45 471.956 1878.45 471.697 1878.32 471.568C1878.2 471.309 1877.81 471.438 1877.55 471.438C1877.29 471.568 1877.16 471.568 1876.9 471.697C1876.77 471.697 1876.64 471.826 1876.64 471.826C1876.64 471.956 1876.64 471.956 1876.64 472.085C1876.77 472.473 1877.03 472.862 1877.42 473.25L1877.68 472.603Z" fill="#66B821"/>
<path d="M1871.6 480.885C1873.93 482.438 1875.48 479.461 1873.8 477.65C1871.99 475.967 1869.53 479.591 1871.6 480.885Z" fill="#66B821"/>
<path d="M1855.69 481.014C1855.43 481.273 1854.79 481.144 1854.66 480.755C1854.92 480.626 1855.18 480.367 1855.56 480.367C1855.82 480.367 1856.21 480.626 1856.21 481.014C1856.08 481.144 1855.95 481.273 1855.82 481.402L1855.69 481.014Z" fill="#66B821"/>
<path d="M1920.87 462.121C1921 461.991 1920.87 461.862 1920.74 461.862C1920.48 461.862 1920.22 461.991 1920.09 461.991C1919.58 462.121 1919.06 462.38 1918.54 462.509C1918.28 462.638 1917.9 462.768 1917.77 462.897C1917.64 463.027 1917.9 463.156 1918.03 463.156C1918.28 463.156 1918.54 463.156 1918.8 463.027C1919.58 462.897 1920.61 462.509 1920.87 462.121C1920.87 461.991 1920.74 461.991 1920.48 461.991L1920.87 462.121Z" fill="#66B821"/>
<path d="M1846.25 475.838C1846.25 475.967 1846.25 475.967 1846.25 476.097C1846.12 476.097 1846.12 476.097 1845.99 476.097C1845.87 476.097 1845.87 476.097 1845.74 475.967C1845.61 475.838 1845.61 475.709 1845.61 475.579C1845.61 475.45 1845.87 475.32 1845.99 475.32C1846.12 475.32 1846.12 475.32 1846.25 475.32C1846.25 475.32 1846.38 475.45 1846.25 475.579V475.838Z" fill="#66B821"/>
<path d="M1853.24 471.956C1853.24 471.826 1853.24 471.826 1853.24 471.697C1853.11 471.697 1852.98 471.697 1852.85 471.826C1852.72 471.956 1852.72 472.085 1852.85 472.085H1852.98C1853.11 471.956 1853.24 471.956 1853.37 471.826L1853.24 471.956Z" fill="#66B821"/>
<path d="M1855.69 456.686C1855.69 456.427 1855.82 456.297 1855.82 456.039C1855.82 455.78 1855.69 455.65 1855.44 455.521C1855.31 455.521 1855.18 455.521 1855.18 455.521C1854.92 455.65 1854.79 456.039 1854.92 456.297C1855.05 456.815 1855.44 456.815 1855.69 456.686Z" fill="#66B821"/>
<path d="M1871.86 464.321C1871.99 464.58 1871.73 464.968 1871.47 464.838C1871.34 464.709 1871.21 464.58 1871.21 464.45C1871.34 464.321 1871.6 464.321 1871.73 464.321H1871.86Z" fill="#66B821"/>
<path d="M1855.31 486.837C1855.31 486.708 1855.18 486.579 1855.18 486.449C1855.05 486.449 1854.92 486.449 1854.92 486.579C1854.79 486.837 1855.05 486.967 1855.31 486.837Z" fill="#66B821"/>
<path d="M1563.82 306.057C1562.78 305.021 1561.36 304.245 1559.94 303.857C1559.68 303.727 1559.42 303.727 1559.29 303.727C1558.78 303.727 1558.52 304.245 1558.26 304.633C1557.74 305.668 1558.13 306.962 1558.91 307.739C1559.68 308.515 1560.97 308.774 1562.14 308.515C1562.78 308.386 1563.3 308.127 1563.69 307.609C1564.08 307.092 1563.95 306.315 1563.56 305.927C1563.3 305.927 1563.3 306.186 1563.43 306.445L1563.82 306.057Z" fill="#66B821"/>
<path d="M1602.49 330.773C1601.84 330.256 1600.8 330.126 1600.03 330.385C1599.9 331.291 1600.03 332.197 1600.68 332.714C1601.32 333.361 1602.49 333.361 1603 332.714C1603.52 332.067 1603 330.773 1602.1 330.903L1602.49 330.773Z" fill="#66B821"/>
<path d="M1590.98 325.597C1590.72 325.338 1590.2 325.209 1589.81 325.338C1589.81 325.468 1589.94 325.726 1589.94 325.856C1590.07 325.985 1590.2 326.115 1590.46 326.115C1590.72 326.115 1590.85 325.856 1590.98 325.597C1590.98 325.597 1590.98 325.726 1590.98 325.597Z" fill="#66B821"/>
<path d="M1588.78 327.409C1588.65 327.409 1588.52 327.409 1588.39 327.409C1588.26 327.409 1588.26 327.538 1588.13 327.668C1588 327.926 1587.87 328.185 1587.61 328.444C1588.13 328.315 1588.52 328.315 1589.04 328.185H1589.17C1589.3 328.185 1589.3 328.444 1589.42 328.444C1589.55 328.573 1589.81 328.444 1589.94 328.444C1591.24 327.538 1589.42 327.538 1588.78 327.409Z" fill="#66B821"/>
<path d="M1595.37 327.668C1595.5 327.668 1595.63 327.668 1595.76 327.668C1595.63 327.926 1595.24 328.056 1594.99 328.056C1594.86 328.056 1594.6 328.056 1594.47 327.926C1594.47 327.797 1594.47 327.668 1594.47 327.538C1594.47 327.279 1594.21 327.021 1594.34 326.891C1594.47 326.762 1594.6 326.762 1594.73 326.762C1594.86 326.762 1594.99 326.891 1594.99 327.021C1595.11 327.279 1595.37 327.538 1595.5 327.797L1595.37 327.668Z" fill="#66B821"/>
<path d="M1596.8 332.197C1596.54 332.067 1596.41 332.455 1596.41 332.714C1596.41 332.973 1596.8 332.973 1597.05 333.102C1597.18 332.714 1597.05 332.326 1596.8 332.197Z" fill="#66B821"/>
<path d="M1621.88 338.02C1621.75 338.02 1621.63 338.02 1621.5 338.02C1621.37 338.02 1621.24 338.149 1621.24 338.279C1621.24 338.538 1621.37 338.667 1621.5 338.796C1621.5 338.926 1621.5 339.185 1621.63 339.443C1621.75 339.573 1622.01 339.573 1622.14 339.443C1622.27 339.314 1622.27 339.055 1622.27 338.926C1622.27 338.796 1622.27 338.538 1622.14 338.408C1622.01 338.279 1621.88 338.149 1621.63 338.279L1621.88 338.02Z" fill="#66B821"/>
<path d="M1591.62 330.903C1591.75 331.032 1591.75 331.161 1591.62 331.161C1591.49 331.291 1591.36 331.291 1591.36 331.291C1591.24 331.291 1591.24 331.291 1591.11 331.291C1590.98 331.161 1590.85 331.032 1590.98 330.903C1591.11 330.773 1591.24 330.773 1591.36 330.773C1591.49 330.903 1591.49 331.032 1591.49 331.161L1591.62 330.903Z" fill="#66B821"/>
<path d="M1586.58 346.949C1586.71 347.078 1586.71 347.208 1586.58 347.208C1586.58 347.467 1586.45 347.467 1586.32 347.467C1586.19 347.467 1586.19 347.467 1586.06 347.467C1585.93 347.337 1585.8 347.208 1585.93 347.078C1586.06 346.949 1586.19 346.949 1586.32 346.949C1586.45 347.078 1586.45 347.208 1586.45 347.337L1586.58 346.949Z" fill="#66B821"/>
<path d="M1591.75 329.22C1591.88 328.961 1591.62 328.703 1591.36 328.832C1591.36 328.961 1591.36 329.091 1591.36 329.22C1591.36 329.35 1591.49 329.479 1591.62 329.479C1591.75 329.479 1591.88 329.35 1591.75 329.22Z" fill="#66B821"/>
<path d="M1592.92 323.785C1592.79 323.526 1592.4 323.397 1592.14 323.397C1592.14 323.656 1592.14 323.915 1592.14 324.173C1592.14 324.303 1592.14 324.432 1592.27 324.562C1592.4 324.691 1592.66 324.82 1592.92 324.562C1593.05 324.303 1593.05 324.044 1592.92 323.785Z" fill="#66B821"/>
<path d="M1593.95 333.491C1594.08 333.62 1594.21 333.749 1594.08 334.008C1594.08 334.138 1593.95 334.267 1593.69 334.396C1593.56 334.396 1593.43 334.396 1593.43 334.267V334.138C1593.69 333.749 1593.82 333.62 1593.95 333.491C1593.95 333.361 1593.95 333.491 1593.95 333.491Z" fill="#66B821"/>
<path d="M1590.33 335.432C1590.33 335.691 1590.59 335.691 1590.85 335.82C1591.11 335.82 1591.36 335.949 1591.36 336.079V336.208C1591.24 336.338 1591.11 336.208 1590.98 336.208C1590.85 336.208 1590.72 336.208 1590.59 336.208C1590.33 336.208 1590.07 336.079 1589.94 335.82C1589.94 335.691 1590.07 335.561 1590.2 335.432C1590.33 335.432 1590.46 335.432 1590.59 335.561L1590.33 335.432Z" fill="#66B821"/>
<path d="M1588.78 336.855C1588.78 336.985 1588.65 336.985 1588.65 337.114C1588.65 337.243 1588.91 337.373 1589.04 337.243C1589.17 337.243 1589.3 336.985 1589.17 336.985C1589.04 336.726 1588.91 336.726 1588.78 336.855Z" fill="#66B821"/>
<path d="M1591.11 342.29C1591.11 342.29 1590.98 342.42 1590.98 342.549C1590.98 342.679 1591.24 342.808 1591.36 342.679C1591.49 342.679 1591.62 342.42 1591.49 342.42C1591.36 342.161 1591.11 342.161 1591.11 342.29Z" fill="#66B821"/>
<path d="M1591.88 327.409C1592.01 327.538 1592.14 327.409 1592.27 327.15C1592.27 327.02 1592.27 326.762 1592.27 326.632C1592.27 326.503 1592.4 326.244 1592.53 326.244C1592.66 326.244 1592.66 326.115 1592.79 326.244L1592.92 326.373C1593.05 326.632 1593.17 326.891 1593.17 327.279C1593.17 327.538 1593.05 327.926 1592.66 328.056C1592.4 328.185 1592.14 328.056 1592.01 327.926C1591.88 327.926 1591.75 327.668 1591.88 327.409Z" fill="#66B821"/>
<path d="M1589.04 324.173C1588.91 324.044 1588.65 324.044 1588.52 324.173C1588.39 324.303 1588.26 324.562 1588.39 324.691C1588.39 324.82 1588.52 324.82 1588.52 324.82C1588.52 324.82 1588.65 324.82 1588.65 324.691C1588.78 324.562 1589.04 324.303 1589.04 324.173Z" fill="#66B821"/>
<path d="M1598.99 329.35C1599.25 329.738 1598.99 330.256 1598.61 330.256C1598.48 329.997 1598.35 329.609 1598.48 329.35C1598.48 329.091 1598.86 328.703 1599.12 328.832C1599.25 328.962 1599.25 329.22 1599.38 329.35H1598.99Z" fill="#66B821"/>
<path d="M1592.14 337.632C1592.27 337.632 1592.27 337.632 1592.4 337.761C1592.4 337.891 1592.4 337.891 1592.4 338.02C1592.4 338.149 1592.4 338.149 1592.27 338.279C1592.14 338.408 1592.01 338.408 1591.88 338.279C1591.75 338.149 1591.75 338.02 1591.75 337.891C1591.75 337.761 1591.75 337.761 1591.88 337.761C1591.88 337.761 1592.01 337.761 1592.14 337.761V337.632Z" fill="#66B821"/>
<path d="M1589.55 329.997C1589.42 329.997 1589.42 329.997 1589.3 329.997C1589.3 330.126 1589.3 330.256 1589.3 330.385C1589.42 330.514 1589.55 330.514 1589.68 330.385V330.256C1589.68 330.126 1589.55 329.997 1589.55 329.738V329.997Z" fill="#66B821"/>
<path d="M1625.38 284.963C1624.73 284.446 1623.69 284.316 1622.92 284.575C1622.79 285.481 1622.92 286.387 1623.57 286.905C1624.21 287.552 1625.38 287.552 1625.89 286.905C1626.41 286.257 1625.89 284.963 1624.99 285.093L1625.38 284.963Z" fill="#66B821"/>
<path d="M1609.6 310.198C1609.47 310.198 1609.34 310.198 1609.21 310.198C1609.08 310.198 1609.08 310.327 1608.95 310.456C1608.82 310.715 1608.69 310.974 1608.43 311.233C1608.95 311.103 1609.34 311.103 1609.86 310.974H1609.99C1610.12 310.974 1610.12 311.233 1610.25 311.233C1610.37 311.362 1610.63 311.362 1610.76 311.233C1612.18 310.456 1610.25 310.327 1609.6 310.198Z" fill="#66B821"/>
<path d="M1617.62 314.986C1617.36 314.856 1617.23 315.244 1617.23 315.503C1617.36 315.762 1617.62 315.762 1617.87 315.892C1618 315.503 1618 315.115 1617.62 314.986Z" fill="#66B821"/>
<path d="M1612.44 313.692C1612.57 313.821 1612.57 313.95 1612.44 313.95C1612.31 314.08 1612.18 314.08 1612.18 314.08C1612.06 314.08 1612.06 314.08 1611.93 314.08C1611.8 313.95 1611.67 313.821 1611.8 313.692C1611.93 313.562 1612.06 313.562 1612.18 313.562C1612.31 313.692 1612.31 313.821 1612.31 313.95L1612.44 313.692Z" fill="#66B821"/>
<path d="M1607.53 329.867C1607.66 329.997 1607.66 330.126 1607.53 330.126C1607.4 330.256 1607.27 330.256 1607.27 330.256C1607.14 330.256 1607.14 330.256 1607.01 330.256C1606.88 330.126 1606.75 329.997 1606.88 329.867C1607.01 329.738 1607.14 329.738 1607.27 329.738C1607.4 329.867 1607.4 329.997 1607.4 330.126L1607.53 329.867Z" fill="#66B821"/>
<path d="M1612.57 312.139C1612.7 311.88 1612.44 311.621 1612.18 311.75C1612.18 311.88 1612.18 312.009 1612.18 312.139C1612.18 312.268 1612.31 312.398 1612.44 312.398C1612.57 312.398 1612.7 312.268 1612.57 312.139Z" fill="#66B821"/>
<path d="M1614.77 316.28C1614.9 316.409 1615.03 316.539 1614.9 316.797C1614.9 316.927 1614.77 317.056 1614.51 317.186C1614.38 317.186 1614.25 317.186 1614.25 317.056V316.927C1614.51 316.539 1614.64 316.409 1614.77 316.28Z" fill="#66B821"/>
<path d="M1611.15 318.221C1611.15 318.48 1611.41 318.48 1611.67 318.609C1611.93 318.609 1612.18 318.738 1612.18 318.868V318.997C1612.06 319.127 1611.93 318.997 1611.8 318.997C1611.67 318.997 1611.54 318.997 1611.41 318.997C1611.15 318.997 1610.76 318.868 1610.76 318.609C1610.76 318.48 1610.89 318.35 1611.02 318.221C1611.15 318.221 1611.28 318.221 1611.41 318.35L1611.15 318.221Z" fill="#66B821"/>
<path d="M1609.6 319.644C1609.6 319.774 1609.47 319.774 1609.47 319.903C1609.47 320.032 1609.73 320.162 1609.86 320.032C1609.99 320.032 1610.12 319.774 1609.99 319.774C1609.86 319.644 1609.73 319.515 1609.6 319.644Z" fill="#66B821"/>
<path d="M1611.93 325.079C1611.93 325.209 1611.8 325.209 1611.8 325.338C1611.8 325.468 1612.06 325.597 1612.18 325.468C1612.31 325.468 1612.44 325.209 1612.31 325.209C1612.18 324.95 1612.06 324.95 1611.93 325.079Z" fill="#66B821"/>
<path d="M1612.7 310.327C1612.83 310.456 1612.96 310.327 1613.09 310.068C1613.09 309.939 1613.09 309.68 1613.09 309.55C1613.09 309.421 1613.22 309.162 1613.35 309.162C1613.48 309.162 1613.48 309.033 1613.61 309.162L1613.74 309.292C1613.87 309.55 1614 309.809 1614 310.197C1614 310.456 1613.87 310.845 1613.48 310.974C1613.22 311.103 1612.96 310.974 1612.83 310.845C1612.7 310.715 1612.57 310.456 1612.7 310.327Z" fill="#66B821"/>
<path d="M1613.09 320.421C1613.22 320.421 1613.22 320.421 1613.35 320.55C1613.48 320.679 1613.35 320.679 1613.35 320.809C1613.35 320.938 1613.35 320.938 1613.22 321.068C1613.09 321.197 1612.96 321.197 1612.83 321.068C1612.7 320.938 1612.7 320.809 1612.7 320.679C1612.7 320.55 1612.7 320.55 1612.83 320.55C1612.83 320.55 1612.96 320.55 1613.09 320.55V320.421Z" fill="#66B821"/>
<path d="M1610.5 312.786C1610.37 312.786 1610.37 312.786 1610.25 312.786C1610.25 312.915 1610.25 313.044 1610.25 313.174C1610.37 313.303 1610.5 313.303 1610.63 313.174V313.044C1610.63 312.915 1610.5 312.786 1610.5 312.527V312.786Z" fill="#66B821"/>
<path d="M1614 264.905C1613.35 264.388 1612.31 264.258 1611.54 264.517C1611.41 265.423 1611.54 266.329 1612.18 266.846C1612.83 267.493 1614 267.493 1614.51 266.846C1615.03 266.199 1614.51 264.905 1613.61 265.035L1614 264.905Z" fill="#66B821"/>
<path d="M1600.16 261.541C1600.03 261.541 1599.9 261.541 1599.77 261.541C1599.64 261.541 1599.64 261.67 1599.51 261.8C1599.51 262.058 1599.38 262.317 1599.12 262.576C1599.64 262.447 1600.03 262.447 1600.55 262.317H1600.68C1600.8 262.317 1600.8 262.576 1600.93 262.576C1601.06 262.705 1601.32 262.705 1601.45 262.576C1602.74 261.8 1600.8 261.67 1600.16 261.541Z" fill="#66B821"/>
<path d="M1652.02 257.529C1651.76 257.4 1651.63 257.788 1651.63 258.047C1651.76 258.306 1652.02 258.306 1652.27 258.435C1652.4 258.047 1652.4 257.659 1652.02 257.529Z" fill="#66B821"/>
<path d="M1603 265.035C1603.13 265.164 1603.13 265.293 1603 265.293C1602.87 265.423 1602.74 265.423 1602.74 265.423C1602.62 265.423 1602.62 265.423 1602.49 265.423C1602.36 265.293 1602.23 265.164 1602.36 265.035C1602.49 264.905 1602.62 264.905 1602.74 264.905C1602.87 265.035 1602.87 265.164 1602.87 265.293L1603 265.035Z" fill="#66B821"/>
<path d="M1598.09 281.21V281.469C1597.96 281.599 1597.83 281.599 1597.83 281.599C1597.7 281.599 1597.7 281.599 1597.57 281.599C1597.44 281.469 1597.31 281.34 1597.44 281.21C1597.57 281.081 1597.7 281.081 1597.83 281.081C1597.96 281.21 1597.96 281.34 1597.96 281.469L1598.09 281.21Z" fill="#66B821"/>
<path d="M1603.13 263.482C1603.26 263.223 1603 262.964 1602.74 263.094C1602.74 263.223 1602.74 263.352 1602.74 263.482C1602.74 263.611 1602.87 263.741 1603 263.741C1603.13 263.741 1603.26 263.611 1603.13 263.482Z" fill="#66B821"/>
<path d="M1605.33 267.623C1605.46 267.752 1605.59 267.882 1605.46 268.14C1605.46 268.27 1605.33 268.399 1605.07 268.529C1604.94 268.529 1604.81 268.529 1604.81 268.399V268.27C1605.07 267.882 1605.2 267.752 1605.33 267.623Z" fill="#66B821"/>
<path d="M1601.71 269.564C1601.71 269.823 1601.97 269.823 1602.23 269.952C1602.49 269.952 1602.74 270.082 1602.74 270.211V270.34C1602.62 270.47 1602.49 270.34 1602.36 270.34C1602.23 270.34 1602.1 270.34 1601.97 270.34C1601.71 270.34 1601.32 270.211 1601.32 269.952C1601.32 269.823 1601.45 269.693 1601.58 269.564C1601.71 269.564 1601.84 269.564 1601.97 269.693L1601.71 269.564Z" fill="#66B821"/>
<path d="M1600.16 271.117C1600.16 271.246 1600.03 271.246 1600.03 271.376C1600.03 271.505 1600.29 271.634 1600.42 271.505C1600.55 271.505 1600.68 271.246 1600.55 271.246C1600.42 270.987 1600.29 270.987 1600.16 271.117Z" fill="#66B821"/>
<path d="M1602.49 276.422C1602.49 276.552 1602.36 276.552 1602.36 276.681C1602.36 276.811 1602.62 276.94 1602.74 276.811C1602.87 276.811 1603 276.552 1602.87 276.552C1602.74 276.293 1602.62 276.293 1602.49 276.422Z" fill="#66B821"/>
<path d="M1652.92 265.682C1653.05 265.811 1653.18 265.682 1653.31 265.423C1653.31 265.293 1653.31 265.035 1653.31 264.905C1653.31 264.776 1653.44 264.517 1653.57 264.517C1653.7 264.517 1653.7 264.388 1653.83 264.517L1653.96 264.646C1654.08 264.905 1654.21 265.164 1654.21 265.552C1654.21 265.811 1654.08 266.199 1653.7 266.329C1653.44 266.458 1653.18 266.329 1653.05 266.199C1652.92 266.07 1652.79 265.94 1652.92 265.682Z" fill="#66B821"/>
<path d="M1603.52 271.764C1603.65 271.764 1603.65 271.764 1603.78 271.893C1603.91 272.023 1603.78 272.023 1603.78 272.152C1603.78 272.282 1603.78 272.282 1603.65 272.411C1603.52 272.54 1603.39 272.54 1603.26 272.411C1603.13 272.282 1603.13 272.152 1603.13 272.023C1603.13 271.893 1603.13 271.893 1603.26 271.893C1603.26 271.893 1603.39 271.893 1603.52 271.893V271.764Z" fill="#66B821"/>
<path d="M1601.06 264.129C1600.93 264.129 1600.93 264.129 1600.8 264.129C1600.8 264.258 1600.8 264.388 1600.8 264.517C1600.93 264.647 1601.06 264.647 1601.19 264.517V264.388C1601.19 264.258 1601.06 264.129 1601.06 263.87V264.129Z" fill="#66B821"/>
<path d="M1589.17 320.55C1589.04 320.421 1588.78 320.421 1588.52 320.421C1588.26 320.421 1588.13 320.55 1588 320.679C1588 320.809 1588 320.938 1588 320.938C1588.13 321.197 1588.52 321.456 1588.78 321.327C1589.17 321.327 1589.3 320.938 1589.17 320.55Z" fill="#66B821"/>
<path d="M1604.68 330.903C1604.56 330.903 1604.43 330.903 1604.3 330.903C1604.3 331.032 1604.3 331.161 1604.3 331.291C1604.43 331.291 1604.68 331.161 1604.68 330.903Z" fill="#66B821"/>
<path d="M1723.01 352.902C1721.98 351.867 1720.55 351.09 1719.13 350.702C1718.87 350.573 1718.61 350.573 1718.49 350.573C1717.97 350.573 1717.71 351.09 1717.45 351.478C1716.93 352.514 1717.32 353.808 1718.1 354.584C1718.87 355.361 1720.17 355.619 1721.33 355.361C1721.98 355.231 1722.49 354.972 1722.88 354.455C1723.27 353.937 1723.14 353.161 1722.75 352.772C1722.49 352.772 1722.49 353.031 1722.62 353.29L1723.01 352.902Z" fill="#66B821"/>
<path d="M1649.82 294.798C1649.17 294.281 1648.14 294.151 1647.36 294.41C1647.23 295.316 1647.36 296.222 1648.01 296.739C1648.65 297.386 1649.82 297.386 1650.33 296.739C1650.85 296.092 1650.33 294.798 1649.43 294.928L1649.82 294.798Z" fill="#66B821"/>
<path d="M1638.31 289.622C1638.05 289.363 1637.53 289.234 1637.14 289.363C1637.14 289.492 1637.27 289.751 1637.27 289.881C1637.4 290.01 1637.53 290.139 1637.79 290.139C1638.05 290.139 1638.18 289.881 1638.31 289.622C1638.31 289.622 1638.31 289.751 1638.31 289.622Z" fill="#66B821"/>
<path d="M1636.11 291.434C1635.98 291.434 1635.85 291.434 1635.72 291.434C1635.59 291.434 1635.59 291.563 1635.46 291.692C1635.33 291.951 1635.2 292.21 1634.95 292.469C1635.46 292.339 1635.85 292.339 1636.37 292.21H1636.5C1636.63 292.21 1636.63 292.469 1636.76 292.469C1636.88 292.598 1637.14 292.469 1637.27 292.469C1638.57 291.563 1636.76 291.563 1636.11 291.434Z" fill="#66B821"/>
<path d="M1630.42 283.799C1630.29 283.799 1630.16 283.799 1630.03 283.799C1630.03 284.057 1630.29 284.316 1630.55 284.316C1630.81 284.316 1631.07 284.057 1630.94 283.799C1630.81 283.669 1630.68 283.41 1630.81 283.41L1630.42 283.799Z" fill="#66B821"/>
<path d="M1642.7 291.692C1642.83 291.692 1642.96 291.692 1643.09 291.692C1642.96 291.951 1642.57 292.081 1642.32 292.081C1642.19 292.081 1641.93 292.081 1641.8 291.951C1641.8 291.822 1641.8 291.692 1641.8 291.563C1641.8 291.304 1641.54 291.045 1641.67 290.916C1641.8 290.787 1641.93 290.787 1642.06 290.787C1642.19 290.787 1642.32 290.916 1642.32 291.045C1642.45 291.304 1642.7 291.563 1642.83 291.822L1642.7 291.692Z" fill="#66B821"/>
<path d="M1644.13 296.222C1643.87 296.092 1643.74 296.481 1643.74 296.739C1643.87 296.998 1644.13 296.998 1644.39 297.128C1644.51 296.739 1644.39 296.351 1644.13 296.222Z" fill="#66B821"/>
<path d="M1638.95 294.928C1639.08 295.057 1639.08 295.186 1638.95 295.186C1638.82 295.316 1638.7 295.316 1638.7 295.316C1638.57 295.316 1638.57 295.316 1638.44 295.316C1638.31 295.186 1638.18 295.057 1638.31 294.928C1638.44 294.798 1638.57 294.798 1638.7 294.798C1638.82 294.928 1638.82 295.057 1638.82 295.186L1638.95 294.928Z" fill="#66B821"/>
<path d="M1639.08 293.245C1639.21 292.987 1638.95 292.728 1638.7 292.857C1638.7 292.987 1638.7 293.116 1638.7 293.245C1638.7 293.375 1638.82 293.504 1638.95 293.504C1639.08 293.504 1639.21 293.375 1639.08 293.245Z" fill="#66B821"/>
<path d="M1632.49 277.717C1632.62 277.458 1632.36 277.199 1632.1 277.328C1632.1 277.458 1632.1 277.587 1632.1 277.717C1632.1 277.846 1632.23 277.975 1632.36 277.975C1632.49 277.975 1632.62 277.846 1632.49 277.717Z" fill="#66B821"/>
<path d="M1640.25 287.81C1640.12 287.552 1639.73 287.422 1639.47 287.422C1639.47 287.681 1639.47 287.94 1639.47 288.199C1639.47 288.328 1639.47 288.457 1639.6 288.587C1639.73 288.716 1639.99 288.846 1640.25 288.587C1640.38 288.328 1640.38 288.069 1640.25 287.81Z" fill="#66B821"/>
<path d="M1641.28 297.516C1641.41 297.645 1641.54 297.775 1641.41 298.033C1641.41 298.163 1641.28 298.292 1641.02 298.422C1640.89 298.422 1640.76 298.422 1640.76 298.292V298.163C1641.02 297.775 1641.15 297.645 1641.28 297.516C1641.28 297.386 1641.28 297.516 1641.28 297.516Z" fill="#66B821"/>
<path d="M1640.64 300.88C1640.51 301.01 1640.51 301.268 1640.64 301.527C1640.76 301.786 1640.76 301.916 1640.64 302.174L1640.51 302.304C1640.38 302.304 1640.38 302.045 1640.25 301.916C1640.25 301.786 1640.12 301.786 1639.99 301.657C1639.86 301.398 1639.73 301.139 1639.99 300.88C1640.12 300.751 1640.25 300.751 1640.38 300.88C1640.51 301.01 1640.51 301.139 1640.51 301.268L1640.64 300.88Z" fill="#66B821"/>
<path d="M1638.44 300.363C1638.31 300.363 1638.31 300.363 1638.18 300.363C1638.05 300.492 1638.18 300.621 1638.18 300.751C1638.31 300.88 1638.44 300.88 1638.57 300.751C1638.7 300.621 1638.7 300.363 1638.44 300.363Z" fill="#66B821"/>
<path d="M1635.33 305.28C1635.2 305.28 1635.2 305.28 1635.07 305.28C1634.95 305.409 1635.07 305.539 1635.07 305.668C1635.2 305.798 1635.33 305.798 1635.46 305.668C1635.59 305.409 1635.46 305.28 1635.33 305.28Z" fill="#66B821"/>
<path d="M1639.21 291.434C1639.34 291.563 1639.47 291.434 1639.6 291.175C1639.6 291.045 1639.6 290.787 1639.6 290.657C1639.6 290.528 1639.73 290.269 1639.86 290.269C1639.99 290.269 1639.99 290.14 1640.12 290.269L1640.25 290.398C1640.38 290.657 1640.51 290.916 1640.51 291.304C1640.51 291.563 1640.38 291.951 1639.99 292.081C1639.73 292.21 1639.47 292.081 1639.34 291.951C1639.21 291.822 1639.08 291.692 1639.21 291.434Z" fill="#66B821"/>
<path d="M1670.77 279.011C1670.64 278.881 1670.38 278.881 1670.25 279.011C1670.12 279.14 1669.99 279.399 1670.12 279.528C1670.12 279.658 1670.25 279.658 1670.25 279.658C1670.25 279.658 1670.38 279.658 1670.38 279.528C1670.51 279.528 1670.64 279.269 1670.77 279.011Z" fill="#66B821"/>
<path d="M1646.33 293.375C1646.58 293.763 1646.33 294.28 1645.94 294.28C1645.81 294.022 1645.68 293.633 1645.81 293.375C1645.81 293.116 1646.2 292.728 1646.45 292.857C1646.58 292.986 1646.58 293.245 1646.71 293.375H1646.33Z" fill="#66B821"/>
<path d="M1639.73 303.598C1639.86 303.598 1639.86 303.727 1639.73 303.857C1639.73 303.986 1639.6 303.986 1639.47 303.986C1639.34 303.986 1639.34 303.986 1639.21 303.986C1639.08 303.986 1638.95 303.857 1638.95 303.598C1638.95 303.469 1639.08 303.339 1639.21 303.21C1639.34 303.21 1639.34 303.21 1639.47 303.21C1639.6 303.21 1639.6 303.339 1639.6 303.339L1639.73 303.598Z" fill="#66B821"/>
<path d="M1636.88 294.022C1636.76 294.022 1636.76 294.022 1636.63 294.022C1636.63 294.151 1636.63 294.281 1636.63 294.41C1636.76 294.539 1636.88 294.539 1637.01 294.41V294.281C1637.01 294.151 1636.88 294.022 1636.88 293.763V294.022Z" fill="#66B821"/>
<path d="M1636.5 284.575C1636.37 284.446 1636.11 284.446 1635.85 284.446C1635.59 284.446 1635.46 284.575 1635.33 284.705C1635.33 284.834 1635.33 284.963 1635.33 284.963C1635.46 285.222 1635.85 285.481 1636.11 285.352C1636.5 285.352 1636.63 284.963 1636.5 284.575Z" fill="#66B821"/>
<path d="M1652.02 294.927C1651.89 294.927 1651.76 294.927 1651.63 294.927C1651.63 295.057 1651.63 295.186 1651.63 295.316C1651.76 295.316 1652.02 295.186 1652.02 294.927Z" fill="#66B821"/>
<path d="M1641.28 307.998C1640.64 307.48 1639.6 307.351 1638.82 307.609C1638.7 308.515 1638.82 309.421 1639.47 309.939C1640.12 310.586 1641.28 310.586 1641.8 309.939C1642.32 309.292 1641.8 307.998 1640.89 308.127L1641.28 307.998Z" fill="#66B821"/>
<path d="M1586.71 277.328C1586.84 277.328 1586.97 277.328 1587.1 277.328C1586.97 277.587 1586.58 277.716 1586.32 277.716C1586.19 277.716 1585.93 277.716 1585.8 277.587C1585.8 277.458 1585.8 277.328 1585.8 277.199C1585.8 276.94 1585.55 276.681 1585.67 276.552C1585.8 276.422 1585.93 276.422 1586.06 276.422C1586.19 276.422 1586.32 276.552 1586.32 276.681C1586.45 276.94 1586.71 277.199 1586.84 277.458L1586.71 277.328Z" fill="#66B821"/>
<path d="M1618.52 291.045C1618.26 290.916 1618.13 291.304 1618.13 291.563C1618.26 291.822 1618.52 291.822 1618.78 291.951C1618.91 291.563 1618.78 291.175 1618.52 291.045Z" fill="#66B821"/>
<path d="M1630.29 307.998C1630.42 308.127 1630.42 308.256 1630.29 308.256C1630.16 308.386 1630.03 308.386 1630.03 308.386C1629.9 308.386 1629.9 308.386 1629.77 308.386C1629.64 308.256 1629.51 308.127 1629.64 307.998C1629.77 307.868 1629.9 307.868 1630.03 307.868C1630.16 307.998 1630.16 308.127 1630.16 308.256L1630.29 307.998Z" fill="#66B821"/>
<path d="M1632.75 310.586C1632.88 310.715 1633.01 310.845 1632.88 311.103C1632.88 311.233 1632.75 311.362 1632.49 311.492C1632.36 311.492 1632.23 311.492 1632.23 311.362V311.233C1632.36 310.974 1632.49 310.715 1632.75 310.586C1632.62 310.586 1632.75 310.586 1632.75 310.586Z" fill="#66B821"/>
<path d="M1676.33 301.916C1676.2 302.045 1676.2 302.304 1676.33 302.563C1676.46 302.822 1676.46 302.951 1676.33 303.21L1676.2 303.339C1676.07 303.339 1676.07 303.08 1675.94 302.951C1675.94 302.822 1675.81 302.822 1675.68 302.692C1675.55 302.433 1675.42 302.174 1675.68 301.916C1675.81 301.786 1675.94 301.786 1676.07 301.916C1676.2 302.045 1676.2 302.174 1676.2 302.304L1676.33 301.916Z" fill="#66B821"/>
<path d="M1629.9 313.433C1629.77 313.433 1629.77 313.433 1629.64 313.433C1629.51 313.562 1629.64 313.691 1629.64 313.821C1629.77 313.95 1629.9 313.95 1630.03 313.821C1630.16 313.691 1630.03 313.562 1629.9 313.433Z" fill="#66B821"/>
<path d="M1626.8 318.35C1626.67 318.35 1626.67 318.35 1626.54 318.35C1626.41 318.48 1626.54 318.609 1626.54 318.738C1626.67 318.868 1626.8 318.868 1626.93 318.738C1626.93 318.609 1626.93 318.35 1626.8 318.35Z" fill="#66B821"/>
<path d="M1637.66 306.574C1637.92 306.962 1637.66 307.48 1637.27 307.48C1637.14 307.221 1637.01 306.833 1637.14 306.574C1637.14 306.315 1637.53 305.927 1637.79 306.056C1637.92 306.186 1637.92 306.445 1638.05 306.574H1637.66Z" fill="#66B821"/>
<path d="M1631.19 316.797C1631.32 316.797 1631.32 316.927 1631.19 317.056C1631.19 317.186 1631.07 317.186 1630.94 317.186C1630.81 317.186 1630.81 317.186 1630.68 317.186C1630.55 317.186 1630.42 317.056 1630.42 316.797C1630.42 316.668 1630.55 316.539 1630.68 316.409C1630.81 316.409 1630.81 316.409 1630.94 316.409C1631.07 316.409 1631.07 316.539 1631.07 316.539L1631.19 316.797Z" fill="#66B821"/>
<path d="M1643.35 307.998C1643.22 307.998 1643.09 307.998 1642.96 307.998C1642.96 308.127 1642.96 308.256 1642.96 308.386C1643.22 308.515 1643.48 308.256 1643.35 307.998Z" fill="#66B821"/>
<path d="M1623.95 308.645C1623.82 308.645 1623.69 308.645 1623.57 308.645C1623.57 308.774 1623.57 308.904 1623.57 309.033C1623.69 309.162 1623.95 308.904 1623.95 308.645Z" fill="#66B821"/>
<path d="M1920.22 504.307C1920.48 504.696 1920.48 505.343 1920.35 505.731C1920.35 505.731 1920.35 505.86 1920.22 505.86C1920.09 505.86 1920.09 505.86 1919.97 505.86C1919.45 505.601 1918.93 505.213 1918.93 504.566C1919.06 504.048 1919.71 503.79 1920.09 504.178C1920.09 504.307 1920.09 504.437 1920.09 504.696L1920.22 504.307Z" fill="#66B821"/>
<path d="M1640.12 414.758C1639.6 413.334 1638.82 412.04 1637.79 411.005C1637.66 410.876 1637.4 410.617 1637.27 410.617C1636.88 410.488 1636.37 410.617 1635.98 410.876C1635.07 411.523 1634.69 412.817 1635.07 413.981C1635.46 415.017 1636.37 415.923 1637.53 416.181C1638.18 416.311 1638.82 416.311 1639.34 416.052C1639.86 415.793 1640.25 415.017 1639.99 414.499C1639.86 414.499 1639.6 414.629 1639.6 414.887L1640.12 414.758Z" fill="#66B821"/>
<path d="M1637.4 420.84C1637.01 420.064 1636.37 419.417 1635.46 419.287C1634.95 419.934 1634.69 420.84 1634.95 421.746C1635.2 422.523 1636.24 423.17 1637.01 422.781C1637.79 422.393 1637.92 421.099 1637.14 420.711L1637.4 420.84Z" fill="#66B821"/>
<path d="M1644 410.876C1643.74 410.746 1643.48 410.488 1643.22 410.358H1643.09C1643.09 410.358 1643.09 410.358 1642.96 410.488C1642.83 410.746 1643.09 411.135 1642.83 411.393C1642.83 411.393 1642.7 411.393 1642.7 411.523C1642.7 411.652 1642.83 411.652 1642.83 411.652C1643.48 411.782 1644 411.264 1644 410.876Z" fill="#66B821"/>
<path d="M1647.62 402.076C1647.23 401.688 1646.71 401.429 1646.2 401.17H1646.07C1645.94 401.17 1645.94 401.3 1645.94 401.3C1645.68 401.817 1646.07 402.594 1645.68 402.853C1645.55 402.853 1645.55 402.982 1645.42 403.112C1645.42 403.241 1645.55 403.37 1645.68 403.5C1646.58 403.759 1647.49 402.853 1647.36 401.947C1647.49 402.076 1647.49 402.076 1647.62 402.076Z" fill="#66B821"/>
<path d="M1629.77 410.876C1629.64 410.488 1629.26 410.229 1628.87 410.099C1628.87 410.229 1628.74 410.488 1628.74 410.617C1628.74 410.746 1628.87 411.005 1629 411.005C1629.26 411.135 1629.51 411.005 1629.77 410.876C1629.64 410.876 1629.64 410.876 1629.77 410.876Z" fill="#66B821"/>
<path d="M1632.88 388.1C1632.75 387.971 1632.75 387.971 1632.62 387.971C1632.49 387.971 1632.36 387.971 1632.36 388.1C1632.1 388.23 1631.84 388.359 1631.58 388.489C1632.1 388.618 1632.49 388.747 1633.01 388.877H1633.13C1633.26 389.006 1633.13 389.136 1633.26 389.265C1633.26 389.394 1633.52 389.524 1633.78 389.524C1635.07 389.524 1633.39 388.489 1632.88 388.1Z" fill="#66B821"/>
<path d="M1643.87 386.677C1644.13 387.065 1643.74 387.583 1643.35 387.583C1642.96 387.583 1642.57 387.065 1642.83 386.806C1642.96 386.289 1643.61 386.289 1643.87 386.677Z" fill="#66B821"/>
<path d="M1639.6 403.241C1639.86 403.241 1640.38 403.37 1640.38 403.758C1640.38 404.017 1639.99 404.276 1639.73 404.276C1639.6 404.276 1639.47 404.405 1639.34 404.276C1639.08 404.017 1639.6 403.629 1639.47 403.37C1639.47 403.241 1639.73 403.37 1639.6 403.37V403.241Z" fill="#66B821"/>
<path d="M1632.62 414.758C1632.75 414.758 1632.88 414.887 1632.88 414.887C1632.62 415.017 1632.23 415.017 1631.97 414.887C1631.84 414.887 1631.58 414.758 1631.58 414.629C1631.58 414.499 1631.71 414.37 1631.71 414.24C1631.84 413.981 1631.71 413.723 1631.84 413.593C1631.97 413.593 1632.1 413.593 1632.23 413.723C1632.36 413.852 1632.36 413.981 1632.36 414.111C1632.36 414.37 1632.49 414.758 1632.49 415.017L1632.62 414.758Z" fill="#66B821"/>
<path d="M1631.71 419.417C1631.58 419.158 1631.19 419.417 1631.19 419.676C1631.19 419.934 1631.32 420.193 1631.58 420.323C1631.84 420.064 1631.97 419.676 1631.84 419.417H1631.71Z" fill="#66B821"/>
<path d="M1651.11 436.369C1650.98 436.24 1650.98 436.24 1650.85 436.11C1650.72 436.11 1650.59 436.11 1650.46 436.24C1650.33 436.369 1650.46 436.628 1650.46 436.887C1650.46 437.145 1650.2 437.275 1650.2 437.404C1650.2 437.663 1650.46 437.663 1650.72 437.663C1650.85 437.534 1650.98 437.404 1651.11 437.275C1651.24 437.145 1651.24 436.887 1651.24 436.757C1651.24 436.628 1651.11 436.369 1650.85 436.369H1651.11Z" fill="#66B821"/>
<path d="M1615.81 427.699C1615.81 427.828 1615.81 427.957 1615.68 427.957C1615.55 427.957 1615.42 427.957 1615.29 427.957L1615.16 427.828C1615.03 427.699 1615.16 427.44 1615.29 427.44C1615.42 427.31 1615.68 427.44 1615.68 427.569C1615.81 427.699 1615.68 427.957 1615.55 427.957L1615.81 427.699Z" fill="#66B821"/>
<path d="M1628.61 414.499C1628.74 414.37 1628.74 413.982 1628.48 413.982C1628.35 414.111 1628.35 414.24 1628.35 414.37C1628.35 414.499 1628.35 414.629 1628.48 414.629C1628.61 414.629 1628.74 414.499 1628.61 414.499Z" fill="#66B821"/>
<path d="M1630.16 397.547C1630.29 397.418 1630.29 397.029 1630.03 397.029C1629.9 397.159 1629.9 397.288 1629.9 397.418C1629.9 397.547 1629.9 397.676 1630.03 397.676C1630.16 397.676 1630.29 397.547 1630.16 397.547Z" fill="#66B821"/>
<path d="M1632.36 410.229C1632.36 409.97 1632.1 409.711 1631.84 409.452C1631.71 409.711 1631.58 409.841 1631.45 410.099C1631.45 410.229 1631.32 410.358 1631.32 410.488C1631.32 410.746 1631.58 410.876 1631.84 410.746C1632.1 410.746 1632.23 410.488 1632.36 410.229Z" fill="#66B821"/>
<path d="M1678.91 398.582C1679.3 398.712 1679.69 398.971 1680.21 399.1C1680.21 399.359 1679.95 399.359 1679.69 399.359C1679.43 399.359 1679.17 399.229 1679.04 399.1C1678.78 398.971 1678.78 398.582 1678.91 398.582Z" fill="#66B821"/>
<path d="M1670.25 398.97C1670.38 398.712 1669.99 398.323 1669.6 398.453C1669.34 398.582 1669.09 398.97 1669.21 399.229C1669.21 399.359 1669.34 399.488 1669.47 399.617C1669.6 399.747 1669.86 399.617 1670.12 399.488C1670.25 399.359 1670.25 399.1 1670.25 398.97Z" fill="#66B821"/>
<path d="M1637.79 402.853C1637.92 402.594 1637.66 402.206 1637.53 402.076C1637.4 402.206 1637.27 402.464 1637.14 402.594C1637.14 402.853 1637.27 403.241 1637.53 403.241C1637.66 403.37 1638.05 403.111 1637.79 402.853Z" fill="#66B821"/>
<path d="M1638.7 405.829C1638.82 405.958 1638.82 406.217 1638.7 406.346C1638.44 406.217 1638.31 406.217 1638.05 406.088C1638.05 405.829 1638.44 405.57 1638.7 405.57V405.829Z" fill="#66B821"/>
<path d="M1643.09 411.135C1643.22 411.135 1643.22 411.135 1643.35 411.135C1643.22 411.264 1643.09 411.523 1642.96 411.652C1642.83 411.782 1642.58 411.782 1642.32 411.652C1642.19 411.523 1642.19 411.135 1642.45 411.135C1642.7 411.135 1642.96 411.135 1643.09 411.135Z" fill="#66B821"/>
<path d="M1628.61 419.158C1628.74 419.287 1628.61 419.546 1628.48 419.676C1628.35 419.805 1628.22 419.805 1627.96 419.805C1627.83 419.805 1627.7 419.676 1627.83 419.546L1627.96 419.417C1628.22 419.287 1628.35 419.158 1628.61 419.158Z" fill="#66B821"/>
<path d="M1624.47 419.158C1624.34 419.417 1624.6 419.546 1624.73 419.675C1624.86 419.805 1625.12 419.934 1625.12 420.193C1625.12 420.193 1625.12 420.323 1624.99 420.323C1624.86 420.452 1624.73 420.193 1624.6 420.064C1624.47 419.934 1624.34 419.934 1624.21 419.934C1623.95 419.805 1623.82 419.546 1623.82 419.287C1623.95 419.158 1624.08 419.028 1624.21 419.158C1624.34 419.158 1624.47 419.287 1624.6 419.417L1624.47 419.158Z" fill="#66B821"/>
<path d="M1622.4 419.676C1622.27 419.676 1622.27 419.805 1622.14 419.805C1622.14 419.934 1622.27 420.064 1622.4 420.064C1622.53 420.064 1622.66 419.934 1622.66 419.805C1622.66 419.805 1622.53 419.676 1622.4 419.676Z" fill="#66B821"/>
<path d="M1621.88 425.499C1621.75 425.499 1621.75 425.628 1621.63 425.628C1621.63 425.758 1621.75 425.887 1621.88 425.887C1622.01 425.887 1622.14 425.758 1622.14 425.628C1622.14 425.628 1622.01 425.499 1621.88 425.499Z" fill="#66B821"/>
<path d="M1629.51 412.817C1629.64 412.946 1629.77 412.946 1629.9 412.817C1630.03 412.688 1630.03 412.558 1630.16 412.429C1630.29 412.299 1630.42 412.17 1630.55 412.17C1630.68 412.17 1630.81 412.17 1630.81 412.299V412.429C1630.81 412.688 1630.81 413.076 1630.68 413.335C1630.55 413.593 1630.16 413.852 1629.9 413.852C1629.64 413.852 1629.51 413.723 1629.38 413.464C1629.38 413.205 1629.38 412.946 1629.51 412.817Z" fill="#66B821"/>
<path d="M1622.4 391.853C1622.53 391.982 1622.66 391.982 1622.79 391.853C1622.92 391.724 1622.92 391.594 1623.05 391.465C1623.18 391.335 1623.31 391.206 1623.44 391.206C1623.57 391.206 1623.69 391.206 1623.69 391.335V391.465C1623.69 391.724 1623.69 392.112 1623.57 392.371C1623.44 392.63 1623.05 392.888 1622.79 392.888C1622.53 392.888 1622.4 392.759 1622.27 392.5C1622.27 392.241 1622.27 391.982 1622.4 391.853Z" fill="#66B821"/>
<path d="M1628.74 408.676C1628.74 408.417 1628.48 408.288 1628.22 408.417C1627.96 408.417 1627.83 408.676 1627.83 408.805C1627.83 408.935 1627.83 409.064 1627.83 409.064H1627.96C1628.35 408.805 1628.48 408.805 1628.74 408.676Z" fill="#66B821"/>
<path d="M1704 431.193C1704.39 430.804 1704.52 430.287 1704.52 429.769C1704.52 429.64 1704.52 429.64 1704.39 429.51C1704.26 429.381 1704 429.64 1703.87 429.64C1703.61 429.769 1703.23 429.769 1702.84 429.899C1702.58 430.028 1702.45 430.287 1702.45 430.546C1702.32 430.934 1702.32 431.451 1702.58 431.581C1702.71 431.71 1702.97 431.581 1703.23 431.451C1703.61 431.193 1704 430.934 1704.26 430.675L1704 431.193Z" fill="#66B821"/>
<path d="M1642.32 395.476C1642.58 395.347 1642.45 394.959 1642.32 394.7C1642.19 394.571 1642.06 394.312 1641.93 394.312C1641.67 394.312 1641.54 394.571 1641.41 394.829C1641.28 395.088 1641.28 395.218 1641.15 395.476C1641.15 395.606 1641.02 395.735 1641.15 395.735C1641.15 395.865 1641.28 395.865 1641.41 395.865C1641.8 395.994 1642.32 395.994 1642.83 395.994L1642.32 395.476Z" fill="#66B821"/>
<path d="M1644.9 405.57C1647.62 404.664 1646.2 401.688 1643.87 401.817C1641.28 402.076 1642.58 406.347 1644.9 405.57Z" fill="#66B821"/>
<path d="M1634.95 417.993C1634.95 418.381 1634.43 418.77 1634.04 418.64C1634.04 418.381 1634.17 417.993 1634.3 417.734C1634.43 417.476 1634.95 417.346 1635.07 417.605C1635.07 417.734 1635.07 417.993 1635.07 418.123L1634.95 417.993Z" fill="#66B821"/>
<path d="M1661.33 355.36C1661.33 355.102 1661.2 355.102 1661.07 355.36C1660.94 355.49 1660.81 355.749 1660.68 356.007C1660.42 356.525 1660.29 357.043 1660.03 357.56C1659.9 357.819 1659.77 358.207 1659.9 358.337C1659.9 358.466 1660.16 358.466 1660.29 358.207C1660.42 358.078 1660.55 357.819 1660.68 357.56C1661.07 356.784 1661.46 355.749 1661.33 355.102C1661.2 355.231 1661.07 355.36 1661.07 355.49L1661.33 355.36Z" fill="#66B821"/>
<path d="M1625.12 422.005C1625.25 422.005 1625.25 422.134 1625.25 422.134C1625.25 422.264 1625.12 422.264 1625.12 422.393L1624.99 422.523C1624.86 422.523 1624.73 422.523 1624.6 422.393C1624.47 422.264 1624.6 422.134 1624.6 422.005L1624.73 421.875C1624.73 421.875 1624.86 421.875 1624.86 422.005H1625.12Z" fill="#66B821"/>
<path d="M1626.41 414.111C1626.28 414.111 1626.28 413.982 1626.15 413.982C1626.02 414.111 1626.02 414.241 1626.02 414.37C1626.02 414.499 1626.15 414.629 1626.28 414.499V414.37C1626.28 414.241 1626.41 414.111 1626.41 413.852V414.111Z" fill="#66B821"/>
<path d="M1616.06 402.594C1615.94 402.464 1615.81 402.206 1615.68 402.206C1615.55 402.076 1615.29 402.076 1615.03 402.206C1614.9 402.335 1614.9 402.335 1614.9 402.465C1614.9 402.723 1615.03 403.112 1615.42 403.112C1615.68 403.241 1616.06 402.982 1616.06 402.594Z" fill="#66B821"/>
<path d="M1632.1 394.829C1632.36 394.959 1632.49 395.347 1632.23 395.606C1632.1 395.606 1631.84 395.606 1631.71 395.476C1631.71 395.347 1631.84 395.088 1631.97 394.959L1632.1 394.829Z" fill="#66B821"/>
<path d="M1639.21 422.005C1639.08 422.005 1638.95 421.875 1638.82 421.875C1638.82 422.005 1638.7 422.134 1638.7 422.134C1638.82 422.264 1639.21 422.264 1639.21 422.005Z" fill="#66B821"/>
<path d="M1693.66 382.406C1694.17 382.406 1694.69 382.795 1694.82 383.312V383.442C1694.82 383.571 1694.69 383.571 1694.56 383.571C1694.04 383.83 1693.4 383.959 1693.01 383.571C1692.62 383.183 1692.88 382.536 1693.4 382.406C1693.53 382.536 1693.66 382.665 1693.79 382.665L1693.66 382.406Z" fill="#66B821"/>
</g>
<g clip-path="url(#clip2_103_688)">
<path d="M235.384 587.085C236.16 585.791 236.677 584.367 236.806 582.944C236.806 582.685 236.806 582.426 236.806 582.167C236.677 581.779 236.16 581.391 235.772 581.391C234.608 581.132 233.444 581.649 232.797 582.685C232.151 583.72 232.151 584.885 232.539 585.92C232.797 586.438 233.185 587.085 233.832 587.214C234.478 587.473 235.125 587.214 235.513 586.696C235.384 586.567 235.125 586.438 234.996 586.696L235.384 587.085Z" fill="#66B821"/>
<path d="M85.1143 378.74C83.5625 378.74 82.14 379.128 80.8468 379.775C80.5881 379.905 80.4588 380.034 80.2002 380.164C79.9415 380.552 79.9415 381.07 80.0708 381.458C80.4588 382.493 81.6227 383.269 82.7866 383.269C83.9504 383.269 84.985 382.622 85.6316 381.717C86.0196 381.199 86.2782 380.552 86.1489 379.905C86.0196 379.258 85.5023 378.74 84.8557 378.74C84.7264 378.87 84.8557 379.128 85.1143 379.128V378.74Z" fill="#66B821"/>
<path d="M228.918 588.767C229.306 587.99 229.306 587.085 228.918 586.308C228.012 586.308 227.107 586.696 226.719 587.473C226.202 588.249 226.461 589.284 227.236 589.673C228.012 590.061 229.176 589.284 228.918 588.508V588.767Z" fill="#66B821"/>
<path d="M240.815 587.602C240.815 587.344 240.815 587.085 240.686 586.697V586.567H240.556C240.298 586.567 240.039 587.085 239.781 586.955H239.651C239.522 586.955 239.522 587.085 239.651 587.214C239.781 587.732 240.427 587.861 240.815 587.602Z" fill="#66B821"/>
<path d="M249.997 584.885C249.997 584.367 249.997 583.849 249.738 583.202C249.738 583.202 249.738 583.073 249.609 583.073C249.609 583.073 249.479 583.073 249.35 583.073C248.833 583.202 248.445 583.979 247.928 583.849C247.798 583.849 247.669 583.72 247.669 583.849C247.54 583.849 247.54 584.108 247.54 584.238C247.928 585.014 249.092 585.273 249.738 584.626C249.867 584.755 249.867 584.885 249.997 584.885Z" fill="#66B821"/>
<path d="M231.892 576.473C232.021 576.085 232.021 575.697 231.892 575.309C231.763 575.438 231.504 575.438 231.375 575.567C231.245 575.697 231.116 575.956 231.245 576.085C231.375 576.344 231.633 576.344 231.892 576.473C231.892 576.473 231.763 576.473 231.892 576.473Z" fill="#66B821"/>
<path d="M21.7477 411.48C21.6184 411.48 21.4891 411.48 21.4891 411.61C21.3598 411.739 21.3598 411.739 21.3598 411.868C21.3598 412.127 21.2305 412.386 21.1011 412.774C21.4891 412.515 22.0064 412.386 22.3943 412.127H22.5237C22.653 412.127 22.7823 412.257 22.9116 412.386C23.0409 412.515 23.2996 412.386 23.4289 412.127C24.2048 410.962 22.3943 411.48 21.7477 411.48Z" fill="#66B821"/>
<path d="M251.549 564.697C251.549 564.568 251.549 564.439 251.419 564.439C251.29 564.309 251.29 564.309 251.161 564.309C250.902 564.18 250.643 564.05 250.385 563.921C250.514 564.439 250.773 564.827 250.902 565.344V565.474C250.902 565.603 250.773 565.733 250.643 565.733C250.514 565.862 250.643 566.121 250.773 566.25C251.807 567.156 251.549 565.215 251.549 564.697Z" fill="#66B821"/>
<path d="M33.6452 382.105C33.5158 382.105 33.3865 382.105 33.2572 382.105C33.2572 382.364 33.5158 382.622 33.7745 382.622C34.0331 382.622 34.2917 382.364 34.1624 382.105C34.0331 381.975 33.9038 381.717 34.0331 381.717L33.6452 382.105Z" fill="#66B821"/>
<path d="M259.566 572.203C259.437 572.591 258.79 572.721 258.532 572.462C258.273 572.203 258.403 571.556 258.79 571.556C259.308 571.297 259.696 571.815 259.566 572.203Z" fill="#66B821"/>
<path d="M244.048 579.45C244.177 579.708 244.436 580.097 244.177 580.355C243.919 580.614 243.531 580.355 243.401 580.226C243.272 580.097 243.143 580.097 243.143 579.967C243.143 579.708 243.789 579.838 243.919 579.45C243.919 579.32 244.048 579.45 244.048 579.45Z" fill="#66B821"/>
<path d="M230.728 581.132C230.728 581.261 230.857 581.391 230.857 581.52C230.599 581.391 230.34 581.132 230.34 580.873C230.34 580.744 230.211 580.485 230.34 580.356C230.47 580.226 230.599 580.226 230.728 580.226C230.987 580.097 231.116 579.838 231.375 579.967C231.504 579.967 231.504 580.226 231.504 580.356C231.504 580.485 231.375 580.614 231.245 580.744C230.987 581.003 230.857 581.132 230.599 581.391L230.728 581.132Z" fill="#66B821"/>
<path d="M226.461 583.332C226.59 583.073 226.202 582.944 225.943 583.073C225.685 583.202 225.685 583.461 225.685 583.72C226.073 583.849 226.461 583.591 226.59 583.332H226.461Z" fill="#66B821"/>
<path d="M225.426 609.213C225.426 609.084 225.426 608.954 225.426 608.825C225.426 608.696 225.297 608.566 225.167 608.566C224.909 608.566 224.909 608.825 224.65 608.954C224.521 609.084 224.262 608.954 224.133 609.084C224.003 609.213 224.133 609.472 224.262 609.601C224.391 609.731 224.65 609.731 224.909 609.601C225.038 609.601 225.297 609.472 225.426 609.343C225.555 609.213 225.555 608.954 225.555 608.825L225.426 609.213Z" fill="#66B821"/>
<path d="M66.2337 434.903C66.363 435.032 66.363 435.161 66.2337 435.161C66.1043 435.291 65.975 435.291 65.975 435.291C65.8457 435.291 65.8457 435.291 65.7164 435.291C65.5871 435.161 65.4578 435.032 65.5871 434.903C65.7164 434.773 65.8457 434.773 65.975 434.773C66.1043 434.903 66.1043 435.032 66.1043 435.161L66.2337 434.903Z" fill="#66B821"/>
<path d="M210.037 576.215C210.037 576.344 209.778 576.344 209.778 576.344C209.649 576.344 209.649 576.215 209.52 576.085C209.52 575.956 209.52 575.956 209.52 575.826C209.52 575.697 209.778 575.568 209.908 575.697C210.037 575.697 210.166 575.956 210.037 576.085C210.037 576.215 209.778 576.344 209.649 576.344L210.037 576.215Z" fill="#66B821"/>
<path d="M228.4 577.897C228.659 577.897 228.918 577.638 228.788 577.379C228.659 577.379 228.53 577.379 228.4 577.379C228.271 577.509 228.271 577.638 228.271 577.767C228.271 577.897 228.53 577.897 228.53 577.897H228.4Z" fill="#66B821"/>
<path d="M242.496 568.45C242.755 568.45 243.014 568.191 242.884 567.933C242.755 567.933 242.626 567.933 242.496 567.933C242.367 568.062 242.367 568.191 242.367 568.321C242.367 568.45 242.626 568.45 242.626 568.45H242.496Z" fill="#66B821"/>
<path d="M234.09 578.026C234.349 577.767 234.349 577.509 234.349 577.25C234.09 577.25 233.832 577.379 233.573 577.379C233.444 577.379 233.315 577.379 233.315 577.509C233.185 577.638 233.185 578.026 233.444 578.156C233.573 578.285 233.832 578.156 234.09 578.026Z" fill="#66B821"/>
<path d="M272.369 607.013C272.498 607.402 272.628 607.919 272.757 608.307C272.628 608.437 272.369 608.178 272.24 608.049C272.11 607.79 271.981 607.66 271.981 607.402C271.981 607.143 272.24 606.884 272.369 607.013Z" fill="#66B821"/>
<path d="M266.679 600.543C266.938 600.414 266.938 599.896 266.679 599.767C266.42 599.637 266.032 599.767 265.774 600.025C265.644 600.155 265.644 600.284 265.644 600.414C265.644 600.672 265.903 600.802 266.162 600.802C266.291 600.672 266.55 600.672 266.679 600.543Z" fill="#66B821"/>
<path d="M243.143 577.638C243.401 577.509 243.531 577.25 243.531 576.862C243.272 576.862 243.143 576.862 242.884 576.991C242.626 577.12 242.496 577.379 242.496 577.767C242.755 578.026 243.143 578.026 243.143 577.638Z" fill="#66B821"/>
<path d="M241.462 580.356C241.462 580.614 241.203 580.744 240.944 580.614C240.815 580.356 240.815 580.226 240.686 579.967C240.944 579.709 241.332 579.838 241.462 580.226V580.356Z" fill="#66B821"/>
<path d="M240.168 587.085C240.168 587.214 240.298 587.214 240.298 587.344C240.039 587.344 239.91 587.344 239.651 587.344C239.393 587.344 239.263 587.085 239.263 586.955C239.263 586.697 239.522 586.567 239.651 586.697C239.91 586.697 240.039 586.955 240.168 587.085Z" fill="#66B821"/>
<path d="M224.779 580.873C224.65 581.002 224.521 581.132 224.392 581.132C224.262 581.132 224.004 581.002 224.004 580.873C224.004 580.744 224.004 580.614 224.133 580.614H224.262C224.391 580.614 224.521 580.744 224.779 580.873C224.779 580.744 224.779 580.873 224.779 580.873Z" fill="#66B821"/>
<path d="M222.193 577.638C221.934 577.767 221.934 578.026 221.934 578.156C221.934 578.414 221.934 578.673 221.676 578.803H221.546C221.417 578.803 221.417 578.544 221.417 578.414C221.417 578.285 221.288 578.156 221.288 578.026C221.158 577.767 221.288 577.379 221.546 577.25C221.676 577.25 221.805 577.25 221.934 577.379C222.064 577.509 222.064 577.638 221.934 577.767L222.193 577.638Z" fill="#66B821"/>
<path d="M220.383 576.344C220.253 576.344 220.253 576.215 220.124 576.215C219.995 576.344 219.995 576.473 219.995 576.603C219.995 576.732 220.253 576.732 220.383 576.732C220.512 576.603 220.512 576.473 220.383 576.344Z" fill="#66B821"/>
<path d="M215.598 579.579C215.468 579.579 215.468 579.45 215.339 579.45C215.21 579.579 215.21 579.709 215.21 579.838C215.21 579.967 215.468 579.967 215.598 579.967C215.727 579.967 215.727 579.709 215.598 579.579Z" fill="#66B821"/>
<path d="M230.211 577.638C230.082 577.767 230.34 577.897 230.47 577.897C230.599 577.897 230.728 577.767 230.987 577.767C231.116 577.767 231.375 577.767 231.504 577.897C231.633 578.026 231.633 578.026 231.633 578.156L231.504 578.285C231.245 578.544 230.987 578.673 230.728 578.803C230.47 578.803 230.082 578.803 229.823 578.544C229.694 578.414 229.694 578.156 229.823 577.897C229.823 577.767 230.082 577.638 230.211 577.638Z" fill="#66B821"/>
<path d="M7.00531 358.165C7.13463 358.294 7.26395 358.165 7.39327 357.906C7.39327 357.776 7.39327 357.518 7.39327 357.388C7.39327 357.259 7.52259 357 7.65191 357C7.78123 357 7.78123 356.87 7.91055 357L8.03987 357.129C8.16919 357.388 8.29851 357.776 8.29851 358.035C8.29851 358.294 8.16919 358.682 7.78123 358.812C7.52259 358.941 7.26395 358.812 7.13463 358.682C7.00531 358.553 7.00531 358.294 7.00531 358.165Z" fill="#66B821"/>
<path d="M1.31525 425.844C1.44457 425.974 1.57389 425.844 1.70321 425.585C1.70321 425.456 1.70321 425.197 1.70321 425.068C1.70321 424.938 1.83252 424.68 1.96184 424.68C2.09116 424.68 2.09116 424.55 2.22048 424.68L2.3498 424.809C2.47912 425.068 2.60844 425.327 2.60844 425.715C2.60844 425.974 2.47912 426.362 2.09116 426.491C1.83253 426.621 1.57389 426.491 1.44457 426.362C1.44457 426.232 1.31525 425.974 1.31525 425.844Z" fill="#66B821"/>
<path d="M241.979 558.874C241.85 559.003 242.108 559.133 242.238 559.133C242.367 559.133 242.496 559.003 242.755 559.003C242.884 559.003 243.143 559.003 243.272 559.133C243.401 559.262 243.401 559.262 243.401 559.392L243.272 559.521C243.014 559.78 242.755 559.909 242.496 560.039C242.238 560.039 241.85 560.039 241.591 559.78C241.462 559.65 241.462 559.392 241.591 559.133C241.591 559.003 241.85 558.874 241.979 558.874Z" fill="#66B821"/>
<path d="M232.927 574.273C233.056 574.144 233.056 573.885 232.797 573.756C232.668 573.626 232.409 573.626 232.28 573.756C232.151 573.756 232.151 573.885 232.151 574.015L232.28 574.144C232.539 574.144 232.797 574.273 232.927 574.273Z" fill="#66B821"/>
<path d="M262.799 647C263.317 647 263.834 646.87 264.222 646.482C264.351 646.482 264.351 646.353 264.351 646.223C264.351 645.965 264.093 645.965 263.834 645.965C263.575 645.835 263.317 645.447 263.058 645.318C262.799 645.188 262.541 645.318 262.282 645.447C261.894 645.576 261.506 645.835 261.506 646.223C261.506 646.482 261.765 646.482 261.894 646.612C262.282 646.741 262.67 646.87 263.187 647H262.799Z" fill="#66B821"/>
<path d="M251.678 576.603C251.937 576.732 252.195 576.344 252.324 576.085C252.454 575.956 252.454 575.697 252.324 575.568C252.195 575.309 251.807 575.438 251.549 575.438C251.29 575.568 251.161 575.568 250.902 575.697C250.773 575.697 250.643 575.826 250.643 575.826C250.643 575.956 250.643 575.956 250.643 576.085C250.773 576.473 251.031 576.862 251.419 577.25L251.678 576.603Z" fill="#66B821"/>
<path d="M245.6 584.885C247.928 586.438 249.479 583.461 247.798 581.65C245.988 579.967 243.531 583.591 245.6 584.885Z" fill="#66B821"/>
<path d="M229.694 585.014C229.435 585.273 228.788 585.144 228.659 584.755C228.918 584.626 229.176 584.367 229.564 584.367C229.823 584.367 230.211 584.626 230.211 585.014C230.082 585.144 229.952 585.273 229.823 585.402L229.694 585.014Z" fill="#66B821"/>
<path d="M294.871 566.121C295 565.991 294.871 565.862 294.741 565.862C294.483 565.862 294.224 565.991 294.095 565.991C293.577 566.121 293.06 566.38 292.543 566.509C292.284 566.638 291.896 566.768 291.767 566.897C291.638 567.027 291.896 567.156 292.026 567.156C292.284 567.156 292.543 567.156 292.802 567.027C293.577 566.897 294.612 566.509 294.871 566.121C294.871 565.991 294.741 565.991 294.483 565.991L294.871 566.121Z" fill="#66B821"/>
<path d="M220.253 579.838C220.253 579.967 220.253 579.967 220.253 580.097C220.124 580.097 220.124 580.097 219.995 580.097C219.865 580.097 219.865 580.097 219.736 579.967C219.607 579.838 219.607 579.709 219.607 579.579C219.607 579.45 219.865 579.32 219.995 579.32C220.124 579.32 220.124 579.32 220.253 579.32C220.253 579.32 220.383 579.45 220.253 579.579V579.838Z" fill="#66B821"/>
<path d="M227.237 575.956C227.237 575.826 227.237 575.826 227.237 575.697C227.107 575.697 226.978 575.697 226.849 575.826C226.719 575.956 226.719 576.085 226.849 576.085H226.978C227.107 575.956 227.237 575.956 227.366 575.826L227.237 575.956Z" fill="#66B821"/>
<path d="M229.694 560.686C229.694 560.427 229.823 560.297 229.823 560.039C229.823 559.78 229.694 559.65 229.435 559.521C229.306 559.521 229.176 559.521 229.176 559.521C228.918 559.65 228.788 560.039 228.918 560.297C229.047 560.815 229.435 560.815 229.694 560.686Z" fill="#66B821"/>
<path d="M245.859 568.321C245.988 568.58 245.729 568.968 245.471 568.838C245.341 568.709 245.212 568.58 245.212 568.45C245.341 568.321 245.6 568.321 245.729 568.321H245.859Z" fill="#66B821"/>
<path d="M229.306 590.837C229.306 590.708 229.176 590.579 229.176 590.449C229.047 590.449 228.918 590.449 228.918 590.579C228.788 590.837 229.047 590.967 229.306 590.837Z" fill="#66B821"/>
<path d="M-0.62457 388.963C-1.27117 388.446 -2.30573 388.316 -3.08164 388.575C-3.21096 389.481 -3.08165 390.387 -2.43505 390.905C-1.78845 391.552 -0.624568 391.552 -0.107288 390.905C0.409991 390.257 -0.107289 388.963 -1.01253 389.093L-0.62457 388.963Z" fill="#66B821"/>
<path d="M26.0153 361.529C25.7566 361.4 25.6273 361.788 25.6273 362.047C25.7566 362.306 26.0153 362.306 26.2739 362.435C26.4032 362.047 26.4032 361.659 26.0153 361.529Z" fill="#66B821"/>
<path d="M26.9205 369.682C27.0498 369.811 27.1791 369.682 27.3085 369.423C27.3085 369.293 27.3085 369.035 27.3085 368.905C27.3085 368.776 27.4378 368.517 27.5671 368.517C27.6964 368.517 27.6964 368.388 27.8257 368.517L27.9551 368.646C28.0844 368.905 28.2137 369.164 28.2137 369.552C28.2137 369.811 28.0844 370.199 27.6964 370.329C27.4378 370.458 27.1791 370.329 27.0498 370.199C26.9205 370.07 26.7912 369.94 26.9205 369.682Z" fill="#66B821"/>
<path d="M97.0117 456.902C95.9772 455.867 94.5547 455.09 93.1321 454.702C92.8735 454.573 92.6149 454.573 92.4855 454.573C91.9683 454.573 91.7096 455.09 91.451 455.478C90.9337 456.514 91.3217 457.808 92.0976 458.584C92.8735 459.361 94.1667 459.619 95.3306 459.361C95.9772 459.231 96.4944 458.972 96.8824 458.455C97.2704 457.937 97.141 457.161 96.7531 456.772C96.4944 456.772 96.4945 457.031 96.6238 457.29L97.0117 456.902Z" fill="#66B821"/>
<path d="M23.8168 398.798C23.1702 398.281 22.1357 398.151 21.3598 398.41C21.2304 399.316 21.3598 400.222 22.0064 400.739C22.653 401.386 23.8168 401.386 24.3341 400.739C24.8514 400.092 24.3341 398.798 23.4289 398.928L23.8168 398.798Z" fill="#66B821"/>
<path d="M12.3074 393.622C12.0488 393.363 11.5315 393.234 11.1436 393.363C11.1436 393.492 11.2729 393.751 11.2729 393.881C11.4022 394.01 11.5315 394.139 11.7902 394.139C12.0488 394.139 12.1781 393.881 12.3074 393.622C12.3074 393.622 12.3074 393.751 12.3074 393.622Z" fill="#66B821"/>
<path d="M10.1089 395.434C9.97963 395.434 9.8503 395.434 9.72098 395.434C9.59166 395.434 9.59167 395.563 9.46235 395.692C9.33303 395.951 9.20371 396.21 8.94507 396.469C9.46235 396.339 9.8503 396.339 10.3676 396.21H10.4969C10.6262 396.21 10.6262 396.469 10.7555 396.469C10.8849 396.598 11.1435 396.469 11.2728 396.469C12.566 395.563 10.7555 395.563 10.1089 395.434Z" fill="#66B821"/>
<path d="M4.4189 387.799C4.28958 387.799 4.16026 387.799 4.03094 387.799C4.03094 388.057 4.28958 388.316 4.54822 388.316C4.80686 388.316 5.0655 388.057 4.93618 387.799C4.80686 387.669 4.67754 387.41 4.80686 387.41L4.4189 387.799Z" fill="#66B821"/>
<path d="M16.7043 395.692C16.8336 395.692 16.9629 395.692 17.0922 395.692C16.9629 395.951 16.5749 396.081 16.3163 396.081C16.187 396.081 15.9283 396.081 15.799 395.951C15.799 395.822 15.799 395.692 15.799 395.563C15.799 395.304 15.5404 395.045 15.6697 394.916C15.799 394.787 15.9283 394.787 16.0577 394.787C16.187 394.787 16.3163 394.916 16.3163 395.045C16.4456 395.304 16.7043 395.563 16.8336 395.822L16.7043 395.692Z" fill="#66B821"/>
<path d="M18.1268 400.222C17.8681 400.092 17.7388 400.481 17.7388 400.739C17.8681 400.998 18.1268 400.998 18.3854 401.128C18.5147 400.739 18.3854 400.351 18.1268 400.222Z" fill="#66B821"/>
<path d="M12.954 398.928C13.0833 399.057 13.0833 399.186 12.954 399.186C12.8247 399.316 12.6954 399.316 12.6954 399.316C12.5661 399.316 12.5661 399.316 12.4367 399.316C12.3074 399.186 12.1781 399.057 12.3074 398.928C12.4367 398.798 12.5661 398.798 12.6954 398.798C12.8247 398.928 12.8247 399.057 12.8247 399.186L12.954 398.928Z" fill="#66B821"/>
<path d="M13.0833 397.245C13.2126 396.987 12.954 396.728 12.6954 396.857C12.6954 396.987 12.6954 397.116 12.6954 397.245C12.6954 397.375 12.8247 397.504 12.954 397.504C13.0833 397.504 13.2126 397.375 13.0833 397.245Z" fill="#66B821"/>
<path d="M6.488 381.717C6.61732 381.458 6.35868 381.199 6.10004 381.328C6.10004 381.458 6.10004 381.587 6.10004 381.717C6.10004 381.846 6.22936 381.975 6.35868 381.975C6.488 381.975 6.61732 381.846 6.488 381.717Z" fill="#66B821"/>
<path d="M14.2472 391.81C14.1179 391.552 13.73 391.422 13.4713 391.422C13.4713 391.681 13.4713 391.94 13.4713 392.199C13.4713 392.328 13.4713 392.457 13.6006 392.587C13.7299 392.716 13.9886 392.846 14.2472 392.587C14.3765 392.328 14.3765 392.069 14.2472 391.81Z" fill="#66B821"/>
<path d="M15.2817 401.516C15.4111 401.645 15.5404 401.775 15.4111 402.033C15.4111 402.163 15.2817 402.292 15.0231 402.422C14.8938 402.422 14.7645 402.422 14.7645 402.292V402.163C15.0231 401.775 15.1524 401.645 15.2817 401.516C15.2817 401.386 15.2817 401.516 15.2817 401.516Z" fill="#66B821"/>
<path d="M14.6352 404.88C14.5058 405.01 14.5058 405.268 14.6352 405.527C14.7645 405.786 14.7645 405.916 14.6352 406.174L14.5058 406.304C14.3765 406.304 14.3765 406.045 14.2472 405.916C14.2472 405.786 14.1179 405.786 13.9886 405.657C13.8592 405.398 13.7299 405.139 13.9886 404.88C14.1179 404.751 14.2472 404.751 14.3765 404.88C14.5058 405.01 14.5058 405.139 14.5058 405.268L14.6352 404.88Z" fill="#66B821"/>
<path d="M12.4367 404.363C12.3074 404.363 12.3074 404.363 12.1781 404.363C12.0488 404.492 12.1781 404.621 12.1781 404.751C12.3074 404.88 12.4367 404.88 12.566 404.751C12.6954 404.621 12.6954 404.363 12.4367 404.363Z" fill="#66B821"/>
<path d="M9.33309 409.28C9.20377 409.28 9.20376 409.28 9.07444 409.28C8.94512 409.409 9.07444 409.539 9.07444 409.668C9.20376 409.798 9.33309 409.798 9.46241 409.668C9.59173 409.409 9.46241 409.28 9.33309 409.28Z" fill="#66B821"/>
<path d="M13.2126 395.434C13.3419 395.563 13.4713 395.434 13.6006 395.175C13.6006 395.045 13.6006 394.787 13.6006 394.657C13.6006 394.528 13.7299 394.269 13.8592 394.269C13.9885 394.269 13.9885 394.14 14.1179 394.269L14.2472 394.398C14.3765 394.657 14.5058 394.916 14.5058 395.304C14.5058 395.563 14.3765 395.951 13.9885 396.081C13.7299 396.21 13.4713 396.081 13.3419 395.951C13.2126 395.822 13.0833 395.692 13.2126 395.434Z" fill="#66B821"/>
<path d="M44.7666 383.011C44.6373 382.881 44.3787 382.881 44.2494 383.011C44.12 383.14 43.9907 383.399 44.12 383.528C44.12 383.658 44.2494 383.658 44.2494 383.658C44.2494 383.658 44.3787 383.658 44.3787 383.528C44.508 383.528 44.6373 383.269 44.7666 383.011Z" fill="#66B821"/>
<path d="M20.3252 397.375C20.5839 397.763 20.3252 398.28 19.9373 398.28C19.808 398.022 19.6786 397.633 19.808 397.375C19.808 397.116 20.1959 396.728 20.4546 396.857C20.5839 396.986 20.5839 397.245 20.7132 397.375H20.3252Z" fill="#66B821"/>
<path d="M13.7299 407.598C13.8592 407.598 13.8592 407.727 13.7299 407.857C13.7299 407.986 13.6006 407.986 13.4713 407.986C13.3419 407.986 13.3419 407.986 13.2126 407.986C13.0833 407.986 12.954 407.857 12.954 407.598C12.954 407.469 13.0833 407.339 13.2126 407.21C13.3419 407.21 13.3419 407.21 13.4713 407.21C13.6006 407.21 13.6006 407.339 13.6006 407.339L13.7299 407.598Z" fill="#66B821"/>
<path d="M10.8849 398.022C10.7555 398.022 10.7555 398.022 10.6262 398.022C10.6262 398.151 10.6262 398.281 10.6262 398.41C10.7555 398.539 10.8849 398.539 11.0142 398.41V398.281C11.0142 398.151 10.8849 398.022 10.8849 397.763V398.022Z" fill="#66B821"/>
<path d="M10.497 388.575C10.3676 388.446 10.109 388.446 9.85035 388.446C9.59171 388.446 9.46239 388.575 9.33307 388.705C9.33307 388.834 9.33307 388.963 9.33307 388.963C9.46239 389.222 9.85035 389.481 10.109 389.352C10.497 389.352 10.6263 388.963 10.497 388.575Z" fill="#66B821"/>
<path d="M26.0153 398.927C25.886 398.927 25.7566 398.927 25.6273 398.927C25.6273 399.057 25.6273 399.186 25.6273 399.316C25.7566 399.316 26.0153 399.186 26.0153 398.927Z" fill="#66B821"/>
<path d="M15.2817 411.998C14.6351 411.48 13.6006 411.351 12.8247 411.609C12.6953 412.515 12.8247 413.421 13.4713 413.939C14.1179 414.586 15.2817 414.586 15.799 413.939C16.3163 413.292 15.799 411.998 14.8938 412.127L15.2817 411.998Z" fill="#66B821"/>
<path d="M4.28958 411.998C4.4189 412.127 4.4189 412.256 4.28958 412.256C4.16026 412.386 4.03094 412.386 4.03094 412.386C3.90162 412.386 3.90162 412.386 3.7723 412.386C3.64298 412.256 3.51366 412.127 3.64298 411.998C3.7723 411.868 3.90162 411.868 4.03094 411.868C4.16026 411.998 4.16026 412.127 4.16026 412.256L4.28958 411.998Z" fill="#66B821"/>
<path d="M6.74665 414.586C6.87597 414.715 7.0053 414.845 6.87598 415.103C6.87598 415.233 6.74665 415.362 6.48801 415.492C6.35869 415.492 6.22937 415.492 6.22937 415.362V415.233C6.35869 414.974 6.48801 414.715 6.74665 414.586C6.61733 414.586 6.74665 414.586 6.74665 414.586Z" fill="#66B821"/>
<path d="M50.3274 405.916C50.198 406.045 50.198 406.304 50.3274 406.563C50.4567 406.822 50.4567 406.951 50.3274 407.21L50.198 407.339C50.0687 407.339 50.0687 407.08 49.9394 406.951C49.9394 406.822 49.8101 406.822 49.6808 406.692C49.5514 406.433 49.4221 406.174 49.6808 405.916C49.8101 405.786 49.9394 405.786 50.0687 405.916C50.198 406.045 50.198 406.174 50.198 406.304L50.3274 405.916Z" fill="#66B821"/>
<path d="M3.90163 417.433C3.7723 417.433 3.77231 417.433 3.64299 417.433C3.51366 417.562 3.64299 417.691 3.64299 417.821C3.77231 417.95 3.90163 417.95 4.03095 417.821C4.16027 417.691 4.03095 417.562 3.90163 417.433Z" fill="#66B821"/>
<path d="M0.797928 422.35C0.668608 422.35 0.668607 422.35 0.539287 422.35C0.409967 422.48 0.539287 422.609 0.539287 422.738C0.668607 422.868 0.797926 422.868 0.927246 422.738C0.927246 422.609 0.927248 422.35 0.797928 422.35Z" fill="#66B821"/>
<path d="M11.6608 410.574C11.9195 410.962 11.6608 411.48 11.2729 411.48C11.1435 411.221 11.0142 410.833 11.1435 410.574C11.1435 410.315 11.5315 409.927 11.7901 410.056C11.9195 410.186 11.9195 410.445 12.0488 410.574H11.6608Z" fill="#66B821"/>
<path d="M5.1948 420.797C5.32412 420.797 5.32412 420.927 5.1948 421.056C5.1948 421.186 5.06549 421.186 4.93617 421.186C4.80685 421.186 4.80685 421.186 4.67753 421.186C4.54821 421.186 4.41888 421.056 4.41888 420.797C4.41888 420.668 4.54821 420.539 4.67753 420.409C4.80685 420.409 4.80685 420.409 4.93617 420.409C5.06549 420.409 5.06549 420.539 5.06549 420.539L5.1948 420.797Z" fill="#66B821"/>
<path d="M17.3508 411.998C17.2215 411.998 17.0922 411.998 16.9629 411.998C16.9629 412.127 16.9629 412.256 16.9629 412.386C17.2215 412.515 17.4802 412.256 17.3508 411.998Z" fill="#66B821"/>
<path d="M294.224 608.307C294.483 608.696 294.483 609.343 294.353 609.731C294.353 609.731 294.353 609.86 294.224 609.86C294.095 609.86 294.095 609.86 293.965 609.86C293.448 609.601 292.931 609.213 292.931 608.566C293.06 608.048 293.707 607.79 294.095 608.178C294.095 608.307 294.095 608.437 294.095 608.696L294.224 608.307Z" fill="#66B821"/>
<path d="M14.1179 518.758C13.6006 517.334 12.8247 516.04 11.7901 515.005C11.6608 514.876 11.4022 514.617 11.2729 514.617C10.8849 514.488 10.3676 514.617 9.97966 514.876C9.07442 515.523 8.68646 516.817 9.07442 517.981C9.46238 519.017 10.3676 519.923 11.5315 520.181C12.1781 520.311 12.8247 520.311 13.342 520.052C13.8593 519.793 14.2472 519.017 13.9886 518.499C13.8593 518.499 13.6006 518.629 13.6006 518.887L14.1179 518.758Z" fill="#66B821"/>
<path d="M11.4022 524.84C11.0142 524.064 10.3676 523.417 9.46237 523.287C8.94509 523.934 8.68645 524.84 8.94509 525.746C9.20373 526.523 10.2383 527.17 11.0142 526.781C11.7901 526.393 11.9194 525.099 11.1435 524.711L11.4022 524.84Z" fill="#66B821"/>
<path d="M17.9975 514.876C17.7388 514.746 17.4802 514.488 17.2216 514.358H17.0922C17.0922 514.358 17.0922 514.358 16.9629 514.488C16.8336 514.746 17.0922 515.135 16.8336 515.393C16.8336 515.393 16.7043 515.393 16.7043 515.523C16.7043 515.652 16.8336 515.652 16.8336 515.652C17.4802 515.782 17.9975 515.264 17.9975 514.876Z" fill="#66B821"/>
<path d="M21.6184 506.076C21.2305 505.688 20.7132 505.429 20.1959 505.17H20.0666C19.9373 505.17 19.9373 505.3 19.9373 505.3C19.6786 505.817 20.0666 506.594 19.6786 506.853C19.5493 506.853 19.5493 506.982 19.42 507.112C19.42 507.241 19.5493 507.37 19.6786 507.5C20.5839 507.759 21.4891 506.853 21.3598 505.947C21.4891 506.076 21.4891 506.076 21.6184 506.076Z" fill="#66B821"/>
<path d="M3.77229 514.876C3.64297 514.488 3.25501 514.229 2.86705 514.099C2.86705 514.229 2.73773 514.488 2.73773 514.617C2.73773 514.746 2.86705 515.005 2.99637 515.005C3.25501 515.135 3.51365 515.005 3.77229 514.876C3.64297 514.876 3.64297 514.876 3.77229 514.876Z" fill="#66B821"/>
<path d="M6.87596 492.1C6.74664 491.971 6.74664 491.971 6.61732 491.971C6.488 491.971 6.35868 491.971 6.35868 492.1C6.10004 492.23 5.8414 492.359 5.58276 492.489C6.10004 492.618 6.488 492.747 7.00528 492.877H7.1346C7.26392 493.006 7.1346 493.136 7.26392 493.265C7.26392 493.394 7.52255 493.524 7.78119 493.524C9.07439 493.524 7.39324 492.489 6.87596 492.1Z" fill="#66B821"/>
<path d="M17.8681 490.677C18.1268 491.065 17.7388 491.583 17.3508 491.583C16.9629 491.583 16.5749 491.065 16.8336 490.806C16.9629 490.289 17.6095 490.289 17.8681 490.677Z" fill="#66B821"/>
<path d="M13.6006 507.241C13.8593 507.241 14.3765 507.37 14.3765 507.758C14.3765 508.017 13.9886 508.276 13.7299 508.276C13.6006 508.276 13.4713 508.405 13.342 508.276C13.0833 508.017 13.6006 507.629 13.4713 507.37C13.4713 507.241 13.7299 507.37 13.6006 507.37V507.241Z" fill="#66B821"/>
<path d="M6.61732 518.758C6.74664 518.758 6.87596 518.887 6.87596 518.887C6.61732 519.017 6.22936 519.017 5.97072 518.887C5.8414 518.887 5.58276 518.758 5.58276 518.629C5.58276 518.499 5.71208 518.37 5.71208 518.24C5.8414 517.981 5.71208 517.723 5.8414 517.593C5.97072 517.593 6.10004 517.593 6.22936 517.723C6.35868 517.852 6.35868 517.981 6.35868 518.111C6.35868 518.37 6.488 518.758 6.488 519.017L6.61732 518.758Z" fill="#66B821"/>
<path d="M5.7121 523.417C5.58278 523.158 5.19482 523.417 5.19482 523.676C5.19482 523.934 5.32415 524.193 5.58278 524.323C5.84142 524.064 5.97074 523.676 5.84142 523.417H5.7121Z" fill="#66B821"/>
<path d="M25.1101 540.369C24.9807 540.24 24.9807 540.24 24.8514 540.11C24.7221 540.11 24.5928 540.11 24.4635 540.24C24.3341 540.369 24.4635 540.628 24.4635 540.887C24.4635 541.145 24.2048 541.275 24.2048 541.404C24.2048 541.663 24.4635 541.663 24.7221 541.663C24.8514 541.534 24.9807 541.404 25.1101 541.275C25.2394 541.145 25.2394 540.887 25.2394 540.757C25.2394 540.628 25.1101 540.369 24.8514 540.369H25.1101Z" fill="#66B821"/>
<path d="M2.60843 518.499C2.73775 518.37 2.73775 517.982 2.47911 517.982C2.34979 518.111 2.34979 518.24 2.34979 518.37C2.34979 518.499 2.34979 518.629 2.47911 518.629C2.60843 518.629 2.73775 518.499 2.60843 518.499Z" fill="#66B821"/>
<path d="M4.16025 501.547C4.28957 501.418 4.28957 501.029 4.03093 501.029C3.90161 501.159 3.90161 501.288 3.90161 501.418C3.90161 501.547 3.90161 501.676 4.03093 501.676C4.16025 501.676 4.28957 501.547 4.16025 501.547Z" fill="#66B821"/>
<path d="M6.35871 514.229C6.35871 513.97 6.10007 513.711 5.84143 513.452C5.71211 513.711 5.58279 513.841 5.45348 514.099C5.45348 514.229 5.32416 514.358 5.32416 514.488C5.32416 514.746 5.58279 514.876 5.84143 514.746C6.10007 514.746 6.22939 514.488 6.35871 514.229Z" fill="#66B821"/>
<path d="M52.9137 502.582C53.3017 502.712 53.6897 502.971 54.2069 503.1C54.2069 503.359 53.9483 503.359 53.6897 503.359C53.431 503.359 53.1724 503.229 53.0431 503.1C52.7844 502.971 52.7844 502.582 52.9137 502.582Z" fill="#66B821"/>
<path d="M44.2494 502.97C44.3787 502.712 43.9907 502.323 43.6028 502.453C43.3441 502.582 43.0855 502.97 43.2148 503.229C43.2148 503.359 43.3441 503.488 43.4734 503.617C43.6028 503.747 43.8614 503.617 44.12 503.488C44.2494 503.359 44.2494 503.1 44.2494 502.97Z" fill="#66B821"/>
<path d="M11.7902 506.853C11.9195 506.594 11.6608 506.206 11.5315 506.076C11.4022 506.206 11.2729 506.464 11.1436 506.594C11.1436 506.853 11.2729 507.241 11.5315 507.241C11.6608 507.37 12.0488 507.111 11.7902 506.853Z" fill="#66B821"/>
<path d="M12.6954 509.829C12.8247 509.958 12.8247 510.217 12.6954 510.346C12.4367 510.217 12.3074 510.217 12.0488 510.088C12.0488 509.829 12.4367 509.57 12.6954 509.57V509.829Z" fill="#66B821"/>
<path d="M17.0923 515.135C17.2216 515.135 17.2216 515.135 17.3509 515.135C17.2216 515.264 17.0922 515.523 16.9629 515.652C16.8336 515.782 16.575 515.782 16.3163 515.652C16.187 515.523 16.187 515.135 16.4457 515.135C16.7043 515.135 16.9629 515.135 17.0923 515.135Z" fill="#66B821"/>
<path d="M2.60841 523.158C2.73773 523.287 2.60842 523.546 2.4791 523.676C2.34978 523.805 2.22045 523.805 1.96181 523.805C1.8325 523.805 1.70318 523.676 1.8325 523.546L1.96181 523.417C2.22045 523.287 2.34977 523.158 2.60841 523.158Z" fill="#66B821"/>
<path d="M3.51366 516.817C3.64298 516.946 3.77229 516.946 3.90161 516.817C4.03093 516.688 4.03094 516.558 4.16026 516.429C4.28957 516.299 4.41889 516.17 4.54821 516.17C4.67753 516.17 4.80685 516.17 4.80685 516.299V516.429C4.80685 516.688 4.80686 517.076 4.67754 517.335C4.54822 517.593 4.16025 517.852 3.90161 517.852C3.64298 517.852 3.51366 517.723 3.38434 517.464C3.38434 517.205 3.38434 516.946 3.51366 516.817Z" fill="#66B821"/>
<path d="M2.73776 512.676C2.73776 512.417 2.47912 512.288 2.22048 512.417C1.96184 512.417 1.83252 512.676 1.83252 512.805C1.83252 512.935 1.83252 513.064 1.83252 513.064H1.96184C2.3498 512.805 2.47912 512.805 2.73776 512.676Z" fill="#66B821"/>
<path d="M78.0018 535.193C78.3897 534.804 78.5191 534.287 78.5191 533.769C78.5191 533.64 78.5191 533.64 78.3897 533.51C78.2604 533.381 78.0018 533.64 77.8725 533.64C77.6138 533.769 77.2259 533.769 76.8379 533.899C76.5793 534.028 76.4499 534.287 76.4499 534.546C76.3206 534.934 76.3206 535.451 76.5793 535.581C76.7086 535.71 76.9672 535.581 77.2259 535.451C77.6138 535.193 78.0018 534.934 78.2604 534.675L78.0018 535.193Z" fill="#66B821"/>
<path d="M16.3163 499.476C16.5749 499.347 16.4456 498.959 16.3163 498.7C16.187 498.571 16.0577 498.312 15.9284 498.312C15.6697 498.312 15.5404 498.571 15.4111 498.829C15.2818 499.088 15.2818 499.218 15.1524 499.476C15.1524 499.606 15.0231 499.735 15.1524 499.735C15.1524 499.865 15.2818 499.865 15.4111 499.865C15.799 499.994 16.3163 499.994 16.8336 499.994L16.3163 499.476Z" fill="#66B821"/>
<path d="M18.9027 509.57C21.6184 508.664 20.1959 505.688 17.8681 505.817C15.2818 506.076 16.5749 510.347 18.9027 509.57Z" fill="#66B821"/>
<path d="M8.94509 521.993C8.94509 522.381 8.42781 522.77 8.03986 522.64C8.03986 522.381 8.16918 521.993 8.2985 521.734C8.42781 521.476 8.94509 521.346 9.07441 521.605C9.07441 521.734 9.07441 521.993 9.07441 522.123L8.94509 521.993Z" fill="#66B821"/>
<path d="M35.3263 459.36C35.3263 459.102 35.197 459.102 35.0677 459.36C34.9383 459.49 34.809 459.749 34.6797 460.007C34.4211 460.525 34.2917 461.043 34.0331 461.56C33.9038 461.819 33.7745 462.207 33.9038 462.337C33.9038 462.466 34.1624 462.466 34.2917 462.207C34.4211 462.078 34.5504 461.819 34.6797 461.56C35.0677 460.784 35.4556 459.749 35.3263 459.102C35.197 459.231 35.0677 459.36 35.0677 459.49L35.3263 459.36Z" fill="#66B821"/>
<path d="M0.409988 518.111C0.280671 518.111 0.28067 517.982 0.151354 517.982C0.0220366 518.111 0.0220337 518.241 0.0220337 518.37C0.0220337 518.499 0.151352 518.629 0.280669 518.499V518.37C0.280669 518.241 0.409988 518.111 0.409988 517.852V518.111Z" fill="#66B821"/>
<path d="M6.10006 498.829C6.3587 498.959 6.48802 499.347 6.22938 499.606C6.10006 499.606 5.84142 499.606 5.7121 499.476C5.7121 499.347 5.84142 499.088 5.97074 498.959L6.10006 498.829Z" fill="#66B821"/>
<path d="M13.2126 526.005C13.0833 526.005 12.954 525.875 12.8247 525.875C12.8247 526.005 12.6954 526.134 12.6954 526.134C12.8247 526.264 13.2126 526.264 13.2126 526.005Z" fill="#66B821"/>
<path d="M67.6562 486.406C68.1734 486.406 68.6907 486.795 68.82 487.312V487.442C68.82 487.571 68.6907 487.571 68.5614 487.571C68.0441 487.83 67.3975 487.959 67.0096 487.571C66.6216 487.183 66.8802 486.536 67.3975 486.406C67.5268 486.536 67.6562 486.665 67.7855 486.665L67.6562 486.406Z" fill="#66B821"/>
</g>
<g filter="url(#filter0_f_103_688)">
<circle cx="1866" cy="893" r="139" fill="#007C84"/>
</g>
</g>
<defs>
<filter id="filter0_f_103_688" x="1227" y="254" width="1278" height="1278" filterUnits="userSpaceOnUse" color-interpolation-filters="sRGB">
<feFlood flood-opacity="0" result="BackgroundImageFix"/>
<feBlend mode="normal" in="SourceGraphic" in2="BackgroundImageFix" result="shape"/>
<feGaussianBlur stdDeviation="250" result="effect1_foregroundBlur_103_688"/>
</filter>
<linearGradient id="paint0_linear_103_688" x1="951.465" y1="81.1506" x2="954.904" y2="283.47" gradientUnits="userSpaceOnUse">
<stop stop-color="#0A3D31"/>
<stop offset="1" stop-color="#111111"/>
</linearGradient>
<clipPath id="clip0_103_688">
<rect width="1921" height="788" fill="white" transform="translate(0 216)"/>
</clipPath>
<clipPath id="clip1_103_688">
<rect width="363" height="290" fill="white" transform="translate(1558 253)"/>
</clipPath>
<clipPath id="clip2_103_688">
<rect width="363" height="290" fill="white" transform="translate(-68 357)"/>
</clipPath>
</defs>
</svg>
