<svg width="1920" height="455" viewBox="0 0 1920 455" fill="none" xmlns="http://www.w3.org/2000/svg">
<g opacity="0.5">
<path opacity="0.5" d="M-22 28.8552C-22 28.8552 480.187 256.173 916.062 303.065" stroke="url(#paint0_linear_27_111)" stroke-width="0.25" stroke-miterlimit="10"/>
<path opacity="0.5" d="M-22 48.4548C-22 48.4548 473.896 272.109 916.062 303.065" stroke="url(#paint1_linear_27_111)" stroke-width="0.25" stroke-miterlimit="10"/>
<path opacity="0.5" d="M-22 68.0543C-22 68.0543 467.868 288.045 916.062 303.065" stroke="url(#paint2_linear_27_111)" stroke-width="0.25" stroke-miterlimit="10"/>
<path opacity="0.5" d="M-22 87.6543C-22 87.6543 461.84 303.799 916.062 303.066" stroke="url(#paint3_linear_27_111)" stroke-width="0.25" stroke-miterlimit="10"/>
<path opacity="0.5" d="M-22 107.253C-22 107.253 455.811 319.734 916.062 303.065" stroke="url(#paint4_linear_27_111)" stroke-width="0.25" stroke-miterlimit="10"/>
<path opacity="0.5" d="M-22 126.853C-22 126.853 449.783 335.487 916.062 303.066" stroke="url(#paint5_linear_27_111)" stroke-width="0.25" stroke-miterlimit="10"/>
<path opacity="0.5" d="M-22 146.452C-22 146.452 443.755 351.423 916.062 303.065" stroke="url(#paint6_linear_27_111)" stroke-width="0.25" stroke-miterlimit="10"/>
<path opacity="0.5" d="M-22 166.052C-22 166.052 437.464 367.176 916.062 303.065" stroke="url(#paint7_linear_27_111)" stroke-width="0.25" stroke-miterlimit="10"/>
<path opacity="0.5" d="M-22 185.652C-22 185.652 431.436 383.112 916.062 303.066" stroke="url(#paint8_linear_27_111)" stroke-width="0.25" stroke-miterlimit="10"/>
<path opacity="0.5" d="M-22 205.251C-22 205.251 425.408 398.865 916.062 303.065" stroke="url(#paint9_linear_27_111)" stroke-width="0.25" stroke-miterlimit="10"/>
<path opacity="0.5" d="M-22 224.851C-22 224.851 419.379 414.801 916.062 303.065" stroke="url(#paint10_linear_27_111)" stroke-width="0.25" stroke-miterlimit="10"/>
<path opacity="0.5" d="M-22 244.45C-22 244.45 413.351 430.737 916.062 303.065" stroke="url(#paint11_linear_27_111)" stroke-width="0.25" stroke-miterlimit="10"/>
<path opacity="0.5" d="M-22 264.05C-22 264.05 407.061 446.49 916.062 303.065" stroke="url(#paint12_linear_27_111)" stroke-width="0.25" stroke-miterlimit="10"/>
<path opacity="0.5" d="M-22 283.832C-22 283.832 401.032 462.609 916.062 303.249" stroke="url(#paint13_linear_27_111)" stroke-width="0.25" stroke-miterlimit="10"/>
<path opacity="0.5" d="M-22 303.432C-22 303.432 395.004 478.363 916.062 303.249" stroke="url(#paint14_linear_27_111)" stroke-width="0.25" stroke-miterlimit="10"/>
<path opacity="0.5" d="M-22 323.031C-22 323.031 388.975 494.298 916.062 303.065" stroke="url(#paint15_linear_27_111)" stroke-width="0.25" stroke-miterlimit="10"/>
<path opacity="0.5" d="M-22 342.631C-22 342.631 382.947 510.051 916.062 303.065" stroke="url(#paint16_linear_27_111)" stroke-width="0.25" stroke-miterlimit="10"/>
</g>
<g opacity="0.3">
<path opacity="0.3" d="M1192.32 196.092C1192.32 196.092 1430.31 -114.02 1944.03 47.7221" stroke="url(#paint17_linear_27_111)" stroke-width="0.25" stroke-miterlimit="10"/>
<path opacity="0.3" d="M1192.32 196.092C1192.32 196.092 1254.44 124.288 1381.29 72.6334C1506.05 21.5281 1695.03 -11.443 1944.03 58.3459" stroke="url(#paint18_linear_27_111)" stroke-width="0.25" stroke-miterlimit="10"/>
<path opacity="0.3" d="M1192.32 196.092C1192.32 196.092 1256.01 131.432 1384.18 85.2725C1509.98 39.8456 1700.79 9.43885 1944.03 68.9701" stroke="url(#paint19_linear_27_111)" stroke-width="0.25" stroke-miterlimit="10"/>
<path opacity="0.3" d="M1192.32 196.092C1192.32 196.092 1257.58 138.576 1386.8 97.9117C1513.65 57.9799 1706.3 30.504 1943.76 79.5943" stroke="url(#paint20_linear_27_111)" stroke-width="0.25" stroke-miterlimit="10"/>
<path opacity="0.3" d="M1192.32 196.092C1192.32 196.092 1259.15 145.536 1389.68 110.734C1517.32 76.297 1712.07 51.3855 1943.76 90.2182" stroke="url(#paint21_linear_27_111)" stroke-width="0.25" stroke-miterlimit="10"/>
<path opacity="0.3" d="M1192.32 196.092C1192.32 196.092 1260.73 152.68 1392.56 123.373C1521.26 94.4313 1717.83 72.2673 1943.76 100.842" stroke="url(#paint22_linear_27_111)" stroke-width="0.25" stroke-miterlimit="10"/>
<path opacity="0.3" d="M1192.32 196.092C1192.32 196.092 1262.3 160.007 1395.18 136.012C1525.19 112.749 1723.86 93.1491 1944.03 111.283" stroke="url(#paint23_linear_27_111)" stroke-width="0.25" stroke-miterlimit="10"/>
<path opacity="0.3" d="M1192.32 196.092C1192.32 196.092 1263.87 166.968 1398.07 148.834C1529.12 131.066 1729.63 114.214 1944.03 122.09" stroke="url(#paint24_linear_27_111)" stroke-width="0.25" stroke-miterlimit="10"/>
<path opacity="0.3" d="M1192.32 196.092C1192.32 196.092 1265.44 174.111 1400.69 161.473C1532.53 149.2 1735.13 135.096 1943.76 132.714" stroke="url(#paint25_linear_27_111)" stroke-width="0.25" stroke-miterlimit="10"/>
<path opacity="0.3" d="M1192.32 196.092C1192.32 196.092 1267.02 181.255 1403.57 174.295C1536.46 167.517 1740.9 156.16 1943.76 143.338" stroke="url(#paint26_linear_27_111)" stroke-width="0.25" stroke-miterlimit="10"/>
<path opacity="0.3" d="M1192.32 196.092C1192.32 196.092 1268.59 188.216 1406.45 186.934C1540.39 185.651 1746.92 177.042 1944.03 153.779" stroke="url(#paint27_linear_27_111)" stroke-width="0.25" stroke-miterlimit="10"/>
<path opacity="0.3" d="M1192.32 196.092C1192.32 196.092 1270.16 195.176 1409.08 199.573C1544.06 203.602 1752.43 197.924 1944.03 164.403" stroke="url(#paint28_linear_27_111)" stroke-width="0.25" stroke-miterlimit="10"/>
<path opacity="0.3" d="M1192.32 196.092C1192.32 196.092 1271.73 202.32 1411.96 212.395C1547.99 221.92 1758.46 218.989 1944.03 175.027" stroke="url(#paint29_linear_27_111)" stroke-width="0.25" stroke-miterlimit="10"/>
<path opacity="0.3" d="M1192.32 196.092C1192.32 196.092 1273.31 209.281 1414.58 225.034C1551.66 240.054 1763.96 239.871 1943.76 185.651" stroke="url(#paint30_linear_27_111)" stroke-width="0.25" stroke-miterlimit="10"/>
<path opacity="0.3" d="M1192.32 196.092C1192.32 196.092 1274.88 216.425 1417.46 237.673C1555.59 258.188 1769.99 260.752 1944.03 196.092" stroke="url(#paint31_linear_27_111)" stroke-width="0.25" stroke-miterlimit="10"/>
<path opacity="0.3" d="M1192.32 196.092C1192.32 196.092 1276.45 223.568 1420.35 250.495C1559.52 276.505 1775.76 281.817 1944.03 206.9" stroke="url(#paint32_linear_27_111)" stroke-width="0.25" stroke-miterlimit="10"/>
<path opacity="0.3" d="M1192.32 196.092C1192.32 196.092 1278.02 230.529 1422.97 263.134C1563.19 294.639 1781.26 302.699 1944.03 217.34" stroke="url(#paint33_linear_27_111)" stroke-width="0.25" stroke-miterlimit="10"/>
</g>
<mask id="mask0_27_111" style="mask-type:alpha" maskUnits="userSpaceOnUse" x="-23" y="12" width="1968" height="443">
<g opacity="0.8">
<path opacity="0.8" d="M-22 171.547C-22 171.547 212.057 82.1588 726.563 265.515C1001.51 363.513 1135.18 253.059 1267.28 253.242C1466.48 253.609 1575.77 395.568 1943.76 234.376" stroke="url(#paint34_linear_27_111)" stroke-width="0.5" stroke-miterlimit="10"/>
<path opacity="0.8" d="M-22 187.483C-22 187.483 226.735 74.832 736.522 254.158C1021.69 353.621 1143.57 264.05 1281.69 263.5C1482.73 263.134 1598.84 388.607 1943.76 237.49" stroke="url(#paint35_linear_27_111)" stroke-width="0.5" stroke-miterlimit="10"/>
<path opacity="0.8" d="M-22 203.419C-22 203.419 240.364 68.604 746.22 242.802C1041.08 344.463 1151.69 274.674 1295.85 273.575C1498.71 272.109 1621.64 381.647 1943.5 240.604" stroke="url(#paint36_linear_27_111)" stroke-width="0.5" stroke-miterlimit="10"/>
<path opacity="0.8" d="M-22 219.172C-22 219.172 254.779 61.4603 756.18 231.445C1061.27 334.755 1160.08 285.481 1310.26 283.649C1514.96 281.268 1644.7 374.503 1943.5 243.534" stroke="url(#paint37_linear_27_111)" stroke-width="0.5" stroke-miterlimit="10"/>
<path opacity="0.8" d="M-22 235.108C-22 235.108 268.933 54.3165 766.14 220.088C1081.45 325.046 1168.2 296.288 1324.68 293.724C1531.21 290.427 1667.77 367.542 1943.76 246.648" stroke="url(#paint38_linear_27_111)" stroke-width="0.5" stroke-miterlimit="10"/>
<path opacity="0.8" d="M-22 251.044C-22 251.044 283.349 47.1726 776.1 208.731C1101.37 315.338 1176.59 307.095 1339.09 303.981C1547.47 299.768 1690.83 360.582 1943.76 249.762" stroke="url(#paint39_linear_27_111)" stroke-width="0.5" stroke-miterlimit="10"/>
<path opacity="0.8" d="M-22 266.797C-22 266.797 298.026 39.6625 786.06 197.191C1121.55 305.447 1184.98 317.902 1353.51 313.873C1563.72 308.927 1713.64 353.255 1943.76 252.51" stroke="url(#paint40_linear_27_111)" stroke-width="0.5" stroke-miterlimit="10"/>
<path opacity="0.8" d="M-22 282.734C-22 282.734 312.442 32.3359 796.02 185.835C1141.99 295.739 1193.37 328.71 1367.93 323.947C1579.97 318.269 1736.7 346.295 1943.76 255.624" stroke="url(#paint41_linear_27_111)" stroke-width="0.5" stroke-miterlimit="10"/>
<path opacity="0.8" d="M-22 298.669C-22 298.669 327.12 24.8256 805.717 174.478C1161.91 285.847 1201.49 339.7 1382.08 334.205C1596.22 327.611 1759.51 339.334 1943.76 258.738" stroke="url(#paint42_linear_27_111)" stroke-width="0.5" stroke-miterlimit="10"/>
<path opacity="0.8" d="M-22 314.422C-22 314.422 341.797 17.1325 815.677 162.938C1182.1 275.773 1209.88 350.324 1396.49 344.096C1612.47 336.77 1782.57 332.19 1943.76 261.669" stroke="url(#paint43_linear_27_111)" stroke-width="0.5" stroke-miterlimit="10"/>
<path opacity="0.8" d="M-22 330.358C-22 330.358 356.475 9.43904 825.637 151.581C1202.54 265.698 1218.27 361.315 1410.91 354.171C1628.72 346.111 1805.64 325.046 1943.76 264.599" stroke="url(#paint44_linear_27_111)" stroke-width="0.5" stroke-miterlimit="10"/>
<path opacity="0.8" d="M-22 346.294C-22 346.294 371.153 1.74588 835.597 140.225C1222.98 255.624 1226.65 372.305 1425.33 364.429C1644.97 355.636 1828.7 318.269 1943.76 267.896" stroke="url(#paint45_linear_27_111)" stroke-width="0.5" stroke-miterlimit="10"/>
<path opacity="0.8" d="M-22 362.047C-22 362.047 385.83 -6.13063 845.557 128.685C1243.17 245.366 1235.04 383.112 1439.74 374.32C1661.22 364.795 1851.77 310.942 1943.76 270.644" stroke="url(#paint46_linear_27_111)" stroke-width="0.5" stroke-miterlimit="10"/>
<path opacity="0.8" d="M-22 377.984C-22 377.984 400.77 -14.0069 855.255 117.328C1263.35 235.109 1243.17 394.286 1453.89 384.395C1677.21 374.503 1874.57 303.982 1943.76 273.758" stroke="url(#paint47_linear_27_111)" stroke-width="0.5" stroke-miterlimit="10"/>
<path opacity="0.8" d="M-22 393.919C-22 393.919 415.448 -21.7004 865.214 105.971C1284.05 224.851 1251.55 405.276 1468.31 394.469C1693.46 383.845 1897.63 296.838 1943.76 276.689" stroke="url(#paint48_linear_27_111)" stroke-width="0.5" stroke-miterlimit="10"/>
<path opacity="0.8" d="M-22 409.672C-22 409.672 430.65 -30.3097 875.174 94.4312C1304.76 213.86 1259.94 415.9 1482.73 404.543C1709.71 393.186 1920.7 289.877 1943.76 279.802" stroke="url(#paint49_linear_27_111)" stroke-width="0.5" stroke-miterlimit="10"/>
<path opacity="0.8" d="M-22 425.608C-22 425.608 445.327 -37.8194 885.134 83.0748C1324.94 203.969 1268.33 426.891 1497.14 414.618C1725.96 402.346 1943.76 282.733 1943.76 282.733" stroke="url(#paint50_linear_27_111)" stroke-width="0.5" stroke-miterlimit="10"/>
</g>
<g opacity="0.8">
<path opacity="0.8" d="M-22 175.028C-22 175.028 212.057 85.6392 726.563 268.995C1001.51 366.993 1135.18 256.54 1267.28 256.723C1466.48 257.089 1575.77 399.048 1943.76 237.856" stroke="url(#paint51_linear_27_111)" stroke-width="0.25" stroke-miterlimit="10"/>
<path opacity="0.8" d="M-22 190.781C-22 190.781 226.735 78.1291 736.522 257.456C1021.69 356.919 1143.57 267.347 1281.69 266.797C1482.73 266.431 1598.84 391.905 1943.76 240.787" stroke="url(#paint52_linear_27_111)" stroke-width="0.25" stroke-miterlimit="10"/>
<path opacity="0.8" d="M-22 206.717C-22 206.717 240.364 71.9014 746.22 246.099C1041.08 347.76 1151.69 277.971 1295.85 276.872C1498.71 275.407 1621.64 384.944 1943.5 243.901" stroke="url(#paint53_linear_27_111)" stroke-width="0.25" stroke-miterlimit="10"/>
<path opacity="0.8" d="M-22 222.653C-22 222.653 254.779 64.9407 756.18 234.925C1061.27 338.235 1160.08 288.961 1310.26 287.13C1514.96 284.748 1644.7 377.984 1943.5 247.015" stroke="url(#paint54_linear_27_111)" stroke-width="0.25" stroke-miterlimit="10"/>
<path opacity="0.8" d="M-22 238.405C-22 238.405 268.933 57.6136 766.14 223.385C1081.45 328.343 1168.2 299.585 1324.68 297.021C1531.21 293.724 1667.77 370.84 1943.76 249.945" stroke="url(#paint55_linear_27_111)" stroke-width="0.25" stroke-miterlimit="10"/>
<path opacity="0.8" d="M-22 254.341C-22 254.341 283.349 50.4697 776.1 212.028C1101.37 318.635 1176.59 310.392 1339.09 307.278C1547.47 303.065 1690.83 363.879 1943.76 253.059" stroke="url(#paint56_linear_27_111)" stroke-width="0.25" stroke-miterlimit="10"/>
<path opacity="0.8" d="M-22 270.278C-22 270.278 298.026 43.1429 786.06 200.672C1121.55 308.927 1184.98 321.383 1353.51 317.353C1563.72 312.407 1713.64 356.735 1943.76 255.99" stroke="url(#paint57_linear_27_111)" stroke-width="0.25" stroke-miterlimit="10"/>
<path opacity="0.8" d="M-22 286.031C-22 286.031 312.442 35.633 796.02 189.132C1141.99 299.036 1193.37 332.007 1367.93 327.245C1579.97 321.566 1736.7 349.592 1943.76 258.921" stroke="url(#paint58_linear_27_111)" stroke-width="0.25" stroke-miterlimit="10"/>
<path opacity="0.8" d="M-22 301.967C-22 301.967 327.12 28.123 805.717 177.775C1161.91 289.145 1201.49 342.998 1382.08 337.502C1596.22 330.908 1759.51 342.631 1943.76 262.035" stroke="url(#paint59_linear_27_111)" stroke-width="0.25" stroke-miterlimit="10"/>
<path opacity="0.8" d="M-22 317.903C-22 317.903 341.797 20.613 815.677 166.419C1182.1 279.253 1209.88 353.805 1396.49 347.577C1612.47 340.25 1782.57 335.671 1943.76 265.149" stroke="url(#paint60_linear_27_111)" stroke-width="0.25" stroke-miterlimit="10"/>
<path opacity="0.8" d="M-22 333.656C-22 333.656 356.475 12.7364 825.637 154.879C1202.54 268.996 1218.27 364.612 1410.91 357.468C1628.72 349.409 1805.64 328.344 1943.76 267.897" stroke="url(#paint61_linear_27_111)" stroke-width="0.25" stroke-miterlimit="10"/>
<path opacity="0.8" d="M-22 349.592C-22 349.592 371.153 5.04324 835.597 143.522C1222.98 258.921 1226.65 375.602 1425.33 367.726C1644.97 358.934 1828.7 321.566 1943.76 271.194" stroke="url(#paint62_linear_27_111)" stroke-width="0.25" stroke-miterlimit="10"/>
<path opacity="0.8" d="M-22 365.528C-22 365.528 385.83 -2.64993 845.557 132.165C1243.17 248.664 1235.04 386.41 1439.74 377.617C1661.22 368.092 1851.77 314.24 1943.76 273.941" stroke="url(#paint63_linear_27_111)" stroke-width="0.25" stroke-miterlimit="10"/>
<path opacity="0.8" d="M-22 381.281C-22 381.281 400.77 -10.7098 855.255 120.625C1263.35 238.406 1243.17 397.583 1453.89 387.692C1677.21 377.8 1874.57 307.279 1943.76 277.055" stroke="url(#paint64_linear_27_111)" stroke-width="0.25" stroke-miterlimit="10"/>
<path opacity="0.8" d="M-22 397.217C-22 397.217 415.448 -18.4032 865.214 109.268C1284.05 228.148 1251.55 408.573 1468.31 397.766C1693.46 387.142 1897.63 300.135 1943.76 279.986" stroke="url(#paint65_linear_27_111)" stroke-width="0.25" stroke-miterlimit="10"/>
<path opacity="0.8" d="M-22 413.153C-22 413.153 430.65 -26.8291 875.174 97.9118C1304.76 217.341 1259.94 419.381 1482.73 408.024C1709.71 396.667 1920.7 293.357 1943.76 283.283" stroke="url(#paint66_linear_27_111)" stroke-width="0.25" stroke-miterlimit="10"/>
<path opacity="0.8" d="M-22 428.905C-22 428.905 445.327 -34.5224 885.134 86.3718C1324.94 207.266 1268.33 430.188 1497.14 417.915C1725.96 405.642 1943.76 286.03 1943.76 286.03" stroke="url(#paint67_linear_27_111)" stroke-width="0.25" stroke-miterlimit="10"/>
</g>
<path d="M-22 117.878C-22 117.878 233.811 372.488 595.512 377.434C952.756 382.197 1430.31 -58.5179 1943.76 166.785" stroke="url(#paint68_linear_27_111)" stroke-miterlimit="10"/>
<path d="M-22 454C-22 454 308.772 45.8904 702.711 33.4346C1125.74 20.2462 1258.37 323.398 1495.83 374.869C1763.96 432.935 1943.76 372.488 1943.76 372.488" stroke="url(#paint69_linear_27_111)" stroke-miterlimit="10"/>
<path d="M-22 83.0747C-22 83.0747 155.967 26.2911 354.378 56.881C535.753 84.7233 933.885 340.25 1128.89 386.593C1348.53 438.797 1698.44 393.919 1943.76 83.8074" stroke="url(#paint70_linear_27_111)" stroke-miterlimit="10"/>
<path d="M-22 348.493C-22 348.493 199.214 429.089 473.11 396.301C707.953 368.275 1005.96 129.418 1280.38 129.601C1544.32 129.784 1715.73 207.632 1943.76 418.281" stroke="url(#paint71_linear_27_111)" stroke-miterlimit="10"/>
<path d="M1943.76 128.868C1943.76 128.868 1474.34 -125.01 886.445 117.694C426.456 307.645 330.003 361.681 -22 215.326" stroke="url(#paint72_linear_27_111)" stroke-miterlimit="10"/>
<path d="M1943.76 134.729C1943.76 134.729 1474.34 -119.149 886.445 123.556C426.456 313.506 330.003 367.726 -22 221.37" stroke="url(#paint73_linear_27_111)" stroke-width="0.25" stroke-miterlimit="10"/>
</mask>
<g mask="url(#mask0_27_111)">
<rect x="1.69958" y="-62.824" width="1966.82" height="646.055" fill="#106757"/>
</g>
<defs>
<linearGradient id="paint0_linear_27_111" x1="-22.0865" y1="166.012" x2="916.295" y2="166.012" gradientUnits="userSpaceOnUse">
<stop stop-color="#87888A"/>
<stop offset="0.4974" stop-color="#E5E5E5"/>
<stop offset="1" stop-color="#7D7E80"/>
</linearGradient>
<linearGradient id="paint1_linear_27_111" x1="-22.0857" y1="175.813" x2="916.278" y2="175.813" gradientUnits="userSpaceOnUse">
<stop stop-color="#87888A"/>
<stop offset="0.4974" stop-color="#E5E5E5"/>
<stop offset="1" stop-color="#7D7E80"/>
</linearGradient>
<linearGradient id="paint2_linear_27_111" x1="-22.0852" y1="185.614" x2="916.261" y2="185.614" gradientUnits="userSpaceOnUse">
<stop stop-color="#87888A"/>
<stop offset="0.4974" stop-color="#E5E5E5"/>
<stop offset="1" stop-color="#7D7E80"/>
</linearGradient>
<linearGradient id="paint3_linear_27_111" x1="-22.0847" y1="195.417" x2="916.246" y2="195.417" gradientUnits="userSpaceOnUse">
<stop stop-color="#87888A"/>
<stop offset="0.4974" stop-color="#E5E5E5"/>
<stop offset="1" stop-color="#7D7E80"/>
</linearGradient>
<linearGradient id="paint4_linear_27_111" x1="-22.0841" y1="205.682" x2="916.262" y2="205.682" gradientUnits="userSpaceOnUse">
<stop stop-color="#87888A"/>
<stop offset="0.4974" stop-color="#E5E5E5"/>
<stop offset="1" stop-color="#7D7E80"/>
</linearGradient>
<linearGradient id="paint5_linear_27_111" x1="-22.0833" y1="216.739" x2="916.278" y2="216.739" gradientUnits="userSpaceOnUse">
<stop stop-color="#87888A"/>
<stop offset="0.4974" stop-color="#E5E5E5"/>
<stop offset="1" stop-color="#7D7E80"/>
</linearGradient>
<linearGradient id="paint6_linear_27_111" x1="-22.0828" y1="228.515" x2="916.293" y2="228.515" gradientUnits="userSpaceOnUse">
<stop stop-color="#87888A"/>
<stop offset="0.4974" stop-color="#E5E5E5"/>
<stop offset="1" stop-color="#7D7E80"/>
</linearGradient>
<linearGradient id="paint7_linear_27_111" x1="-22.082" y1="240.948" x2="916.307" y2="240.948" gradientUnits="userSpaceOnUse">
<stop stop-color="#87888A"/>
<stop offset="0.4974" stop-color="#E5E5E5"/>
<stop offset="1" stop-color="#7D7E80"/>
</linearGradient>
<linearGradient id="paint8_linear_27_111" x1="-22.0815" y1="253.982" x2="916.321" y2="253.982" gradientUnits="userSpaceOnUse">
<stop stop-color="#87888A"/>
<stop offset="0.4974" stop-color="#E5E5E5"/>
<stop offset="1" stop-color="#7D7E80"/>
</linearGradient>
<linearGradient id="paint9_linear_27_111" x1="-22.0807" y1="267.563" x2="916.334" y2="267.563" gradientUnits="userSpaceOnUse">
<stop stop-color="#87888A"/>
<stop offset="0.4974" stop-color="#E5E5E5"/>
<stop offset="1" stop-color="#7D7E80"/>
</linearGradient>
<linearGradient id="paint10_linear_27_111" x1="-22.0799" y1="281.646" x2="916.346" y2="281.646" gradientUnits="userSpaceOnUse">
<stop stop-color="#87888A"/>
<stop offset="0.4974" stop-color="#E5E5E5"/>
<stop offset="1" stop-color="#7D7E80"/>
</linearGradient>
<linearGradient id="paint11_linear_27_111" x1="-22.0792" y1="296.188" x2="916.357" y2="296.188" gradientUnits="userSpaceOnUse">
<stop stop-color="#87888A"/>
<stop offset="0.4974" stop-color="#E5E5E5"/>
<stop offset="1" stop-color="#7D7E80"/>
</linearGradient>
<linearGradient id="paint12_linear_27_111" x1="-22.0784" y1="311.151" x2="916.368" y2="311.151" gradientUnits="userSpaceOnUse">
<stop stop-color="#87888A"/>
<stop offset="0.4974" stop-color="#E5E5E5"/>
<stop offset="1" stop-color="#7D7E80"/>
</linearGradient>
<linearGradient id="paint13_linear_27_111" x1="-22.0776" y1="326.5" x2="916.378" y2="326.5" gradientUnits="userSpaceOnUse">
<stop stop-color="#87888A"/>
<stop offset="0.4974" stop-color="#E5E5E5"/>
<stop offset="1" stop-color="#7D7E80"/>
</linearGradient>
<linearGradient id="paint14_linear_27_111" x1="-22.0768" y1="342.061" x2="916.387" y2="342.061" gradientUnits="userSpaceOnUse">
<stop stop-color="#87888A"/>
<stop offset="0.4974" stop-color="#E5E5E5"/>
<stop offset="1" stop-color="#7D7E80"/>
</linearGradient>
<linearGradient id="paint15_linear_27_111" x1="-22.076" y1="348.289" x2="916.396" y2="348.289" gradientUnits="userSpaceOnUse">
<stop stop-color="#87888A"/>
<stop offset="0.4974" stop-color="#E5E5E5"/>
<stop offset="1" stop-color="#7D7E80"/>
</linearGradient>
<linearGradient id="paint16_linear_27_111" x1="-22.075" y1="354.817" x2="916.404" y2="354.817" gradientUnits="userSpaceOnUse">
<stop stop-color="#87888A"/>
<stop offset="0.4974" stop-color="#E5E5E5"/>
<stop offset="1" stop-color="#7D7E80"/>
</linearGradient>
<linearGradient id="paint17_linear_27_111" x1="1191.92" y1="98.5523" x2="1943.99" y2="98.5523" gradientUnits="userSpaceOnUse">
<stop stop-color="#87888A"/>
<stop offset="0.4974" stop-color="#E5E5E5"/>
<stop offset="1" stop-color="#7D7E80"/>
</linearGradient>
<linearGradient id="paint18_linear_27_111" x1="1191.93" y1="107.284" x2="1943.98" y2="107.284" gradientUnits="userSpaceOnUse">
<stop stop-color="#87888A"/>
<stop offset="0.4974" stop-color="#E5E5E5"/>
<stop offset="1" stop-color="#7D7E80"/>
</linearGradient>
<linearGradient id="paint19_linear_27_111" x1="1191.94" y1="115.996" x2="1943.96" y2="115.996" gradientUnits="userSpaceOnUse">
<stop stop-color="#87888A"/>
<stop offset="0.4974" stop-color="#E5E5E5"/>
<stop offset="1" stop-color="#7D7E80"/>
</linearGradient>
<linearGradient id="paint20_linear_27_111" x1="1191.95" y1="124.676" x2="1943.95" y2="124.676" gradientUnits="userSpaceOnUse">
<stop stop-color="#87888A"/>
<stop offset="0.4974" stop-color="#E5E5E5"/>
<stop offset="1" stop-color="#7D7E80"/>
</linearGradient>
<linearGradient id="paint21_linear_27_111" x1="1191.97" y1="133.304" x2="1943.93" y2="133.304" gradientUnits="userSpaceOnUse">
<stop stop-color="#87888A"/>
<stop offset="0.4974" stop-color="#E5E5E5"/>
<stop offset="1" stop-color="#7D7E80"/>
</linearGradient>
<linearGradient id="paint22_linear_27_111" x1="1191.99" y1="141.843" x2="1943.91" y2="141.843" gradientUnits="userSpaceOnUse">
<stop stop-color="#87888A"/>
<stop offset="0.4974" stop-color="#E5E5E5"/>
<stop offset="1" stop-color="#7D7E80"/>
</linearGradient>
<linearGradient id="paint23_linear_27_111" x1="1192.01" y1="150.216" x2="1943.89" y2="150.216" gradientUnits="userSpaceOnUse">
<stop stop-color="#87888A"/>
<stop offset="0.4974" stop-color="#E5E5E5"/>
<stop offset="1" stop-color="#7D7E80"/>
</linearGradient>
<linearGradient id="paint24_linear_27_111" x1="1192.04" y1="158.109" x2="1943.87" y2="158.109" gradientUnits="userSpaceOnUse">
<stop stop-color="#87888A"/>
<stop offset="0.4974" stop-color="#E5E5E5"/>
<stop offset="1" stop-color="#7D7E80"/>
</linearGradient>
<linearGradient id="paint25_linear_27_111" x1="1192.08" y1="164.403" x2="1943.86" y2="164.403" gradientUnits="userSpaceOnUse">
<stop stop-color="#87888A"/>
<stop offset="0.4974" stop-color="#E5E5E5"/>
<stop offset="1" stop-color="#7D7E80"/>
</linearGradient>
<linearGradient id="paint26_linear_27_111" x1="1192.12" y1="169.712" x2="1943.88" y2="169.712" gradientUnits="userSpaceOnUse">
<stop stop-color="#87888A"/>
<stop offset="0.4974" stop-color="#E5E5E5"/>
<stop offset="1" stop-color="#7D7E80"/>
</linearGradient>
<linearGradient id="paint27_linear_27_111" x1="1192.16" y1="175.02" x2="1943.91" y2="175.02" gradientUnits="userSpaceOnUse">
<stop stop-color="#87888A"/>
<stop offset="0.4974" stop-color="#E5E5E5"/>
<stop offset="1" stop-color="#7D7E80"/>
</linearGradient>
<linearGradient id="paint28_linear_27_111" x1="1192.2" y1="182.652" x2="1943.93" y2="182.652" gradientUnits="userSpaceOnUse">
<stop stop-color="#87888A"/>
<stop offset="0.4974" stop-color="#E5E5E5"/>
<stop offset="1" stop-color="#7D7E80"/>
</linearGradient>
<linearGradient id="paint29_linear_27_111" x1="1192.17" y1="195.972" x2="1943.96" y2="195.972" gradientUnits="userSpaceOnUse">
<stop stop-color="#87888A"/>
<stop offset="0.4974" stop-color="#E5E5E5"/>
<stop offset="1" stop-color="#7D7E80"/>
</linearGradient>
<linearGradient id="paint30_linear_27_111" x1="1192.13" y1="209.67" x2="1943.98" y2="209.67" gradientUnits="userSpaceOnUse">
<stop stop-color="#87888A"/>
<stop offset="0.4974" stop-color="#E5E5E5"/>
<stop offset="1" stop-color="#7D7E80"/>
</linearGradient>
<linearGradient id="paint31_linear_27_111" x1="1192.1" y1="223.454" x2="1944.01" y2="223.454" gradientUnits="userSpaceOnUse">
<stop stop-color="#87888A"/>
<stop offset="0.4974" stop-color="#E5E5E5"/>
<stop offset="1" stop-color="#7D7E80"/>
</linearGradient>
<linearGradient id="paint32_linear_27_111" x1="1192.07" y1="232.09" x2="1944.03" y2="232.09" gradientUnits="userSpaceOnUse">
<stop stop-color="#87888A"/>
<stop offset="0.4974" stop-color="#E5E5E5"/>
<stop offset="1" stop-color="#7D7E80"/>
</linearGradient>
<linearGradient id="paint33_linear_27_111" x1="1192.04" y1="240.774" x2="1944.05" y2="240.774" gradientUnits="userSpaceOnUse">
<stop stop-color="#87888A"/>
<stop offset="0.4974" stop-color="#E5E5E5"/>
<stop offset="1" stop-color="#7D7E80"/>
</linearGradient>
<linearGradient id="paint34_linear_27_111" x1="-22.2223" y1="230.655" x2="1944.2" y2="230.655" gradientUnits="userSpaceOnUse">
<stop stop-color="#87888A"/>
<stop offset="0.4974" stop-color="#E5E5E5"/>
<stop offset="1" stop-color="#7D7E80"/>
</linearGradient>
<linearGradient id="paint35_linear_27_111" x1="-22.2647" y1="232.273" x2="1944.2" y2="232.273" gradientUnits="userSpaceOnUse">
<stop stop-color="#87888A"/>
<stop offset="0.4974" stop-color="#E5E5E5"/>
<stop offset="1" stop-color="#7D7E80"/>
</linearGradient>
<linearGradient id="paint36_linear_27_111" x1="-22.2962" y1="233.129" x2="1944.2" y2="233.129" gradientUnits="userSpaceOnUse">
<stop stop-color="#87888A"/>
<stop offset="0.4974" stop-color="#E5E5E5"/>
<stop offset="1" stop-color="#7D7E80"/>
</linearGradient>
<linearGradient id="paint37_linear_27_111" x1="-22.3224" y1="233.085" x2="1944.2" y2="233.085" gradientUnits="userSpaceOnUse">
<stop stop-color="#87888A"/>
<stop offset="0.4974" stop-color="#E5E5E5"/>
<stop offset="1" stop-color="#7D7E80"/>
</linearGradient>
<linearGradient id="paint38_linear_27_111" x1="-22.3436" y1="232.478" x2="1944.2" y2="232.478" gradientUnits="userSpaceOnUse">
<stop stop-color="#87888A"/>
<stop offset="0.4974" stop-color="#E5E5E5"/>
<stop offset="1" stop-color="#7D7E80"/>
</linearGradient>
<linearGradient id="paint39_linear_27_111" x1="-22.3609" y1="231.527" x2="1944.2" y2="231.527" gradientUnits="userSpaceOnUse">
<stop stop-color="#87888A"/>
<stop offset="0.4974" stop-color="#E5E5E5"/>
<stop offset="1" stop-color="#7D7E80"/>
</linearGradient>
<linearGradient id="paint40_linear_27_111" x1="-22.3751" y1="230.509" x2="1944.2" y2="230.509" gradientUnits="userSpaceOnUse">
<stop stop-color="#87888A"/>
<stop offset="0.4974" stop-color="#E5E5E5"/>
<stop offset="1" stop-color="#7D7E80"/>
</linearGradient>
<linearGradient id="paint41_linear_27_111" x1="-22.3871" y1="230.166" x2="1944.2" y2="230.166" gradientUnits="userSpaceOnUse">
<stop stop-color="#87888A"/>
<stop offset="0.4974" stop-color="#E5E5E5"/>
<stop offset="1" stop-color="#7D7E80"/>
</linearGradient>
<linearGradient id="paint42_linear_27_111" x1="-22.3973" y1="232.01" x2="1944.2" y2="232.01" gradientUnits="userSpaceOnUse">
<stop stop-color="#87888A"/>
<stop offset="0.4974" stop-color="#E5E5E5"/>
<stop offset="1" stop-color="#7D7E80"/>
</linearGradient>
<linearGradient id="paint43_linear_27_111" x1="-22.4063" y1="233.57" x2="1944.2" y2="233.57" gradientUnits="userSpaceOnUse">
<stop stop-color="#87888A"/>
<stop offset="0.4974" stop-color="#E5E5E5"/>
<stop offset="1" stop-color="#7D7E80"/>
</linearGradient>
<linearGradient id="paint44_linear_27_111" x1="-22.4139" y1="234.877" x2="1944.2" y2="234.877" gradientUnits="userSpaceOnUse">
<stop stop-color="#87888A"/>
<stop offset="0.4974" stop-color="#E5E5E5"/>
<stop offset="1" stop-color="#7D7E80"/>
</linearGradient>
<linearGradient id="paint45_linear_27_111" x1="-22.4204" y1="235.965" x2="1944.2" y2="235.965" gradientUnits="userSpaceOnUse">
<stop stop-color="#87888A"/>
<stop offset="0.4974" stop-color="#E5E5E5"/>
<stop offset="1" stop-color="#7D7E80"/>
</linearGradient>
<linearGradient id="paint46_linear_27_111" x1="-22.4262" y1="236.864" x2="1944.2" y2="236.864" gradientUnits="userSpaceOnUse">
<stop stop-color="#87888A"/>
<stop offset="0.4974" stop-color="#E5E5E5"/>
<stop offset="1" stop-color="#7D7E80"/>
</linearGradient>
<linearGradient id="paint47_linear_27_111" x1="-22.4314" y1="237.611" x2="1944.2" y2="237.611" gradientUnits="userSpaceOnUse">
<stop stop-color="#87888A"/>
<stop offset="0.4974" stop-color="#E5E5E5"/>
<stop offset="1" stop-color="#7D7E80"/>
</linearGradient>
<linearGradient id="paint48_linear_27_111" x1="-22.4361" y1="238.198" x2="1944.2" y2="238.198" gradientUnits="userSpaceOnUse">
<stop stop-color="#87888A"/>
<stop offset="0.4974" stop-color="#E5E5E5"/>
<stop offset="1" stop-color="#7D7E80"/>
</linearGradient>
<linearGradient id="paint49_linear_27_111" x1="-22.4403" y1="240.853" x2="1944.2" y2="240.853" gradientUnits="userSpaceOnUse">
<stop stop-color="#87888A"/>
<stop offset="0.4974" stop-color="#E5E5E5"/>
<stop offset="1" stop-color="#7D7E80"/>
</linearGradient>
<linearGradient id="paint50_linear_27_111" x1="-22.4437" y1="244.167" x2="1944.26" y2="244.167" gradientUnits="userSpaceOnUse">
<stop stop-color="#87888A"/>
<stop offset="0.4974" stop-color="#E5E5E5"/>
<stop offset="1" stop-color="#7D7E80"/>
</linearGradient>
<linearGradient id="paint51_linear_27_111" x1="-22.0653" y1="234.024" x2="1944.03" y2="234.024" gradientUnits="userSpaceOnUse">
<stop stop-color="#87888A"/>
<stop offset="0.4974" stop-color="#E5E5E5"/>
<stop offset="1" stop-color="#7D7E80"/>
</linearGradient>
<linearGradient id="paint52_linear_27_111" x1="-22.0865" y1="235.642" x2="1944.03" y2="235.642" gradientUnits="userSpaceOnUse">
<stop stop-color="#87888A"/>
<stop offset="0.4974" stop-color="#E5E5E5"/>
<stop offset="1" stop-color="#7D7E80"/>
</linearGradient>
<linearGradient id="paint53_linear_27_111" x1="-22.1022" y1="236.498" x2="1944.03" y2="236.498" gradientUnits="userSpaceOnUse">
<stop stop-color="#87888A"/>
<stop offset="0.4974" stop-color="#E5E5E5"/>
<stop offset="1" stop-color="#7D7E80"/>
</linearGradient>
<linearGradient id="paint54_linear_27_111" x1="-22.1153" y1="236.454" x2="1944.03" y2="236.454" gradientUnits="userSpaceOnUse">
<stop stop-color="#87888A"/>
<stop offset="0.4974" stop-color="#E5E5E5"/>
<stop offset="1" stop-color="#7D7E80"/>
</linearGradient>
<linearGradient id="paint55_linear_27_111" x1="-22.1258" y1="235.847" x2="1944.03" y2="235.847" gradientUnits="userSpaceOnUse">
<stop stop-color="#87888A"/>
<stop offset="0.4974" stop-color="#E5E5E5"/>
<stop offset="1" stop-color="#7D7E80"/>
</linearGradient>
<linearGradient id="paint56_linear_27_111" x1="-22.1345" y1="234.896" x2="1944.03" y2="234.896" gradientUnits="userSpaceOnUse">
<stop stop-color="#87888A"/>
<stop offset="0.4974" stop-color="#E5E5E5"/>
<stop offset="1" stop-color="#7D7E80"/>
</linearGradient>
<linearGradient id="paint57_linear_27_111" x1="-22.1418" y1="233.878" x2="1944.03" y2="233.878" gradientUnits="userSpaceOnUse">
<stop stop-color="#87888A"/>
<stop offset="0.4974" stop-color="#E5E5E5"/>
<stop offset="1" stop-color="#7D7E80"/>
</linearGradient>
<linearGradient id="paint58_linear_27_111" x1="-22.1478" y1="233.535" x2="1944.03" y2="233.535" gradientUnits="userSpaceOnUse">
<stop stop-color="#87888A"/>
<stop offset="0.4974" stop-color="#E5E5E5"/>
<stop offset="1" stop-color="#7D7E80"/>
</linearGradient>
<linearGradient id="paint59_linear_27_111" x1="-22.1528" y1="235.38" x2="1944.03" y2="235.38" gradientUnits="userSpaceOnUse">
<stop stop-color="#87888A"/>
<stop offset="0.4974" stop-color="#E5E5E5"/>
<stop offset="1" stop-color="#7D7E80"/>
</linearGradient>
<linearGradient id="paint60_linear_27_111" x1="-22.1573" y1="236.939" x2="1944.03" y2="236.939" gradientUnits="userSpaceOnUse">
<stop stop-color="#87888A"/>
<stop offset="0.4974" stop-color="#E5E5E5"/>
<stop offset="1" stop-color="#7D7E80"/>
</linearGradient>
<linearGradient id="paint61_linear_27_111" x1="-22.1609" y1="238.246" x2="1944.03" y2="238.246" gradientUnits="userSpaceOnUse">
<stop stop-color="#87888A"/>
<stop offset="0.4974" stop-color="#E5E5E5"/>
<stop offset="1" stop-color="#7D7E80"/>
</linearGradient>
<linearGradient id="paint62_linear_27_111" x1="-22.1643" y1="239.334" x2="1944.03" y2="239.334" gradientUnits="userSpaceOnUse">
<stop stop-color="#87888A"/>
<stop offset="0.4974" stop-color="#E5E5E5"/>
<stop offset="1" stop-color="#7D7E80"/>
</linearGradient>
<linearGradient id="paint63_linear_27_111" x1="-22.1672" y1="240.234" x2="1944.03" y2="240.234" gradientUnits="userSpaceOnUse">
<stop stop-color="#87888A"/>
<stop offset="0.4974" stop-color="#E5E5E5"/>
<stop offset="1" stop-color="#7D7E80"/>
</linearGradient>
<linearGradient id="paint64_linear_27_111" x1="-22.1698" y1="240.98" x2="1944.03" y2="240.98" gradientUnits="userSpaceOnUse">
<stop stop-color="#87888A"/>
<stop offset="0.4974" stop-color="#E5E5E5"/>
<stop offset="1" stop-color="#7D7E80"/>
</linearGradient>
<linearGradient id="paint65_linear_27_111" x1="-22.1722" y1="241.567" x2="1944.03" y2="241.567" gradientUnits="userSpaceOnUse">
<stop stop-color="#87888A"/>
<stop offset="0.4974" stop-color="#E5E5E5"/>
<stop offset="1" stop-color="#7D7E80"/>
</linearGradient>
<linearGradient id="paint66_linear_27_111" x1="-22.1743" y1="244.27" x2="1944.03" y2="244.27" gradientUnits="userSpaceOnUse">
<stop stop-color="#87888A"/>
<stop offset="0.4974" stop-color="#E5E5E5"/>
<stop offset="1" stop-color="#7D7E80"/>
</linearGradient>
<linearGradient id="paint67_linear_27_111" x1="-22.1761" y1="247.585" x2="1944.06" y2="247.585" gradientUnits="userSpaceOnUse">
<stop stop-color="#87888A"/>
<stop offset="0.4974" stop-color="#E5E5E5"/>
<stop offset="1" stop-color="#7D7E80"/>
</linearGradient>
<linearGradient id="paint68_linear_27_111" x1="-22.9807" y1="239.971" x2="1944.55" y2="239.971" gradientUnits="userSpaceOnUse">
<stop stop-color="#87888A"/>
<stop offset="0.4974" stop-color="#E5E5E5"/>
<stop offset="1" stop-color="#7D7E80"/>
</linearGradient>
<linearGradient id="paint69_linear_27_111" x1="-23.0484" y1="243.292" x2="1944.42" y2="243.292" gradientUnits="userSpaceOnUse">
<stop stop-color="#87888A"/>
<stop offset="0.4974" stop-color="#E5E5E5"/>
<stop offset="1" stop-color="#7D7E80"/>
</linearGradient>
<linearGradient id="paint70_linear_27_111" x1="-22.4524" y1="226.458" x2="1945" y2="226.458" gradientUnits="userSpaceOnUse">
<stop stop-color="#87888A"/>
<stop offset="0.4974" stop-color="#E5E5E5"/>
<stop offset="1" stop-color="#7D7E80"/>
</linearGradient>
<linearGradient id="paint71_linear_27_111" x1="-22.5135" y1="273.794" x2="1944.9" y2="273.794" gradientUnits="userSpaceOnUse">
<stop stop-color="#87888A"/>
<stop offset="0.4974" stop-color="#E5E5E5"/>
<stop offset="1" stop-color="#7D7E80"/>
</linearGradient>
<linearGradient id="paint72_linear_27_111" x1="-22.5785" y1="155.788" x2="1944.66" y2="155.788" gradientUnits="userSpaceOnUse">
<stop stop-color="#87888A"/>
<stop offset="0.4974" stop-color="#E5E5E5"/>
<stop offset="1" stop-color="#7D7E80"/>
</linearGradient>
<linearGradient id="paint73_linear_27_111" x1="-22.0757" y1="161.722" x2="1944.06" y2="161.722" gradientUnits="userSpaceOnUse">
<stop stop-color="#87888A"/>
<stop offset="0.4974" stop-color="#E5E5E5"/>
<stop offset="1" stop-color="#7D7E80"/>
</linearGradient>
</defs>
</svg>
