<svg width="768" height="271" viewBox="0 0 768 271" fill="none" xmlns="http://www.w3.org/2000/svg">
<path d="M751.546 19.439C750.283 18.1743 748.547 17.2258 746.811 16.7516C746.496 16.5935 746.18 16.5935 746.022 16.5935C745.391 16.5935 745.075 17.2258 744.76 17.7001C744.128 18.9648 744.602 20.5456 745.549 21.4941C746.496 22.4426 748.074 22.7587 749.494 22.4426C750.283 22.2845 750.914 21.9683 751.388 21.336C751.861 20.7037 751.703 19.7552 751.23 19.2809C750.914 19.2809 750.914 19.5971 751.072 19.9132L751.546 19.439Z" fill="#66B821"/>
<path d="M770.326 51.0557C769.536 50.4233 768.274 50.2653 767.327 50.5814C767.169 51.688 767.327 52.7946 768.116 53.4269C768.905 54.2173 770.326 54.2173 770.957 53.4269C771.588 52.6365 770.957 51.0557 769.852 51.2138L770.326 51.0557Z" fill="#66B821"/>
<path d="M699.467 -0.163205C699.625 -0.00512221 699.625 0.152959 699.467 0.152959C699.309 0.311042 699.151 0.311043 699.151 0.311043C698.994 0.311043 698.994 0.311043 698.836 0.311043C698.678 0.15296 698.52 -0.00512221 698.678 -0.163205C698.836 -0.321288 698.994 -0.321289 699.151 -0.321289C699.309 -0.163206 699.309 -0.00512403 699.309 0.152959L699.467 -0.163205Z" fill="#66B821"/>
<path d="M404.355 22.7587C405.302 24.3395 406.565 25.7623 407.985 26.7108C408.301 26.8689 408.458 27.0269 408.774 27.0269C409.405 27.185 409.879 26.7108 410.194 26.3946C411.141 25.288 411.141 23.7072 410.51 22.4425C409.879 21.1779 408.458 20.3875 407.038 20.3875C406.249 20.3875 405.46 20.3875 404.829 21.0198C404.197 21.494 404.04 22.4425 404.355 23.0749C404.671 23.0749 404.829 22.7587 404.671 22.6006L404.355 22.7587Z" fill="#66B821"/>
<path d="M52.904 22.1264C52.904 21.9683 53.0618 21.8102 53.0618 21.6522C52.7461 21.4941 52.2727 21.6522 52.1149 21.8102C51.9571 22.1264 52.1149 22.6006 52.4305 22.6006C52.5883 22.6006 53.0618 22.4426 53.0618 22.7587L52.904 22.1264Z" fill="#66B821"/>
<path d="M13.7661 42.8352C13.6082 42.8352 13.6082 43.1514 13.7661 43.3095C13.9239 43.4675 14.0817 43.4675 14.2395 43.6256C14.3973 43.7837 14.5551 43.9418 14.5551 44.0999C14.5551 44.258 14.5551 44.416 14.3973 44.416H14.2395C13.9239 44.416 13.4504 44.416 13.1348 44.0999C12.8192 43.9418 12.5035 43.4675 12.6614 43.1514C12.6614 42.8352 12.977 42.6771 13.1348 42.519C13.2926 42.519 13.6082 42.6771 13.7661 42.8352Z" fill="#66B821"/>
<path d="M25.2865 69.235C25.7599 69.7092 26.3912 70.0254 27.0225 70.0254C27.1803 70.0254 27.1803 70.0254 27.3381 69.8673C27.4959 69.7093 27.3381 69.3931 27.1803 69.235C27.0225 68.9188 27.1803 68.4446 26.8646 67.9703C26.7068 67.6542 26.3912 67.4961 26.0756 67.338C25.6021 67.1799 24.9709 67.0218 24.8131 67.4961C24.6552 67.6542 24.8131 67.9703 24.8131 68.2865C24.9709 68.7608 25.2865 69.235 25.6021 69.7093L25.2865 69.235Z" fill="#66B821"/>
<path d="M15.6599 24.1816C15.8177 24.0235 16.1333 23.8654 16.2911 23.7073C16.4489 23.5493 16.4489 23.2331 16.2911 22.9169C16.2911 22.7589 16.1333 22.7589 15.9755 22.7589C15.6599 22.6008 15.1864 22.9169 15.0286 23.2331C14.8708 23.7074 15.1864 24.0235 15.6599 24.1816Z" fill="#66B821"/>
<path d="M70.1057 23.2332C69.9479 23.2332 69.9479 23.5493 70.1057 23.7074C70.2635 23.8655 70.4213 23.8655 70.5791 24.0236C70.7369 24.1817 70.8947 24.3397 70.8947 24.4978C70.8947 24.6559 70.8947 24.814 70.7369 24.814H70.5791C70.2635 24.814 69.79 24.814 69.4744 24.4978C69.1588 24.3397 68.8431 23.8655 69.001 23.5493C69.001 23.2332 69.3166 23.0751 69.4744 22.917C69.6322 22.917 69.9479 23.0751 70.1057 23.2332Z" fill="#66B821"/>
<path d="M42.0147 1.10152C42.9616 0.785352 43.7506 -0.163142 44.0663 -1.11164C43.2772 -1.74397 42.1725 -2.21822 41.2256 -1.90205C40.2787 -1.58589 39.4897 -0.479308 39.8053 0.469188C40.1209 1.41768 41.8569 1.73385 42.3303 0.785354L42.0147 1.10152Z" fill="#66B821"/>
<path d="M56.2181 50.8974C57.1649 50.5813 57.954 49.6328 58.2696 48.6843C57.4806 48.0519 56.3759 47.5777 55.429 47.8938C54.4821 48.21 53.693 49.3166 54.0087 50.2651C54.3243 51.2136 56.0602 51.5298 56.5337 50.5813L56.2181 50.8974Z" fill="#66B821"/>
<path d="M20.2365 29.8725C20.2365 29.5563 19.9209 29.5563 19.6053 29.3983C19.2896 29.3983 18.974 29.2402 18.974 29.0821V28.924C19.1318 28.7659 19.2896 28.924 19.4474 28.924C19.6053 28.924 19.7631 28.924 19.9209 28.924C20.2365 28.924 20.7099 29.0821 20.8678 29.3983C20.8678 29.5563 20.71 29.7144 20.5521 29.8725C20.3943 29.8725 20.2365 29.8725 20.0787 29.7144L20.2365 29.8725Z" fill="#66B821"/>
<path d="M40.4366 3.3147C40.4366 3.15662 40.5945 2.99854 40.5945 2.84046C40.4366 2.68237 40.4366 2.68237 40.2788 2.68237C40.121 2.84046 40.121 3.15662 40.4366 3.3147Z" fill="#66B821"/>
<path d="M17.3958 24.0234C17.3958 23.7072 17.0802 23.7072 16.7646 23.5491C16.4489 23.5491 16.1333 23.3911 16.1333 23.233V23.0749C16.2911 22.9168 16.4489 23.0749 16.6067 23.0749C16.7646 23.0749 16.9224 23.0749 17.0802 23.0749C17.3958 23.0749 17.8692 23.233 18.0271 23.5491C18.0271 23.7072 17.8692 23.8653 17.7114 24.0234C17.5536 24.0234 17.3958 24.0234 17.238 23.8653L17.3958 24.0234Z" fill="#66B821"/>
</svg>
