<svg width="1639" height="499" viewBox="0 0 1639 499" fill="none" xmlns="http://www.w3.org/2000/svg">
<path d="M1560.64 75.8745C1559.37 74.6099 1557.64 73.6614 1555.9 73.1871C1555.59 73.0291 1555.27 73.0291 1555.11 73.0291C1554.48 73.0291 1554.17 73.6614 1553.85 74.1356C1553.22 75.4003 1553.69 76.9811 1554.64 77.9296C1555.59 78.8781 1557.16 79.1943 1558.59 78.8781C1559.37 78.72 1560.01 78.4039 1560.48 77.7715C1560.95 77.1392 1560.79 76.1907 1560.32 75.7164C1560.01 75.7164 1560.01 76.0326 1560.16 76.3488L1560.64 75.8745Z" fill="#66B821"/>
<path d="M1437.7 37.4604C1435.81 37.4604 1434.07 37.9347 1432.49 38.7251C1432.18 38.8832 1432.02 39.0413 1431.7 39.1994C1431.39 39.6736 1431.39 40.3059 1431.55 40.7802C1432.02 42.0448 1433.44 42.9933 1434.86 42.9933C1436.28 42.9933 1437.54 42.2029 1438.33 41.0963C1438.8 40.464 1439.12 39.6736 1438.96 38.8832C1438.8 38.0928 1438.17 37.4604 1437.38 37.4604C1437.23 37.6185 1437.38 37.9347 1437.7 37.9347V37.4604Z" fill="#66B821"/>
<path d="M1561.27 84.0947C1560.48 83.4624 1559.22 83.3043 1558.27 83.6205C1558.11 84.7271 1558.27 85.8336 1559.06 86.466C1559.85 87.2564 1561.27 87.2564 1561.9 86.466C1562.53 85.6756 1561.9 84.0947 1560.79 84.2528L1561.27 84.0947Z" fill="#66B821"/>
<path d="M1562.53 69.5512C1562.21 69.5512 1561.9 69.3931 1561.43 69.5512H1561.27V69.7093C1561.27 70.0255 1561.74 70.3416 1561.58 70.6578V70.8159C1561.58 70.974 1561.74 70.974 1561.9 70.974C1562.53 70.8159 1562.69 70.0255 1562.53 69.5512Z" fill="#66B821"/>
<path d="M1561.43 58.0111C1560.79 57.853 1560.16 57.853 1559.37 57.853C1559.22 57.853 1559.22 57.853 1559.22 57.853C1559.22 57.853 1559.06 58.0111 1559.22 58.1692C1559.22 58.8015 1560.16 59.4339 1559.85 60.0662C1559.85 60.2243 1559.69 60.2243 1559.69 60.3824C1559.69 60.5404 1560.01 60.6985 1560.16 60.5404C1561.27 60.2243 1561.74 58.8015 1561.11 57.853C1561.11 58.0111 1561.27 58.0111 1561.43 58.0111Z" fill="#66B821"/>
<path d="M1578.31 49.7909C1577.68 49.6328 1577.05 49.6328 1576.26 49.6328C1576.1 49.6328 1576.1 49.6328 1576.1 49.6328C1576.1 49.6328 1575.94 49.7909 1576.1 49.949C1576.1 50.5813 1577.05 51.2136 1576.73 51.846C1576.73 52.0041 1576.58 52.0041 1576.58 52.1621C1576.58 52.3202 1576.89 52.4783 1577.05 52.3202C1578.15 52.0041 1578.63 50.5813 1578 49.6328C1578.15 49.7909 1578.15 49.7909 1578.31 49.7909Z" fill="#66B821"/>
<path d="M1547.22 77.7715C1546.91 77.4553 1546.28 77.2972 1545.8 77.4553C1545.8 77.6134 1545.96 77.9296 1545.96 78.0877C1546.12 78.2457 1546.28 78.4038 1546.59 78.4038C1546.91 78.2457 1546.91 77.9296 1547.22 77.7715C1547.06 77.7715 1547.06 77.7715 1547.22 77.7715Z" fill="#66B821"/>
<path d="M1448.9 62.5956C1448.75 62.5956 1448.59 62.5956 1448.59 62.7537C1448.43 62.9118 1448.43 62.9118 1448.43 63.0698C1448.43 63.386 1448.27 63.7022 1448.12 64.1764C1448.59 63.8603 1449.22 63.7022 1449.69 63.386H1449.85C1450.01 63.386 1450.17 63.5441 1450.32 63.7022C1450.48 63.8603 1450.8 63.7022 1450.96 63.386C1451.9 61.9633 1449.69 62.5956 1448.9 62.5956Z" fill="#66B821"/>
<path d="M1537.44 51.3718C1537.28 51.3718 1537.12 51.3718 1536.96 51.3718C1536.81 51.3718 1536.81 51.5299 1536.65 51.688C1536.49 52.0042 1536.33 52.3203 1536.02 52.6365C1536.65 52.4784 1537.12 52.4784 1537.75 52.3203H1537.91C1538.07 52.3203 1538.07 52.6365 1538.23 52.6365C1538.38 52.7946 1538.7 52.6365 1538.86 52.6365C1540.59 51.688 1538.23 51.5299 1537.44 51.3718Z" fill="#66B821"/>
<path d="M1463.27 26.7108C1463.11 26.7108 1462.95 26.7108 1462.79 26.7108C1462.79 27.027 1463.11 27.3432 1463.42 27.3432C1463.74 27.3432 1464.05 27.027 1463.9 26.7108C1463.74 26.5527 1463.58 26.2366 1463.74 26.2366L1463.27 26.7108Z" fill="#66B821"/>
<path d="M1548.33 43.4676C1548.8 43.7838 1548.8 44.4161 1548.33 44.7323C1547.85 45.0485 1547.22 44.5742 1547.22 44.1C1547.22 43.6257 1547.85 43.3096 1548.33 43.4676Z" fill="#66B821"/>
<path d="M1553.38 63.8603C1553.69 63.7022 1554.17 63.5441 1554.48 63.8603C1554.64 64.1764 1554.32 64.6507 1554.17 64.8088C1554.01 64.9668 1553.85 64.9669 1553.69 64.9669C1553.38 64.8088 1553.69 64.1764 1553.22 63.8603C1553.38 63.8603 1553.54 63.8603 1553.38 63.8603Z" fill="#66B821"/>
<path d="M1552.59 80.3009C1552.75 80.3009 1552.9 80.3009 1553.06 80.3009C1552.9 80.6171 1552.43 80.7752 1552.11 80.7752C1551.96 80.7752 1551.64 80.7752 1551.48 80.6171C1551.48 80.459 1551.48 80.3009 1551.48 80.1428C1551.48 79.8267 1551.17 79.5105 1551.33 79.3524C1551.48 79.1943 1551.64 79.1943 1551.8 79.1943C1551.96 79.1943 1552.11 79.3524 1552.11 79.5105C1552.27 79.8267 1552.59 80.1428 1552.75 80.459L1552.59 80.3009Z" fill="#66B821"/>
<path d="M1554.17 85.6757C1553.85 85.5176 1553.69 85.9919 1553.69 86.308C1553.85 86.6242 1554.17 86.6242 1554.48 86.7823C1554.64 86.308 1554.64 85.8338 1554.17 85.6757Z" fill="#66B821"/>
<path d="M1584.94 92.9475C1584.78 92.9475 1584.62 92.9475 1584.47 92.9475C1584.31 92.9475 1584.15 93.1056 1584.15 93.2637C1584.15 93.5798 1584.31 93.7379 1584.47 93.896C1584.47 94.0541 1584.47 94.3703 1584.62 94.6864C1584.78 94.8445 1585.1 94.8445 1585.26 94.6864C1585.41 94.5283 1585.41 94.2122 1585.41 94.0541C1585.41 93.896 1585.41 93.5799 1585.26 93.4218C1585.1 93.2637 1584.94 93.1056 1584.62 93.2637L1584.94 92.9475Z" fill="#66B821"/>
<path d="M1503.19 91.2086C1503.35 91.3667 1503.35 91.5248 1503.19 91.5248C1503.03 91.6829 1502.88 91.6829 1502.88 91.6829C1502.72 91.6829 1502.72 91.6829 1502.56 91.6829C1502.4 91.5248 1502.25 91.3667 1502.4 91.2086C1502.56 91.0505 1502.72 91.0505 1502.88 91.0505C1503.03 91.2086 1503.03 91.3667 1503.03 91.5248L1503.19 91.2086Z" fill="#66B821"/>
<path d="M1541.86 103.855C1542.01 104.013 1542.01 104.171 1541.86 104.171C1541.7 104.329 1541.54 104.329 1541.54 104.329C1541.38 104.329 1541.38 104.329 1541.23 104.329C1541.07 104.171 1540.91 104.013 1541.07 103.855C1541.23 103.697 1541.38 103.697 1541.54 103.697C1541.7 103.855 1541.7 104.013 1541.7 104.171L1541.86 103.855Z" fill="#66B821"/>
<path d="M1548.17 82.1979C1548.33 81.8818 1548.01 81.5656 1547.7 81.7237C1547.7 81.8818 1547.7 82.0398 1547.7 82.1979C1547.7 82.356 1547.85 82.5141 1548.01 82.5141C1548.17 82.5141 1548.33 82.356 1548.17 82.1979Z" fill="#66B821"/>
<path d="M1539.96 63.0698C1540.12 62.7536 1539.81 62.4374 1539.49 62.5955C1539.49 62.7536 1539.49 62.9117 1539.49 63.0698C1539.49 63.2278 1539.65 63.3859 1539.81 63.3859C1539.96 63.3859 1540.12 63.2278 1539.96 63.0698Z" fill="#66B821"/>
<path d="M1549.59 75.5585C1549.43 75.2423 1548.96 75.0842 1548.64 75.0842C1548.64 75.4004 1548.64 75.7166 1548.64 76.0327C1548.64 76.1908 1548.64 76.3489 1548.8 76.507C1548.96 76.6651 1549.27 76.8231 1549.59 76.507C1549.59 76.1908 1549.75 75.8746 1549.59 75.5585Z" fill="#66B821"/>
<path d="M1592.99 36.0377C1593.46 36.0377 1594.09 35.8796 1594.57 35.8796C1594.72 36.1958 1594.41 36.3539 1594.09 36.512C1593.78 36.6701 1593.62 36.6701 1593.3 36.6701C1593.15 36.512 1592.83 36.1958 1592.99 36.0377Z" fill="#66B821"/>
<path d="M1583.84 41.5707C1583.68 41.2545 1583.2 41.0964 1582.89 41.4126C1582.57 41.7287 1582.73 42.203 1582.89 42.5191C1583.05 42.6772 1583.2 42.6772 1583.36 42.8353C1583.68 42.8353 1583.84 42.6772 1583.99 42.3611C1583.99 41.8868 1583.99 41.5707 1583.84 41.5707Z" fill="#66B821"/>
<path d="M1551.17 64.4927C1551.01 64.1765 1550.69 63.8604 1550.38 63.8604C1550.22 64.1765 1550.22 64.3346 1550.38 64.6508C1550.54 64.9669 1550.85 65.2831 1551.17 65.2831C1551.48 65.125 1551.64 64.4927 1551.17 64.4927Z" fill="#66B821"/>
<path d="M1553.85 67.1801C1554.01 67.3381 1554.17 67.6543 1554.17 67.8124C1553.85 67.8124 1553.69 67.8124 1553.38 67.9705C1553.22 67.6543 1553.38 67.1801 1553.85 67.022V67.1801Z" fill="#66B821"/>
<path d="M1561.74 70.1835C1561.9 70.1835 1561.9 70.1835 1562.06 70.0254C1562.06 70.3416 1562.06 70.4996 1561.9 70.8158C1561.74 70.9739 1561.58 71.29 1561.27 71.132C1560.95 71.132 1560.95 70.6577 1561.11 70.4996C1561.27 70.4996 1561.43 70.3416 1561.74 70.1835Z" fill="#66B821"/>
<path d="M1550.69 87.2566C1550.85 87.4147 1551.01 87.5727 1550.85 87.8889C1550.85 88.047 1550.69 88.2051 1550.38 88.3631C1550.22 88.3631 1550.06 88.3631 1550.06 88.2051V88.047C1550.38 87.7308 1550.54 87.4147 1550.69 87.2566Z" fill="#66B821"/>
<path d="M1546.28 89.6277C1546.28 89.9439 1546.59 89.9438 1546.91 90.1019C1547.22 90.1019 1547.54 90.26 1547.54 90.4181V90.5762C1547.38 90.7343 1547.22 90.5762 1547.06 90.5762C1546.91 90.5762 1546.75 90.5762 1546.59 90.5762C1546.28 90.5762 1545.96 90.4181 1545.8 90.1019C1545.8 89.9438 1545.96 89.7858 1546.12 89.6277C1546.28 89.6277 1546.43 89.6277 1546.59 89.7858L1546.28 89.6277Z" fill="#66B821"/>
<path d="M1544.38 91.5247C1544.38 91.5247 1544.22 91.6828 1544.22 91.8409C1544.22 91.999 1544.54 92.1571 1544.7 91.999C1544.86 91.8409 1545.01 91.6828 1544.86 91.6828C1544.7 91.3667 1544.54 91.3667 1544.38 91.5247Z" fill="#66B821"/>
<path d="M1547.22 98.0062C1547.22 98.1643 1547.06 98.1643 1547.06 98.3224C1547.06 98.4804 1547.38 98.6385 1547.54 98.4804C1547.7 98.4804 1547.85 98.1643 1547.7 98.1643C1547.54 97.8481 1547.38 97.8481 1547.22 98.0062Z" fill="#66B821"/>
<path d="M1548.17 79.9847C1548.33 80.1428 1548.49 79.9847 1548.64 79.6685C1548.64 79.5104 1548.64 79.1943 1548.64 79.0362C1548.64 78.8781 1548.8 78.562 1548.96 78.562C1549.12 78.562 1549.12 78.4039 1549.27 78.562L1549.43 78.72C1549.59 79.0362 1549.75 79.3524 1549.75 79.8266C1549.75 80.1428 1549.59 80.617 1549.12 80.7751C1548.8 80.9332 1548.49 80.7751 1548.33 80.617C1548.17 80.4589 1548.17 80.1428 1548.17 79.9847Z" fill="#66B821"/>
<path d="M1423.97 80.1427C1424.13 80.3007 1424.29 80.1427 1424.44 79.8265C1424.44 79.6684 1424.44 79.3523 1424.44 79.1942C1424.44 79.0361 1424.6 78.7199 1424.76 78.7199C1424.92 78.7199 1424.92 78.5618 1425.07 78.7199L1425.23 78.878C1425.39 79.1942 1425.55 79.5103 1425.55 79.9846C1425.55 80.4588 1425.39 80.775 1424.92 80.9331C1424.6 81.0912 1424.29 80.9331 1424.13 80.775C1423.97 80.6169 1423.81 80.3007 1423.97 80.1427Z" fill="#66B821"/>
<path d="M1528.44 61.4891C1528.6 61.6472 1528.76 61.4891 1528.92 61.1729C1528.92 61.0148 1528.92 60.6987 1528.92 60.5406C1528.92 60.3825 1529.07 60.0664 1529.23 60.0664C1529.39 60.0664 1529.39 59.9083 1529.55 60.0664L1529.71 60.2244C1529.86 60.5406 1530.02 60.8568 1530.02 61.331C1530.02 61.6472 1529.86 62.1214 1529.39 62.2795C1529.07 62.4376 1528.76 62.2795 1528.6 62.1214C1528.44 61.9633 1528.28 61.6472 1528.44 61.4891Z" fill="#66B821"/>
<path d="M1501.61 49.0006C1501.77 49.1587 1501.93 49.0006 1502.09 48.6844C1502.09 48.5263 1502.09 48.2102 1502.09 48.0521C1502.09 47.894 1502.25 47.5778 1502.4 47.5778C1502.56 47.5778 1502.56 47.4197 1502.72 47.5778L1502.88 47.7359C1503.03 48.0521 1503.19 48.3682 1503.19 48.8425C1503.19 49.1587 1503.03 49.6329 1502.56 49.791C1502.25 49.9491 1501.93 49.791 1501.77 49.6329C1501.61 49.4748 1501.61 49.1587 1501.61 49.0006Z" fill="#66B821"/>
<path d="M1544.86 75.8744C1544.7 75.7163 1544.38 75.7163 1544.22 75.8744C1544.07 76.0325 1543.91 76.3487 1544.07 76.5068C1544.07 76.6648 1544.22 76.6648 1544.22 76.6648C1544.22 76.6648 1544.38 76.6648 1544.38 76.5068C1544.54 76.3487 1544.7 76.1906 1544.86 75.8744Z" fill="#66B821"/>
<path d="M1638.75 56.7465C1638.91 56.1141 1638.75 55.4818 1638.44 54.8495C1638.44 54.6914 1638.28 54.6914 1638.12 54.6914C1637.81 54.6914 1637.81 55.0076 1637.65 55.1657C1637.49 55.4818 1637.02 55.6399 1636.7 55.9561C1636.55 56.2722 1636.55 56.5884 1636.7 56.9046C1636.86 57.3788 1637.02 58.0111 1637.49 58.0111C1637.81 58.0111 1637.97 57.8531 1638.12 57.5369C1638.44 57.0626 1638.6 56.5884 1638.75 56.1141V56.7465Z" fill="#66B821"/>
<path d="M1517.87 25.13C1518.03 24.4977 1517.87 23.8654 1517.55 23.233C1517.55 23.075 1517.4 23.075 1517.24 23.075C1516.92 23.075 1516.92 23.3911 1516.76 23.5492C1516.61 23.8654 1516.13 24.0234 1515.82 24.3396C1515.66 24.6558 1515.66 24.9719 1515.82 25.2881C1515.98 25.7624 1516.13 26.3947 1516.61 26.3947C1516.92 26.3947 1517.08 26.2366 1517.24 25.9204C1517.55 25.4462 1517.71 24.9719 1517.87 24.4977V25.13Z" fill="#66B821"/>
<path d="M1551.96 53.9011C1552.11 53.5849 1551.8 53.2687 1551.48 52.9526C1551.33 52.7945 1551.01 52.6364 1550.85 52.7945C1550.54 52.9526 1550.54 53.2687 1550.54 53.5849C1550.54 53.9011 1550.54 54.2172 1550.69 54.3753C1550.69 54.5334 1550.69 54.6915 1550.85 54.6915C1551.01 54.6915 1551.01 54.6915 1551.17 54.6915C1551.64 54.5334 1552.27 54.3753 1552.75 54.0591L1551.96 53.9011Z" fill="#66B821"/>
<path d="M1560.32 63.2279C1562.69 60.6986 1559.53 58.1692 1557.01 59.9082C1554.48 61.489 1558.27 65.441 1560.32 63.2279Z" fill="#66B821"/>
<path d="M1559.85 45.6808C1562.21 43.1514 1559.06 40.6221 1556.53 42.361C1554.01 43.9419 1557.8 47.8939 1559.85 45.6808Z" fill="#66B821"/>
<path d="M1556.85 82.3559C1557.16 82.8301 1556.85 83.4624 1556.38 83.4624C1556.22 83.1463 1556.06 82.672 1556.22 82.3559C1556.22 82.0397 1556.69 81.5655 1557.01 81.7235C1557.16 81.8816 1557.16 82.1978 1557.32 82.3559H1556.85Z" fill="#66B821"/>
<path d="M1549.27 -0.321165C1549.12 -0.479247 1548.96 -0.479247 1548.96 -0.163082C1548.96 0.153083 1548.96 0.469249 1548.96 0.785414C1549.12 1.41774 1549.12 2.20816 1549.27 2.84049C1549.27 3.15665 1549.43 3.6309 1549.59 3.78898C1549.75 3.94706 1549.91 3.78898 1549.91 3.47282C1549.91 3.15665 1549.91 2.84048 1549.91 2.52432C1549.91 1.41774 1549.75 0.153082 1549.12 -0.479248C1549.12 -0.321166 1548.96 -0.163081 1548.96 -0.00499862L1549.27 -0.321165Z" fill="#66B821"/>
<path d="M1548.64 92.3152C1548.8 92.3152 1548.8 92.3152 1548.96 92.4733C1548.96 92.6314 1548.96 92.6314 1548.96 92.7894C1548.96 92.9475 1548.96 92.9475 1548.8 93.1056C1548.64 93.2637 1548.49 93.2637 1548.33 93.1056C1548.17 92.9475 1548.17 92.7894 1548.17 92.6314C1548.17 92.4733 1548.17 92.4733 1548.33 92.4733C1548.33 92.4733 1548.49 92.4733 1548.64 92.4733V92.3152Z" fill="#66B821"/>
<path d="M1545.49 83.1463C1545.33 83.1463 1545.33 83.1463 1545.17 83.1463C1545.17 83.3043 1545.17 83.4624 1545.17 83.6205C1545.33 83.7786 1545.49 83.7786 1545.64 83.6205V83.4624C1545.64 83.3043 1545.49 83.1462 1545.49 82.8301V83.1463Z" fill="#66B821"/>
<path d="M1527.81 76.6649C1527.65 76.5068 1527.34 76.5068 1527.02 76.5068C1526.71 76.5068 1526.55 76.6649 1526.39 76.823C1526.39 76.9811 1526.39 77.1392 1526.39 77.1392C1526.55 77.4553 1527.02 77.7715 1527.34 77.6134C1527.65 77.6134 1527.97 77.1392 1527.81 76.6649Z" fill="#66B821"/>
<path d="M1484.89 57.2208C1484.73 57.0627 1484.41 57.0627 1484.1 57.0627C1483.78 57.0627 1483.62 57.2208 1483.47 57.3789C1483.47 57.537 1483.47 57.6951 1483.47 57.6951C1483.62 58.0112 1484.1 58.3274 1484.41 58.1693C1484.89 58.1693 1485.04 57.6951 1484.89 57.2208Z" fill="#66B821"/>
<path d="M1540.59 58.9596C1540.91 58.8015 1541.38 59.2758 1541.23 59.592C1541.07 59.75 1540.91 59.75 1540.59 59.75C1540.44 59.592 1540.44 59.2758 1540.59 59.1177V58.9596Z" fill="#66B821"/>
<path d="M1563.79 84.0947C1563.64 84.0947 1563.48 84.0947 1563.32 84.0947C1563.32 84.2528 1563.32 84.4109 1563.32 84.569C1563.64 84.7271 1563.95 84.569 1563.79 84.0947Z" fill="#66B821"/>
<path d="M1428.23 48.21C1426.97 46.9453 1425.23 45.9968 1423.5 45.5226C1423.18 45.3645 1422.87 45.3645 1422.71 45.3645C1422.08 45.3645 1421.76 45.9968 1421.44 46.4711C1420.81 47.7357 1421.29 49.3166 1422.23 50.2651C1423.18 51.2136 1424.76 51.5297 1426.18 51.2136C1426.97 51.0555 1427.6 50.7393 1428.07 50.107C1428.55 49.4746 1428.39 48.5261 1427.92 48.0519C1427.6 48.0519 1427.6 48.3681 1427.76 48.6842L1428.23 48.21Z" fill="#66B821"/>
<path d="M1327.55 19.439C1326.28 18.1743 1324.55 17.2258 1322.81 16.7516C1322.5 16.5935 1322.18 16.5935 1322.02 16.5935C1321.39 16.5935 1321.08 17.2258 1320.76 17.7001C1320.13 18.9647 1320.6 20.5456 1321.55 21.4941C1322.5 22.4426 1324.07 22.7587 1325.49 22.4426C1326.28 22.2845 1326.91 21.9683 1327.39 21.336C1327.86 20.7036 1327.7 19.7552 1327.23 19.2809C1326.91 19.2809 1326.91 19.5971 1327.07 19.9132L1327.55 19.439Z" fill="#66B821"/>
<path d="M1393.67 91.0505C1392.88 90.4182 1391.62 90.2601 1390.67 90.5763C1390.51 91.6829 1390.67 92.7895 1391.46 93.4218C1392.25 94.2122 1393.67 94.2122 1394.3 93.4218C1394.93 92.6314 1394.3 91.0505 1393.2 91.2086L1393.67 91.0505Z" fill="#66B821"/>
<path d="M1379.62 84.7271C1379.31 84.4109 1378.68 84.2528 1378.2 84.4109C1378.2 84.569 1378.36 84.8851 1378.36 85.0432C1378.52 85.2013 1378.68 85.3594 1378.99 85.3594C1379.31 85.3594 1379.47 84.8851 1379.62 84.7271C1379.47 84.7271 1379.62 84.8851 1379.62 84.7271Z" fill="#66B821"/>
<path d="M1376.94 86.9404C1376.78 86.9404 1376.63 86.9404 1376.47 86.9404C1376.31 86.9404 1376.31 87.0985 1376.15 87.2566C1375.99 87.5728 1375.84 87.8889 1375.52 88.2051C1376.15 88.047 1376.63 88.047 1377.26 87.8889H1377.41C1377.57 87.8889 1377.57 88.2051 1377.73 88.2051C1377.89 88.3632 1378.2 88.2051 1378.36 88.2051C1379.94 87.0985 1377.57 87.0985 1376.94 86.9404Z" fill="#66B821"/>
<path d="M1384.99 87.2565C1385.15 87.2565 1385.31 87.2565 1385.46 87.2565C1385.31 87.5726 1384.83 87.7307 1384.52 87.7307C1384.36 87.7307 1384.04 87.7307 1383.89 87.5726C1383.89 87.4146 1383.89 87.2565 1383.89 87.0984C1383.89 86.7822 1383.57 86.4661 1383.73 86.308C1383.89 86.1499 1384.04 86.1499 1384.2 86.1499C1384.36 86.1499 1384.52 86.308 1384.52 86.4661C1384.67 86.7822 1384.99 87.0984 1385.15 87.4146L1384.99 87.2565Z" fill="#66B821"/>
<path d="M1386.57 92.7895C1386.25 92.6314 1386.09 93.1056 1386.09 93.4218C1386.25 93.738 1386.57 93.7379 1386.88 93.896C1387.2 93.4218 1387.04 92.9475 1386.57 92.7895Z" fill="#66B821"/>
<path d="M1417.34 99.9031C1417.18 99.9031 1417.03 99.9031 1416.87 99.9031C1416.71 99.9031 1416.55 100.061 1416.55 100.219C1416.55 100.535 1416.71 100.693 1416.87 100.852C1416.87 101.01 1416.87 101.326 1417.03 101.642C1417.18 101.8 1417.5 101.8 1417.66 101.642C1417.82 101.484 1417.82 101.168 1417.82 101.01C1417.82 100.852 1417.82 100.535 1417.66 100.377C1417.5 100.219 1417.34 100.061 1417.03 100.219L1417.34 99.9031Z" fill="#66B821"/>
<path d="M1380.26 91.2086C1380.41 91.3667 1380.41 91.5248 1380.26 91.5248C1380.1 91.6829 1379.94 91.6829 1379.94 91.6829C1379.78 91.6829 1379.78 91.6829 1379.62 91.6829C1379.47 91.5248 1379.31 91.3667 1379.47 91.2086C1379.62 91.0505 1379.78 91.0505 1379.94 91.0505C1380.1 91.2086 1380.1 91.3667 1380.1 91.5248L1380.26 91.2086Z" fill="#66B821"/>
<path d="M1374.26 110.811C1374.42 110.969 1374.42 111.127 1374.26 111.127C1374.1 111.285 1373.94 111.285 1373.94 111.285C1373.79 111.285 1373.79 111.285 1373.63 111.285C1373.47 111.127 1373.31 110.969 1373.47 110.811C1373.63 110.653 1373.79 110.653 1373.94 110.653C1374.1 110.811 1374.1 110.969 1374.1 111.127L1374.26 110.811Z" fill="#66B821"/>
<path d="M1380.57 89.1535C1380.73 88.8373 1380.41 88.5212 1380.1 88.6793C1380.1 88.8373 1380.1 88.9954 1380.1 89.1535C1380.1 89.3116 1380.26 89.4697 1380.41 89.4697C1380.57 89.4697 1380.73 89.3116 1380.57 89.1535Z" fill="#66B821"/>
<path d="M1381.99 82.514C1381.83 82.1979 1381.36 82.0398 1381.04 82.0398C1381.04 82.356 1381.04 82.6721 1381.04 82.9883C1381.04 83.1464 1381.04 83.3045 1381.2 83.4625C1381.36 83.6206 1381.68 83.7787 1381.99 83.4625C1382.31 83.1464 1382.15 82.8302 1381.99 82.514Z" fill="#66B821"/>
<path d="M1383.25 94.3703C1383.41 94.5284 1383.57 94.6865 1383.41 95.0027C1383.41 95.1607 1383.25 95.3188 1382.94 95.4769C1382.78 95.4769 1382.62 95.4769 1382.62 95.3188V95.1607C1382.78 94.6865 1382.94 94.5284 1383.25 94.3703C1383.1 94.2122 1383.25 94.3703 1383.25 94.3703Z" fill="#66B821"/>
<path d="M1378.84 96.7415C1378.84 97.0576 1379.15 97.0576 1379.47 97.2157C1379.78 97.2157 1380.1 97.3738 1380.1 97.5319V97.69C1379.94 97.848 1379.78 97.69 1379.62 97.69C1379.47 97.69 1379.31 97.69 1379.15 97.69C1378.84 97.69 1378.52 97.5319 1378.36 97.2157C1378.36 97.0576 1378.52 96.8995 1378.68 96.7415C1378.84 96.7415 1378.99 96.7415 1379.15 96.8995L1378.84 96.7415Z" fill="#66B821"/>
<path d="M1376.78 98.4803C1376.78 98.6384 1376.63 98.6384 1376.63 98.7965C1376.63 98.9545 1376.94 99.1126 1377.1 98.9546C1377.26 98.9546 1377.41 98.6384 1377.26 98.6384C1377.26 98.3222 1376.94 98.3222 1376.78 98.4803Z" fill="#66B821"/>
<path d="M1379.62 104.962C1379.62 105.12 1379.47 105.12 1379.47 105.278C1379.47 105.436 1379.78 105.594 1379.94 105.436C1380.1 105.436 1380.26 105.12 1380.1 105.12C1380.1 104.962 1379.78 104.804 1379.62 104.962Z" fill="#66B821"/>
<path d="M1380.57 86.9403C1380.73 87.0983 1380.89 86.9403 1381.04 86.6241C1381.04 86.466 1381.04 86.1498 1381.04 85.9918C1381.04 85.8337 1381.2 85.5175 1381.36 85.5175C1381.52 85.5175 1381.52 85.3594 1381.68 85.5175L1381.83 85.6756C1381.99 85.9918 1382.15 86.3079 1382.15 86.7822C1382.15 87.0983 1381.99 87.5726 1381.52 87.7307C1381.2 87.8888 1380.89 87.7307 1380.73 87.5726C1380.57 87.4145 1380.57 87.2564 1380.57 86.9403Z" fill="#66B821"/>
<path d="M1377.26 82.8302C1377.1 82.6721 1376.78 82.6721 1376.63 82.8302C1376.47 82.9883 1376.31 83.3045 1376.47 83.4626C1376.47 83.6206 1376.63 83.6206 1376.63 83.6206C1376.63 83.6206 1376.78 83.6206 1376.78 83.4626C1376.94 83.4626 1377.1 83.1464 1377.26 82.8302Z" fill="#66B821"/>
<path d="M1389.25 89.3117C1389.57 89.7859 1389.25 90.4183 1388.78 90.4183C1388.62 90.1021 1388.46 89.6278 1388.62 89.3117C1388.62 88.9955 1389.09 88.5213 1389.41 88.6793C1389.57 88.8374 1389.57 89.1536 1389.72 89.3117H1389.25Z" fill="#66B821"/>
<path d="M1381.04 99.429C1381.2 99.429 1381.2 99.429 1381.36 99.587C1381.36 99.7451 1381.36 99.7451 1381.36 99.9032C1381.36 100.061 1381.36 100.061 1381.2 100.219C1381.04 100.377 1380.89 100.377 1380.73 100.219C1380.57 100.061 1380.57 99.9032 1380.57 99.7451C1380.57 99.587 1380.57 99.587 1380.73 99.587C1380.73 99.587 1380.89 99.587 1381.04 99.587V99.429Z" fill="#66B821"/>
<path d="M1377.89 90.102C1377.73 90.102 1377.73 90.102 1377.57 90.102C1377.57 90.2601 1377.57 90.4182 1377.57 90.5763C1377.73 90.7344 1377.89 90.7344 1378.05 90.5763V90.4182C1378.05 90.2601 1377.89 90.1021 1377.89 89.7859V90.102Z" fill="#66B821"/>
<path d="M1421.44 35.0891C1420.66 34.4568 1419.39 34.2987 1418.45 34.6149C1418.29 35.7214 1418.45 36.828 1419.24 37.4604C1420.02 38.2508 1421.44 38.2508 1422.08 37.4604C1422.71 36.6699 1422.08 35.0891 1420.97 35.2472L1421.44 35.0891Z" fill="#66B821"/>
<path d="M1402.35 65.9153C1402.19 65.9153 1402.03 65.9153 1401.88 65.9153C1401.72 65.9153 1401.72 66.0734 1401.56 66.2314C1401.4 66.5476 1401.24 66.8638 1400.93 67.1799C1401.56 67.0218 1402.03 67.0219 1402.67 66.8638H1402.82C1402.98 66.8638 1402.98 67.1799 1403.14 67.1799C1403.3 67.338 1403.61 67.338 1403.77 67.1799C1405.35 66.2314 1402.98 66.0734 1402.35 65.9153Z" fill="#66B821"/>
<path d="M1412.13 71.7643C1411.82 71.6062 1411.66 72.0805 1411.66 72.3966C1411.82 72.7128 1412.13 72.7128 1412.45 72.8709C1412.61 72.3966 1412.45 71.9224 1412.13 71.7643Z" fill="#66B821"/>
<path d="M1405.82 70.1835C1405.98 70.3416 1405.98 70.4996 1405.82 70.4996C1405.66 70.6577 1405.51 70.6577 1405.51 70.6577C1405.35 70.6577 1405.35 70.6577 1405.19 70.6577C1405.03 70.4996 1404.87 70.3416 1405.03 70.1835C1405.19 70.0254 1405.35 70.0254 1405.51 70.0254C1405.66 70.1835 1405.66 70.3416 1405.66 70.4996L1405.82 70.1835Z" fill="#66B821"/>
<path d="M1399.67 89.944C1399.82 90.102 1399.82 90.2601 1399.67 90.2601C1399.51 90.4182 1399.35 90.4182 1399.35 90.4182C1399.19 90.4182 1399.19 90.4182 1399.04 90.4182C1398.88 90.2601 1398.72 90.102 1398.88 89.944C1399.04 89.7859 1399.19 89.7859 1399.35 89.7859C1399.51 89.7859 1399.51 90.1021 1399.51 90.2601L1399.67 89.944Z" fill="#66B821"/>
<path d="M1405.98 68.2866C1406.14 67.9704 1405.82 67.6542 1405.51 67.8123C1405.51 67.9704 1405.51 68.1285 1405.51 68.2866C1405.51 68.4446 1405.66 68.6027 1405.82 68.6027C1405.98 68.6027 1406.14 68.4446 1405.98 68.2866Z" fill="#66B821"/>
<path d="M1408.66 73.3452C1408.82 73.5033 1408.98 73.6614 1408.82 73.9775C1408.82 74.1356 1408.66 74.2937 1408.35 74.4518C1408.19 74.4518 1408.03 74.4518 1408.03 74.2937V74.1356C1408.35 73.6614 1408.5 73.5033 1408.66 73.3452Z" fill="#66B821"/>
<path d="M1404.24 75.7166C1404.24 76.0327 1404.56 76.0327 1404.87 76.1908C1405.19 76.1908 1405.51 76.3489 1405.51 76.507V76.665C1405.35 76.8231 1405.19 76.665 1405.03 76.665C1404.87 76.665 1404.72 76.665 1404.56 76.665C1404.24 76.665 1403.77 76.507 1403.77 76.1908C1403.77 76.0327 1403.93 75.8746 1404.09 75.7166C1404.24 75.7166 1404.4 75.7166 1404.56 75.8746L1404.24 75.7166Z" fill="#66B821"/>
<path d="M1402.35 77.4554C1402.35 77.6135 1402.19 77.6135 1402.19 77.7715C1402.19 77.9296 1402.51 78.0877 1402.67 77.9296C1402.82 77.9296 1402.98 77.6135 1402.82 77.6135C1402.67 77.4554 1402.51 77.2973 1402.35 77.4554Z" fill="#66B821"/>
<path d="M1405.19 84.0948C1405.19 84.2529 1405.03 84.2529 1405.03 84.411C1405.03 84.5691 1405.35 84.7271 1405.51 84.569C1405.66 84.569 1405.82 84.2529 1405.66 84.2529C1405.51 83.9367 1405.19 83.9367 1405.19 84.0948Z" fill="#66B821"/>
<path d="M1406.14 66.0733C1406.29 66.2314 1406.45 66.0733 1406.61 65.7572C1406.61 65.5991 1406.61 65.2829 1406.61 65.1248C1406.61 64.9668 1406.77 64.6506 1406.93 64.6506C1407.08 64.6506 1407.08 64.4925 1407.24 64.6506L1407.4 64.8087C1407.56 65.1248 1407.72 65.441 1407.72 65.9152C1407.72 66.2314 1407.56 66.7057 1407.08 66.8637C1406.77 67.0218 1406.45 66.8637 1406.29 66.7057C1406.14 66.5476 1405.98 66.2314 1406.14 66.0733Z" fill="#66B821"/>
<path d="M1406.45 78.4038C1406.61 78.4038 1406.61 78.4038 1406.77 78.5619C1406.77 78.72 1406.77 78.72 1406.77 78.878C1406.77 79.0361 1406.77 79.0361 1406.61 79.1942C1406.45 79.3523 1406.29 79.3523 1406.14 79.1942C1405.98 79.0361 1405.98 78.8781 1405.98 78.72C1405.98 78.5619 1405.98 78.5619 1406.14 78.5619C1406.14 78.5619 1406.29 78.5619 1406.45 78.5619V78.4038Z" fill="#66B821"/>
<path d="M1403.3 69.0769C1403.14 69.0769 1403.14 69.0769 1402.98 69.0769C1402.98 69.235 1402.98 69.3931 1402.98 69.5512C1403.14 69.7092 1403.3 69.7092 1403.45 69.5512V69.3931C1403.45 69.235 1403.3 69.0769 1403.3 68.7607V69.0769Z" fill="#66B821"/>
<path d="M1407.56 10.5864C1406.77 9.9541 1405.51 9.79602 1404.56 10.1122C1404.4 11.2188 1404.56 12.3253 1405.35 12.9577C1406.14 13.7481 1407.56 13.7481 1408.19 12.9577C1408.82 12.1673 1408.19 10.5864 1407.08 10.7445L1407.56 10.5864Z" fill="#66B821"/>
<path d="M1346.33 51.0557C1345.54 50.4233 1344.27 50.2653 1343.33 50.5814C1343.17 51.688 1343.33 52.7946 1344.12 53.4269C1344.91 54.2173 1346.33 54.2173 1346.96 53.4269C1347.59 52.6365 1346.96 51.0557 1345.85 51.2138L1346.33 51.0557Z" fill="#66B821"/>
<path d="M1390.83 6.47632C1390.67 6.47632 1390.51 6.47632 1390.36 6.47632C1390.2 6.47632 1390.2 6.6344 1390.04 6.79249C1389.88 7.10865 1389.72 7.42482 1389.41 7.74098C1390.04 7.5829 1390.51 7.5829 1391.14 7.42482H1391.3C1391.46 7.42482 1391.46 7.74098 1391.62 7.74098C1391.78 7.89906 1392.09 7.74098 1392.25 7.74098C1393.83 6.79249 1391.46 6.6344 1390.83 6.47632Z" fill="#66B821"/>
<path d="M1454.11 1.57583C1453.8 1.41775 1453.64 1.892 1453.64 2.20816C1453.8 2.52433 1454.11 2.52433 1454.43 2.68241C1454.59 2.20816 1454.43 1.73392 1454.11 1.57583Z" fill="#66B821"/>
<path d="M1394.3 10.7445C1394.46 10.9026 1394.46 11.0607 1394.3 11.0607C1394.14 11.2188 1393.99 11.2188 1393.99 11.2188C1393.83 11.2188 1393.83 11.2188 1393.67 11.2188C1393.51 11.0607 1393.35 10.9026 1393.51 10.7445C1393.67 10.5864 1393.83 10.5864 1393.99 10.5864C1394.14 10.7445 1394.14 10.9026 1394.14 11.0607L1394.3 10.7445Z" fill="#66B821"/>
<path d="M1388.15 30.5048C1388.3 30.6628 1388.3 30.8209 1388.15 30.8209C1387.99 30.979 1387.83 30.979 1387.83 30.979C1387.67 30.979 1387.67 30.979 1387.51 30.979C1387.36 30.8209 1387.2 30.6628 1387.36 30.5048C1387.51 30.3467 1387.67 30.3467 1387.83 30.3467C1387.99 30.5048 1387.99 30.6628 1387.99 30.8209L1388.15 30.5048Z" fill="#66B821"/>
<path d="M1394.46 8.84759C1394.62 8.53143 1394.3 8.21526 1393.99 8.37335C1393.99 8.53143 1393.99 8.68951 1393.99 8.84759C1393.99 9.00568 1394.14 9.16376 1394.3 9.16376C1394.46 9.16376 1394.62 9.00568 1394.46 8.84759Z" fill="#66B821"/>
<path d="M1397.14 13.9062C1397.3 14.0643 1397.46 14.2224 1397.3 14.5386C1397.3 14.6967 1397.14 14.8547 1396.83 15.0128C1396.67 15.0128 1396.51 15.0128 1396.51 14.8547V14.6967C1396.83 14.2224 1396.83 14.0643 1397.14 13.9062Z" fill="#66B821"/>
<path d="M1392.72 16.2773C1392.72 16.5935 1393.04 16.5935 1393.35 16.7516C1393.67 16.7516 1393.99 16.9097 1393.99 17.0678V17.2258C1393.83 17.3839 1393.67 17.2258 1393.51 17.2258C1393.35 17.2258 1393.2 17.2258 1393.04 17.2258C1392.72 17.2258 1392.25 17.0678 1392.25 16.7516C1392.25 16.5935 1392.41 16.4354 1392.56 16.2773C1392.72 16.2773 1392.88 16.2773 1393.04 16.4354L1392.72 16.2773Z" fill="#66B821"/>
<path d="M1390.83 18.0164C1390.83 18.1745 1390.67 18.1745 1390.67 18.3326C1390.67 18.4907 1390.99 18.6488 1391.14 18.4907C1391.3 18.4907 1391.46 18.1745 1391.3 18.1745C1391.14 18.1745 1390.83 17.8583 1390.83 18.0164Z" fill="#66B821"/>
<path d="M1393.51 24.6558C1393.51 24.8139 1393.35 24.8139 1393.35 24.972C1393.35 25.1301 1393.67 25.2882 1393.83 25.1301C1393.99 25.1301 1394.14 24.8139 1393.99 24.8139C1393.99 24.4978 1393.67 24.4978 1393.51 24.6558Z" fill="#66B821"/>
<path d="M1455.22 11.535C1455.37 11.6931 1455.53 11.535 1455.69 11.2188C1455.69 11.0607 1455.69 10.7446 1455.69 10.5865C1455.69 10.4284 1455.85 10.1123 1456.01 10.1123C1456.16 10.1123 1456.16 9.95417 1456.32 10.1123L1456.48 10.2703C1456.64 10.5865 1456.8 10.9027 1456.8 11.3769C1456.8 11.6931 1456.64 12.1673 1456.16 12.3254C1455.85 12.4835 1455.53 12.3254 1455.37 12.1673C1455.22 12.0092 1455.06 11.6931 1455.22 11.535Z" fill="#66B821"/>
<path d="M1394.93 18.9648C1395.09 18.9648 1395.09 18.9648 1395.25 19.1229C1395.25 19.281 1395.25 19.281 1395.25 19.4391C1395.25 19.5972 1395.25 19.5972 1395.09 19.7553C1394.93 19.9133 1394.77 19.9133 1394.62 19.7553C1394.46 19.5972 1394.46 19.4391 1394.46 19.281C1394.46 19.1229 1394.46 19.1229 1394.62 19.1229C1394.62 19.1229 1394.77 19.1229 1394.93 19.1229V18.9648Z" fill="#66B821"/>
<path d="M1391.78 9.63794C1391.62 9.63794 1391.62 9.63794 1391.46 9.63794C1391.46 9.79602 1391.46 9.95411 1391.46 10.1122C1391.62 10.2703 1391.78 10.2703 1391.93 10.1122V9.95411C1391.93 9.79602 1391.78 9.63794 1391.78 9.32178V9.63794Z" fill="#66B821"/>
<path d="M1377.41 78.5619C1377.26 78.4038 1376.94 78.4038 1376.63 78.4038C1376.31 78.4038 1376.15 78.5619 1375.99 78.72C1375.99 78.8781 1375.99 79.0361 1375.99 79.0361C1376.15 79.3523 1376.63 79.6685 1376.94 79.5104C1377.26 79.5104 1377.57 79.0361 1377.41 78.5619Z" fill="#66B821"/>
<path d="M1396.19 91.2085C1396.04 91.2085 1395.88 91.2085 1395.72 91.2085C1395.72 91.3666 1395.72 91.5247 1395.72 91.6827C1396.04 91.6827 1396.35 91.5247 1396.19 91.2085Z" fill="#66B821"/>
<path d="M1606.72 144.324C1605.93 143.692 1604.67 143.534 1603.72 143.85C1603.56 144.957 1603.72 146.063 1604.51 146.695C1605.3 147.486 1606.72 147.486 1607.35 146.695C1607.98 145.905 1607.35 144.324 1606.24 144.482L1606.72 144.324Z" fill="#66B821"/>
<path d="M1592.67 138.001C1592.36 137.685 1591.73 137.527 1591.25 137.685C1591.25 137.843 1591.41 138.159 1591.41 138.317C1591.41 138.475 1591.73 138.633 1592.04 138.633C1592.36 138.633 1592.52 138.317 1592.67 138.001C1592.67 138.001 1592.67 138.159 1592.67 138.001Z" fill="#66B821"/>
<path d="M1530.65 99.7449C1530.34 99.4287 1529.71 99.2706 1529.23 99.4287C1529.23 99.5868 1529.39 99.903 1529.39 100.061C1529.55 100.219 1529.71 100.377 1530.02 100.377C1530.34 100.219 1530.49 99.903 1530.65 99.7449Z" fill="#66B821"/>
<path d="M1589.99 140.214C1589.83 140.214 1589.67 140.214 1589.52 140.214C1589.36 140.214 1589.36 140.372 1589.2 140.53C1589.04 140.846 1588.89 141.163 1588.57 141.479C1589.2 141.321 1589.67 141.321 1590.31 141.163H1590.46C1590.62 141.163 1590.62 141.479 1590.78 141.479C1590.94 141.637 1591.25 141.479 1591.41 141.479C1592.99 140.372 1590.62 140.372 1589.99 140.214Z" fill="#66B821"/>
<path d="M1598.04 140.53C1598.2 140.53 1598.35 140.53 1598.51 140.53C1598.35 140.847 1597.88 141.005 1597.57 141.005C1597.41 141.005 1597.09 141.005 1596.93 140.847C1596.93 140.688 1596.93 140.53 1596.93 140.372C1596.93 140.056 1596.62 139.74 1596.78 139.582C1596.93 139.424 1597.09 139.424 1597.25 139.424C1597.41 139.424 1597.57 139.582 1597.57 139.74C1597.72 140.056 1598.04 140.372 1598.2 140.688L1598.04 140.53Z" fill="#66B821"/>
<path d="M1599.77 146.063C1599.46 145.905 1599.3 146.379 1599.3 146.695C1599.46 147.012 1599.77 147.012 1600.09 147.17C1600.25 146.695 1600.09 146.221 1599.77 146.063Z" fill="#66B821"/>
<path d="M1593.46 144.482C1593.62 144.64 1593.62 144.798 1593.46 144.798C1593.3 144.957 1593.15 144.957 1593.15 144.957C1592.99 144.957 1592.99 144.957 1592.83 144.957C1592.67 144.798 1592.51 144.64 1592.67 144.482C1592.83 144.324 1592.99 144.324 1593.15 144.324C1593.3 144.482 1593.3 144.64 1593.3 144.798L1593.46 144.482Z" fill="#66B821"/>
<path d="M1593.62 142.427C1593.78 142.111 1593.46 141.795 1593.15 141.953C1593.15 142.111 1593.15 142.269 1593.15 142.427C1593.15 142.586 1593.3 142.744 1593.46 142.744C1593.62 142.744 1593.78 142.586 1593.62 142.427Z" fill="#66B821"/>
<path d="M1508.87 98.3222C1509.03 98.006 1508.72 97.6899 1508.4 97.848C1508.4 98.006 1508.4 98.1641 1508.4 98.3222C1508.4 98.4803 1508.56 98.6384 1508.72 98.6384C1508.87 98.6384 1509.03 98.4803 1508.87 98.3222Z" fill="#66B821"/>
<path d="M1595.04 135.788C1594.88 135.472 1594.41 135.314 1594.09 135.314C1594.09 135.63 1594.09 135.946 1594.09 136.262C1594.09 136.42 1594.09 136.578 1594.25 136.736C1594.41 136.895 1594.72 137.053 1595.04 136.736C1595.36 136.42 1595.2 136.104 1595.04 135.788Z" fill="#66B821"/>
<path d="M1596.3 147.644C1596.46 147.802 1596.62 147.96 1596.46 148.276C1596.46 148.434 1596.3 148.592 1595.99 148.751C1595.83 148.751 1595.67 148.751 1595.67 148.592V148.434C1595.99 147.96 1595.99 147.802 1596.3 147.644C1596.3 147.486 1596.3 147.644 1596.3 147.644Z" fill="#66B821"/>
<path d="M1591.88 150.015C1591.88 150.332 1592.2 150.332 1592.52 150.49C1592.83 150.49 1593.15 150.648 1593.15 150.806V150.964C1592.99 151.122 1592.83 150.964 1592.67 150.964C1592.52 150.964 1592.36 150.964 1592.2 150.964C1591.88 150.964 1591.41 150.806 1591.41 150.49C1591.41 150.332 1591.57 150.173 1591.73 150.015C1591.88 150.015 1592.04 150.015 1592.2 150.173L1591.88 150.015Z" fill="#66B821"/>
<path d="M1589.99 151.754C1589.99 151.912 1589.83 151.912 1589.83 152.07C1589.83 152.228 1590.15 152.387 1590.31 152.228C1590.46 152.228 1590.62 151.912 1590.46 151.912C1590.31 151.596 1589.99 151.596 1589.99 151.754Z" fill="#66B821"/>
<path d="M1592.67 158.394C1592.67 158.552 1592.52 158.552 1592.52 158.71C1592.52 158.868 1592.83 159.026 1592.99 158.868C1593.15 158.868 1593.3 158.552 1593.15 158.552C1593.15 158.236 1592.83 158.236 1592.67 158.394Z" fill="#66B821"/>
<path d="M1593.62 140.214C1593.78 140.372 1593.94 140.214 1594.09 139.898C1594.09 139.74 1594.09 139.424 1594.09 139.266C1594.09 139.108 1594.25 138.791 1594.41 138.791C1594.57 138.791 1594.57 138.633 1594.72 138.791L1594.88 138.95C1595.04 139.266 1595.2 139.582 1595.2 140.056C1595.2 140.372 1595.04 140.847 1594.57 141.005C1594.25 141.163 1593.94 141.005 1593.78 140.847C1593.78 140.847 1593.62 140.53 1593.62 140.214Z" fill="#66B821"/>
<path d="M1590.31 136.262C1590.15 136.104 1589.83 136.104 1589.67 136.262C1589.52 136.42 1589.36 136.736 1589.52 136.894C1589.52 137.053 1589.67 137.053 1589.67 137.053C1589.67 137.053 1589.83 137.053 1589.83 136.894C1589.99 136.736 1590.15 136.42 1590.31 136.262Z" fill="#66B821"/>
<path d="M1602.3 142.585C1602.62 143.06 1602.3 143.692 1601.83 143.692C1601.67 143.376 1601.51 142.902 1601.67 142.585C1601.67 142.269 1602.14 141.795 1602.46 141.953C1602.62 142.111 1602.62 142.427 1602.77 142.585H1602.3Z" fill="#66B821"/>
<path d="M1594.09 152.703C1594.25 152.703 1594.25 152.703 1594.41 152.861C1594.41 153.019 1594.41 153.019 1594.41 153.177C1594.41 153.335 1594.41 153.335 1594.25 153.493C1594.09 153.651 1593.94 153.651 1593.78 153.493C1593.62 153.335 1593.62 153.177 1593.62 153.019C1593.62 152.861 1593.62 152.861 1593.78 152.861C1593.78 152.861 1593.94 152.861 1594.09 152.861V152.703Z" fill="#66B821"/>
<path d="M1590.94 143.376C1590.78 143.376 1590.78 143.376 1590.62 143.376C1590.62 143.534 1590.62 143.692 1590.62 143.85C1590.78 144.008 1590.94 144.008 1591.09 143.85V143.692C1591.09 143.534 1590.94 143.376 1590.94 143.06V143.376Z" fill="#66B821"/>
<path d="M1590.46 131.836C1590.31 131.678 1589.99 131.678 1589.67 131.678C1589.36 131.678 1589.2 131.836 1589.04 131.994C1589.04 132.152 1589.04 132.31 1589.04 132.31C1589.2 132.626 1589.67 132.942 1589.99 132.784C1590.46 132.784 1590.62 132.31 1590.46 131.836Z" fill="#66B821"/>
<path d="M1609.4 144.482C1609.24 144.482 1609.09 144.482 1608.93 144.482C1608.93 144.641 1608.93 144.799 1608.93 144.957C1609.09 144.957 1609.4 144.799 1609.4 144.482Z" fill="#66B821"/>
<path d="M1441.8 101.642C1440.54 100.377 1438.8 99.429 1437.07 98.9547C1436.75 98.7966 1436.44 98.7966 1436.28 98.7966C1435.65 98.7966 1435.33 99.429 1435.02 99.9032C1434.39 101.168 1434.86 102.749 1435.81 103.697C1436.75 104.646 1438.33 104.962 1439.75 104.646C1440.54 104.488 1441.17 104.171 1441.65 103.539C1442.12 102.907 1441.96 101.958 1441.49 101.484C1441.17 101.484 1441.17 101.8 1441.33 102.116L1441.8 101.642Z" fill="#66B821"/>
<path d="M1451.43 47.1035C1450.64 46.4712 1449.38 46.3131 1448.43 46.6293C1448.27 47.7359 1448.43 48.8424 1449.22 49.4748C1450.01 50.1071 1451.43 50.2652 1452.06 49.4748C1452.69 48.6843 1452.06 47.1035 1450.96 47.2616L1451.43 47.1035Z" fill="#66B821"/>
<path d="M1485.99 8.53126C1485.2 7.89893 1483.94 7.74084 1482.99 8.05701C1482.83 9.16359 1482.99 10.2702 1483.78 10.9025C1484.57 11.6929 1485.99 11.6929 1486.62 10.9025C1487.25 10.1121 1486.62 8.53126 1485.52 8.68934L1485.99 8.53126Z" fill="#66B821"/>
<path d="M1437.38 40.7803C1437.07 40.4641 1436.44 40.306 1435.96 40.4641C1435.96 40.6222 1436.12 40.9384 1436.12 41.0964C1436.28 41.2545 1436.44 41.4126 1436.75 41.4126C1437.07 41.4126 1437.23 40.9384 1437.38 40.7803C1437.23 40.7803 1437.38 40.9384 1437.38 40.7803Z" fill="#66B821"/>
<path d="M1434.7 42.9934C1434.54 42.9934 1434.39 42.9934 1434.23 42.9934C1434.07 42.9934 1434.07 43.1515 1433.91 43.3096C1433.75 43.6257 1433.6 43.9419 1433.28 44.2581C1433.91 44.1 1434.39 44.1 1435.02 43.9419H1435.17C1435.33 43.9419 1435.33 44.2581 1435.49 44.2581C1435.65 44.4161 1435.96 44.2581 1436.12 44.2581C1437.7 43.1515 1435.33 43.1515 1434.7 42.9934Z" fill="#66B821"/>
<path d="M1427.76 33.6664C1427.6 33.6664 1427.44 33.6664 1427.28 33.6664C1427.28 33.9826 1427.6 34.2987 1427.92 34.2987C1428.23 34.2987 1428.55 33.9826 1428.39 33.6664C1428.23 33.5083 1428.07 33.1921 1428.23 33.1921L1427.76 33.6664Z" fill="#66B821"/>
<path d="M1442.75 43.3095C1442.91 43.3095 1443.07 43.3095 1443.22 43.3095C1443.07 43.6256 1442.59 43.7837 1442.28 43.7837C1442.12 43.7837 1441.8 43.7837 1441.65 43.6256C1441.65 43.4675 1441.65 43.3095 1441.65 43.1514C1441.65 42.8352 1441.33 42.519 1441.49 42.361C1441.64 42.2029 1441.8 42.2029 1441.96 42.2029C1442.12 42.2029 1442.28 42.361 1442.28 42.519C1442.43 42.8352 1442.75 43.1514 1442.91 43.4675L1442.75 43.3095Z" fill="#66B821"/>
<path d="M1444.33 48.8424C1444.01 48.6844 1443.85 49.1586 1443.85 49.4748C1444.01 49.7909 1444.33 49.7909 1444.64 49.949C1444.96 49.4748 1444.8 49.0005 1444.33 48.8424Z" fill="#66B821"/>
<path d="M1438.02 47.2616C1438.17 47.4197 1438.17 47.5778 1438.02 47.5778C1437.86 47.7358 1437.7 47.7358 1437.7 47.7358C1437.54 47.7358 1437.54 47.7358 1437.38 47.7358C1437.23 47.5778 1437.07 47.4197 1437.23 47.2616C1437.38 47.1035 1437.54 47.1035 1437.7 47.1035C1437.86 47.1035 1437.86 47.4197 1437.86 47.5778L1438.02 47.2616Z" fill="#66B821"/>
<path d="M1438.33 45.2065C1438.49 44.8903 1438.17 44.5742 1437.86 44.7322C1437.86 44.8903 1437.86 45.0484 1437.86 45.2065C1437.86 45.3646 1438.02 45.5227 1438.17 45.5227C1438.33 45.5227 1438.49 45.3646 1438.33 45.2065Z" fill="#66B821"/>
<path d="M1430.12 26.2365C1430.28 25.9203 1429.97 25.6042 1429.65 25.7623C1429.65 25.9203 1429.65 26.0784 1429.65 26.2365C1429.65 26.3946 1429.81 26.5527 1429.97 26.5527C1430.12 26.5527 1430.28 26.3946 1430.12 26.2365Z" fill="#66B821"/>
<path d="M1439.75 38.567C1439.59 38.2509 1439.12 38.0928 1438.8 38.0928C1438.8 38.4089 1438.8 38.7251 1438.8 39.0413C1438.8 39.1994 1438.8 39.3574 1438.96 39.5155C1439.12 39.6736 1439.44 39.8317 1439.75 39.5155C1439.91 39.1994 1439.91 38.8832 1439.75 38.567Z" fill="#66B821"/>
<path d="M1441.01 50.4233C1441.17 50.5814 1441.33 50.7395 1441.17 51.0556C1441.17 51.2137 1441.01 51.3718 1440.7 51.5299C1440.54 51.5299 1440.38 51.5299 1440.38 51.3718V51.2137C1440.54 50.7395 1440.7 50.5814 1441.01 50.4233C1440.86 50.2652 1441.01 50.4233 1441.01 50.4233Z" fill="#66B821"/>
<path d="M1440.07 54.5334C1439.91 54.6914 1439.91 55.0076 1440.07 55.3238C1440.22 55.6399 1440.22 55.798 1440.07 56.1142L1439.91 56.2723C1439.75 56.2723 1439.75 55.9561 1439.59 55.798C1439.59 55.6399 1439.44 55.6399 1439.28 55.4818C1439.12 55.1657 1438.96 54.8495 1439.28 54.5334C1439.44 54.3753 1439.59 54.3753 1439.75 54.5334C1439.91 54.6914 1439.91 54.8495 1439.91 55.0076L1440.07 54.5334Z" fill="#66B821"/>
<path d="M1487.25 50.4232C1487.1 50.5813 1487.1 50.8975 1487.25 51.2137C1487.41 51.5298 1487.41 51.6879 1487.25 52.0041L1487.1 52.1622C1486.94 52.1622 1486.94 51.846 1486.78 51.6879C1486.78 51.5298 1486.62 51.5298 1486.46 51.3717C1486.31 51.0556 1486.15 50.7394 1486.46 50.4232C1486.62 50.2652 1486.78 50.2652 1486.94 50.4232C1487.1 50.5813 1487.1 50.7394 1487.1 50.8975L1487.25 50.4232Z" fill="#66B821"/>
<path d="M1437.54 53.9011C1437.38 53.9011 1437.38 53.9011 1437.23 53.9011C1437.07 54.0592 1437.23 54.2173 1437.23 54.3754C1437.38 54.5335 1437.54 54.5335 1437.7 54.3754C1437.86 54.0592 1437.7 53.9011 1437.54 53.9011Z" fill="#66B821"/>
<path d="M1433.75 59.9082C1433.6 59.9082 1433.6 59.9082 1433.44 59.9082C1433.28 60.0663 1433.44 60.2244 1433.44 60.3825C1433.6 60.5405 1433.75 60.5405 1433.91 60.3825C1433.91 60.0663 1433.91 59.9082 1433.75 59.9082Z" fill="#66B821"/>
<path d="M1438.33 42.9933C1438.49 43.1513 1438.65 42.9932 1438.8 42.6771C1438.8 42.519 1438.8 42.2028 1438.8 42.0448C1438.8 41.8867 1438.96 41.5705 1439.12 41.5705C1439.28 41.5705 1439.28 41.4124 1439.44 41.5705L1439.59 41.7286C1439.75 42.0447 1439.91 42.3609 1439.91 42.8352C1439.91 43.1513 1439.75 43.6256 1439.28 43.7837C1438.96 43.9417 1438.65 43.7837 1438.49 43.6256C1438.33 43.4675 1438.33 43.3094 1438.33 42.9933Z" fill="#66B821"/>
<path d="M1435.02 38.8832C1434.86 38.7251 1434.54 38.7251 1434.39 38.8832C1434.23 39.0413 1434.07 39.3575 1434.23 39.5155C1434.23 39.6736 1434.39 39.6736 1434.39 39.6736C1434.39 39.6736 1434.54 39.6736 1434.54 39.5155C1434.7 39.5155 1434.86 39.1994 1435.02 38.8832Z" fill="#66B821"/>
<path d="M1447.01 45.3647C1447.33 45.8389 1447.01 46.4712 1446.54 46.4712C1446.38 46.1551 1446.22 45.6808 1446.38 45.3647C1446.38 45.0485 1446.85 44.5742 1447.17 44.7323C1447.33 44.8904 1447.33 45.2066 1447.48 45.3647H1447.01Z" fill="#66B821"/>
<path d="M1439.12 57.8532C1439.28 57.8532 1439.28 58.0112 1439.12 58.1693C1439.12 58.3274 1438.96 58.3274 1438.8 58.3274C1438.65 58.3274 1438.65 58.3274 1438.49 58.3274C1438.33 58.3274 1438.17 58.1693 1438.17 57.8532C1438.17 57.6951 1438.33 57.537 1438.49 57.3789C1438.65 57.3789 1438.65 57.3789 1438.8 57.3789C1438.96 57.3789 1438.96 57.537 1438.96 57.537L1439.12 57.8532Z" fill="#66B821"/>
<path d="M1435.65 46.155C1435.49 46.155 1435.49 46.155 1435.33 46.155C1435.33 46.3131 1435.33 46.4712 1435.33 46.6293C1435.49 46.7874 1435.65 46.7874 1435.81 46.6293V46.4712C1435.81 46.3131 1435.65 46.155 1435.65 45.8389V46.155Z" fill="#66B821"/>
<path d="M1435.17 34.6149C1435.02 34.4568 1434.7 34.4568 1434.39 34.4568C1434.07 34.4568 1433.91 34.6149 1433.75 34.773C1433.75 34.931 1433.75 35.0891 1433.75 35.0891C1433.91 35.4053 1434.39 35.7214 1434.7 35.5634C1435.02 35.5634 1435.33 35.0891 1435.17 34.6149Z" fill="#66B821"/>
<path d="M1453.95 47.2617C1453.8 47.2617 1453.64 47.2617 1453.48 47.2617C1453.48 47.4198 1453.48 47.5779 1453.48 47.736C1453.8 47.736 1454.11 47.5779 1453.95 47.2617Z" fill="#66B821"/>
<path d="M1441.01 63.0698C1440.22 62.4375 1438.96 62.2794 1438.02 62.5956C1437.86 63.7022 1438.02 64.8087 1438.8 65.4411C1439.59 66.2315 1441.01 66.2315 1441.65 65.4411C1442.28 64.6506 1441.65 63.0698 1440.54 63.2279L1441.01 63.0698Z" fill="#66B821"/>
<path d="M1374.26 25.7623C1374.42 25.7623 1374.57 25.7623 1374.73 25.7623C1374.57 26.0785 1374.1 26.2366 1373.79 26.2366C1373.63 26.2366 1373.31 26.2366 1373.15 26.0785C1373.15 25.9204 1373.15 25.7623 1373.15 25.6043C1373.15 25.2881 1372.84 24.9719 1373 24.8138C1373.15 24.6558 1373.31 24.6558 1373.47 24.6558C1373.63 24.6558 1373.79 24.8138 1373.79 24.9719C1373.94 25.2881 1374.26 25.6043 1374.42 25.9204L1374.26 25.7623Z" fill="#66B821"/>
<path d="M1275.47 -0.163205C1275.62 -0.00512221 1275.62 0.152959 1275.47 0.152959C1275.31 0.311042 1275.15 0.311043 1275.15 0.311043C1274.99 0.311043 1274.99 0.311043 1274.84 0.311043C1274.68 0.15296 1274.52 -0.00512221 1274.68 -0.163205C1274.84 -0.321288 1274.99 -0.321289 1275.15 -0.321289C1275.31 -0.163206 1275.31 -0.00512403 1275.31 0.152959L1275.47 -0.163205Z" fill="#66B821"/>
<path d="M1413.08 42.5192C1412.77 42.3611 1412.61 42.8354 1412.61 43.1515C1412.77 43.4677 1413.08 43.4677 1413.4 43.6258C1413.71 43.1515 1413.55 42.6773 1413.08 42.5192Z" fill="#66B821"/>
<path d="M1427.6 63.2279C1427.76 63.386 1427.76 63.5441 1427.6 63.5441C1427.44 63.7022 1427.28 63.7022 1427.28 63.7022C1427.13 63.7022 1427.13 63.7022 1426.97 63.7022C1426.81 63.5441 1426.65 63.386 1426.81 63.2279C1426.97 63.0698 1427.13 63.0698 1427.28 63.0698C1427.44 63.2279 1427.44 63.386 1427.44 63.5441L1427.6 63.2279Z" fill="#66B821"/>
<path d="M1430.44 66.3896C1430.6 66.5477 1430.76 66.7058 1430.6 67.022C1430.6 67.1801 1430.44 67.3382 1430.12 67.4962C1429.97 67.4962 1429.81 67.4962 1429.81 67.3382V67.1801C1430.12 66.7058 1430.28 66.5477 1430.44 66.3896Z" fill="#66B821"/>
<path d="M1483.62 55.798C1483.47 55.9561 1483.47 56.2723 1483.62 56.5884C1483.78 56.9046 1483.78 57.0627 1483.62 57.3788L1483.47 57.5369C1483.31 57.5369 1483.31 57.2207 1483.15 57.0627C1483.15 56.9046 1482.99 56.9046 1482.83 56.7465C1482.68 56.4303 1482.52 56.1142 1482.83 55.798C1482.99 55.6399 1483.15 55.6399 1483.31 55.798C1483.47 55.9561 1483.47 56.1142 1483.47 56.2723L1483.62 55.798Z" fill="#66B821"/>
<path d="M1427.13 69.8674C1426.97 69.8674 1426.97 69.8674 1426.81 69.8674C1426.65 70.0255 1426.81 70.1836 1426.81 70.3417C1426.97 70.4998 1427.13 70.4998 1427.28 70.3417C1427.28 70.1836 1427.28 69.8674 1427.13 69.8674Z" fill="#66B821"/>
<path d="M1423.18 75.8745C1423.02 75.8745 1423.02 75.8745 1422.87 75.8745C1422.71 76.0326 1422.87 76.1907 1422.87 76.3488C1423.02 76.5068 1423.18 76.5068 1423.34 76.3488C1423.5 76.1907 1423.34 75.8745 1423.18 75.8745Z" fill="#66B821"/>
<path d="M1436.59 61.4889C1436.91 61.9632 1436.6 62.5955 1436.12 62.5955C1435.96 62.2793 1435.81 61.8051 1435.96 61.4889C1435.96 61.1728 1436.44 60.6985 1436.75 60.8566C1436.91 61.0147 1436.91 61.3308 1437.07 61.4889H1436.59Z" fill="#66B821"/>
<path d="M1428.7 73.9777C1428.86 73.9777 1428.86 74.1358 1428.7 74.2938C1428.7 74.4519 1428.55 74.4519 1428.39 74.4519C1428.23 74.4519 1428.23 74.4519 1428.07 74.4519C1427.92 74.4519 1427.76 74.2938 1427.76 73.9777C1427.76 73.8196 1427.92 73.6615 1428.07 73.5034C1428.23 73.5034 1428.23 73.5034 1428.39 73.5034C1428.55 73.5034 1428.55 73.6615 1428.55 73.6615L1428.7 73.9777Z" fill="#66B821"/>
<path d="M1443.54 63.228C1443.38 63.228 1443.22 63.228 1443.07 63.228C1443.07 63.3861 1443.07 63.5442 1443.07 63.7023C1443.22 63.8604 1443.54 63.5442 1443.54 63.228Z" fill="#66B821"/>
<path d="M1419.71 64.0183C1419.55 64.0183 1419.39 64.0183 1419.24 64.0183C1419.24 64.1764 1419.24 64.3345 1419.24 64.4926C1419.55 64.4926 1419.87 64.3345 1419.71 64.0183Z" fill="#66B821"/>
<path d="M1486.15 199.337C1487.88 199.811 1489.78 199.969 1491.51 199.653C1491.83 199.653 1492.15 199.495 1492.3 199.337C1492.78 199.021 1492.93 198.389 1492.93 197.756C1492.93 196.334 1491.83 195.069 1490.57 194.753C1489.3 194.437 1487.73 194.753 1486.62 195.543C1485.99 196.017 1485.52 196.65 1485.52 197.44C1485.52 198.231 1485.83 199.021 1486.62 199.179C1486.78 199.021 1486.78 198.705 1486.46 198.547L1486.15 199.337Z" fill="#66B821"/>
<path d="M1482.83 171.989C1482.99 171.989 1483.15 171.989 1483.31 171.989C1483.47 171.989 1483.47 171.831 1483.62 171.673C1483.78 171.356 1483.94 171.04 1484.26 170.724C1483.62 170.882 1483.15 170.882 1482.52 171.04H1482.36C1482.2 171.04 1482.2 170.724 1482.05 170.724C1481.89 170.566 1481.57 170.566 1481.41 170.724C1479.84 171.673 1482.2 171.831 1482.83 171.989Z" fill="#66B821"/>
<path d="M1438.17 226.053C1438.02 225.895 1438.17 225.737 1438.33 225.737C1438.49 225.579 1438.65 225.579 1438.8 225.737C1438.96 225.737 1438.96 225.737 1438.96 225.895C1439.12 226.053 1439.12 226.211 1438.96 226.369C1438.8 226.527 1438.49 226.527 1438.49 226.369C1438.33 226.211 1438.33 226.053 1438.49 225.895L1438.17 226.053Z" fill="#66B821"/>
<path d="M1511.87 162.662C1511.71 162.504 1511.56 162.662 1511.4 162.82C1511.24 162.978 1511.24 163.136 1511.24 163.452C1511.24 163.611 1510.93 163.769 1510.77 163.927C1510.61 163.927 1510.45 163.927 1510.45 163.927L1510.29 163.769C1510.14 163.452 1510.14 162.978 1510.29 162.662C1510.45 162.346 1510.77 162.03 1511.08 161.872C1511.4 161.872 1511.56 162.03 1511.71 162.188C1512.03 162.188 1512.03 162.504 1511.87 162.662Z" fill="#66B821"/>
<path d="M1427.28 266.996C1427.13 266.838 1426.97 266.996 1426.81 267.155C1426.65 267.313 1426.65 267.471 1426.65 267.787C1426.65 267.945 1426.34 268.103 1426.18 268.261C1426.02 268.261 1425.86 268.261 1425.86 268.261L1425.71 268.103C1425.55 267.787 1425.55 267.313 1425.71 266.996C1425.86 266.68 1426.18 266.364 1426.49 266.206C1426.81 266.206 1426.97 266.364 1427.13 266.522C1427.28 266.522 1427.28 266.68 1427.28 266.996Z" fill="#66B821"/>
<path d="M1445.59 263.835C1445.75 263.993 1445.91 264.151 1446.22 264.309C1446.54 264.467 1446.85 264.309 1447.01 264.151C1447.17 263.993 1447.17 263.993 1447.17 263.835C1447.17 263.519 1446.85 263.044 1446.38 263.044C1445.91 263.044 1445.59 263.519 1445.59 263.835Z" fill="#66B821"/>
<path d="M1498.46 191.749C1499.4 193.33 1500.67 194.753 1502.09 195.701C1502.4 195.859 1502.56 196.017 1502.88 196.017C1503.51 196.175 1503.98 195.701 1504.3 195.385C1505.24 194.278 1505.24 192.698 1504.61 191.433C1503.98 190.168 1502.56 189.378 1501.14 189.378C1500.35 189.378 1499.56 189.378 1498.93 190.01C1498.3 190.484 1498.14 191.433 1498.46 192.065C1498.77 192.065 1498.93 191.749 1498.77 191.591L1498.46 191.749Z" fill="#66B821"/>
<path d="M980.355 22.7587C981.302 24.3395 982.565 25.7623 983.985 26.7108C984.301 26.8688 984.458 27.0269 984.774 27.0269C985.405 27.185 985.879 26.7108 986.194 26.3946C987.141 25.288 987.141 23.7072 986.51 22.4425C985.879 21.1779 984.458 20.3875 983.038 20.3875C982.249 20.3875 981.46 20.3875 980.829 21.0198C980.197 21.494 980.04 22.4425 980.355 23.0749C980.671 23.0749 980.829 22.7587 980.671 22.6006L980.355 22.7587Z" fill="#66B821"/>
<path d="M1524.02 145.747C1524.18 145.747 1524.34 145.905 1524.5 145.905C1524.66 145.905 1524.81 145.905 1524.81 145.747C1524.97 145.589 1524.66 145.273 1524.66 144.957C1524.66 144.64 1524.81 144.482 1524.81 144.166C1524.66 144.008 1524.34 143.85 1524.18 144.008C1524.02 144.166 1523.87 144.324 1523.87 144.64C1523.87 144.799 1523.71 145.115 1523.87 145.273C1524.02 145.431 1524.18 145.589 1524.34 145.589L1524.02 145.747Z" fill="#66B821"/>
<path d="M1500.98 206.451C1501.61 207.399 1502.56 207.874 1503.67 207.874C1504.14 206.925 1504.3 205.819 1503.67 204.87C1503.19 203.922 1501.77 203.447 1500.98 204.08C1500.19 204.712 1500.35 206.293 1501.3 206.451H1500.98Z" fill="#66B821"/>
<path d="M1434.7 217.516C1434.54 217.833 1434.7 218.149 1435.02 218.149C1435.17 217.991 1435.17 217.833 1435.17 217.675C1435.17 217.516 1435.02 217.358 1434.86 217.358C1434.86 217.358 1434.7 217.516 1434.7 217.516Z" fill="#66B821"/>
<path d="M1501.14 136.736C1502.09 138.317 1503.35 139.74 1504.77 140.688C1505.09 140.846 1505.24 141.004 1505.56 141.004C1506.19 141.163 1506.66 140.688 1506.98 140.372C1507.93 139.266 1507.93 137.685 1507.3 136.42C1506.66 135.155 1505.24 134.365 1503.82 134.365C1503.03 134.365 1502.25 134.365 1501.61 134.997C1500.98 135.472 1500.83 136.42 1501.14 137.052C1501.46 137.052 1501.61 136.736 1501.46 136.578L1501.14 136.736Z" fill="#66B821"/>
<path d="M1475.89 186.058C1476.52 187.007 1477.47 187.481 1478.57 187.481C1479.05 186.532 1479.2 185.426 1478.57 184.477C1478.1 183.529 1476.68 183.055 1475.89 183.687C1475.1 184.319 1475.26 185.9 1476.21 186.058H1475.89Z" fill="#66B821"/>
<path d="M1487.41 196.175C1487.73 196.65 1488.2 196.808 1488.67 196.808C1488.67 196.65 1488.67 196.334 1488.67 196.175C1488.67 196.017 1488.52 195.701 1488.2 195.701C1487.88 195.859 1487.73 196.175 1487.41 196.175C1487.57 196.334 1487.57 196.175 1487.41 196.175Z" fill="#66B821"/>
<path d="M1490.73 194.911C1490.88 194.911 1491.04 195.069 1491.04 195.069C1491.2 195.069 1491.2 194.911 1491.36 194.911C1491.67 194.595 1491.83 194.437 1492.15 194.278C1491.51 194.278 1490.88 194.12 1490.41 194.12H1490.25C1490.09 193.962 1490.09 193.804 1490.09 193.646C1489.94 193.488 1489.62 193.488 1489.46 193.488C1487.88 193.804 1490.09 194.595 1490.73 194.911Z" fill="#66B821"/>
<path d="M1483.15 192.223C1482.99 192.223 1482.83 192.223 1482.68 192.065C1482.99 191.749 1483.31 191.749 1483.78 191.907C1483.94 191.907 1484.25 192.065 1484.25 192.223C1484.25 192.382 1484.25 192.54 1484.25 192.698C1484.25 193.014 1484.41 193.33 1484.25 193.488C1484.1 193.646 1483.94 193.488 1483.78 193.488C1483.62 193.33 1483.62 193.172 1483.47 193.014C1483.31 192.698 1483.15 192.382 1483.15 192.065V192.223Z" fill="#66B821"/>
<path d="M1483.15 186.532C1483.31 186.69 1483.78 186.374 1483.78 186.058C1483.78 185.742 1483.47 185.584 1483.15 185.426C1482.83 185.742 1482.83 186.216 1483.15 186.532Z" fill="#66B821"/>
<path d="M1488.67 189.852C1488.52 189.694 1488.67 189.536 1488.83 189.536C1488.99 189.378 1489.15 189.378 1489.3 189.536C1489.46 189.536 1489.46 189.536 1489.46 189.694C1489.62 189.852 1489.62 190.01 1489.46 190.168C1489.3 190.326 1488.99 190.326 1488.99 190.168C1488.83 190.01 1488.83 189.852 1488.99 189.694L1488.67 189.852Z" fill="#66B821"/>
<path d="M1487.88 191.749C1487.73 192.065 1487.88 192.381 1488.2 192.381C1488.36 192.223 1488.36 192.065 1488.36 191.907C1488.36 191.749 1488.2 191.591 1488.04 191.591C1487.88 191.591 1487.88 191.749 1487.88 191.749Z" fill="#66B821"/>
<path d="M1484.57 197.598C1484.73 197.914 1484.89 198.23 1485.36 198.388C1485.52 198.072 1485.52 197.756 1485.68 197.598C1485.68 197.44 1485.68 197.282 1485.68 197.124C1485.68 196.808 1485.2 196.808 1485.04 196.808C1484.57 196.966 1484.57 197.282 1484.57 197.598Z" fill="#66B821"/>
<path d="M1486.94 186.058C1486.78 185.9 1486.78 185.584 1486.94 185.426C1487.1 185.268 1487.25 185.11 1487.41 185.11C1487.57 185.11 1487.73 185.268 1487.73 185.426C1487.73 185.426 1487.73 185.584 1487.57 185.584C1487.25 185.742 1487.1 185.9 1486.94 186.058Z" fill="#66B821"/>
<path d="M1488.83 182.422C1489.15 182.264 1489.15 181.948 1489.15 181.79C1489.15 181.632 1489.15 181.158 1489.3 181H1489.46C1489.62 181 1489.62 181.316 1489.62 181.474C1489.62 181.632 1489.78 181.79 1489.78 181.948C1489.94 182.264 1489.78 182.738 1489.46 182.896C1489.3 182.896 1489.15 182.897 1488.99 182.738C1488.83 182.58 1488.83 182.422 1488.99 182.264L1488.83 182.422Z" fill="#66B821"/>
<path d="M1441.33 269.842C1441.65 269.684 1441.65 269.368 1441.65 269.21C1441.65 268.893 1441.65 268.577 1441.8 268.419H1441.96C1442.12 268.419 1442.12 268.735 1442.12 268.893C1442.12 269.052 1442.28 269.21 1442.28 269.368C1442.43 269.684 1442.28 270.158 1441.96 270.316C1441.8 270.316 1441.65 270.316 1441.49 270.158C1441.33 270 1441.33 269.842 1441.49 269.684L1441.33 269.842Z" fill="#66B821"/>
<path d="M1491.2 183.687C1491.36 183.687 1491.36 183.687 1491.51 183.845C1491.67 183.687 1491.67 183.529 1491.51 183.371C1491.36 183.213 1491.2 183.213 1491.04 183.213C1490.88 183.371 1491.04 183.687 1491.2 183.687Z" fill="#66B821"/>
<path d="M1496.56 179.102C1496.72 179.102 1496.72 179.102 1496.88 179.261C1497.04 179.102 1497.04 178.944 1496.88 178.786C1496.72 178.628 1496.56 178.628 1496.41 178.628C1496.41 178.786 1496.41 178.944 1496.56 179.102Z" fill="#66B821"/>
<path d="M1487.25 193.804C1487.1 193.646 1486.94 193.804 1486.78 193.962C1486.62 194.12 1486.62 194.278 1486.62 194.594C1486.62 194.753 1486.31 194.911 1486.15 195.069C1485.99 195.069 1485.83 195.069 1485.83 195.069L1485.68 194.911C1485.52 194.594 1485.52 194.12 1485.68 193.804C1485.83 193.488 1486.15 193.172 1486.46 193.014C1486.78 193.014 1486.94 193.172 1487.1 193.33C1487.25 193.33 1487.25 193.646 1487.25 193.804Z" fill="#66B821"/>
<path d="M1489.15 198.705C1489.3 198.863 1489.46 199.021 1489.78 198.863C1489.94 198.705 1490.09 198.547 1490.09 198.23C1490.09 198.072 1490.09 197.914 1489.94 197.914H1489.78C1489.62 198.389 1489.3 198.547 1489.15 198.705Z" fill="#66B821"/>
<path d="M1479.52 189.062C1479.36 188.588 1479.84 188.113 1480.31 188.113C1480.31 188.429 1480.31 188.904 1480.15 189.22C1479.99 189.536 1479.52 189.852 1479.2 189.536C1479.2 189.378 1479.05 189.062 1479.05 188.904L1479.52 189.062Z" fill="#66B821"/>
<path d="M1490.88 179.419C1490.73 179.419 1490.88 179.261 1490.88 179.102C1491.04 179.102 1491.04 178.944 1491.2 178.944C1491.36 178.944 1491.36 178.944 1491.51 178.944C1491.67 179.102 1491.67 179.261 1491.67 179.419C1491.67 179.577 1491.51 179.735 1491.2 179.735C1491.04 179.735 1491.04 179.735 1490.88 179.735C1490.88 179.735 1490.73 179.577 1490.88 179.419Z" fill="#66B821"/>
<path d="M1490.73 191.591C1490.88 191.591 1490.88 191.591 1491.04 191.749C1491.04 191.591 1491.2 191.433 1491.2 191.275C1491.2 191.117 1490.88 190.959 1490.88 191.117V191.275C1490.88 191.433 1490.88 191.591 1490.88 191.907L1490.73 191.591Z" fill="#66B821"/>
<path d="M1473.52 185.268C1473.68 185.268 1473.84 185.268 1474 185.426C1474 185.268 1474 185.11 1474 184.951C1473.84 184.793 1473.52 184.793 1473.52 185.268Z" fill="#66B821"/>
<path d="M1490.57 173.886C1491.2 174.834 1492.15 175.308 1493.25 175.308C1493.72 174.36 1493.88 173.253 1493.25 172.305C1492.62 171.356 1491.36 170.882 1490.57 171.514C1489.78 172.147 1489.94 173.728 1490.88 173.886H1490.57Z" fill="#66B821"/>
<path d="M1503.35 177.68C1503.19 177.522 1503.35 177.364 1503.51 177.364C1503.67 177.206 1503.82 177.206 1503.98 177.364C1504.14 177.364 1504.14 177.364 1504.14 177.522C1504.3 177.68 1504.3 177.838 1504.14 177.996C1503.98 178.154 1503.67 178.154 1503.67 177.996C1503.51 177.838 1503.51 177.68 1503.67 177.522L1503.35 177.68Z" fill="#66B821"/>
<path d="M1501.61 173.728C1501.46 173.57 1501.46 173.254 1501.61 173.095C1501.77 172.937 1501.93 172.779 1502.09 172.779C1502.25 172.779 1502.4 172.937 1502.4 173.095C1502.4 173.095 1502.4 173.254 1502.25 173.254C1502.09 173.57 1501.93 173.728 1501.61 173.728C1501.61 173.886 1501.61 173.886 1501.61 173.728Z" fill="#66B821"/>
<path d="M1446.38 265.574C1446.7 265.416 1446.7 265.099 1446.7 264.941C1446.7 264.625 1446.7 264.309 1446.85 264.151H1447.01C1447.17 264.151 1447.17 264.467 1447.17 264.625C1447.17 264.783 1447.33 264.941 1447.33 265.099C1447.48 265.416 1447.33 265.89 1447.01 266.048C1446.85 266.048 1446.7 266.048 1446.54 265.89C1446.38 265.732 1446.38 265.574 1446.54 265.416L1446.38 265.574Z" fill="#66B821"/>
<path d="M1505.88 171.515C1506.03 171.515 1506.03 171.515 1506.19 171.673C1506.35 171.515 1506.35 171.356 1506.19 171.198C1506.03 171.04 1505.88 171.04 1505.72 171.04C1505.72 171.198 1505.72 171.356 1505.88 171.515Z" fill="#66B821"/>
<path d="M1511.4 166.93C1511.56 166.93 1511.56 166.93 1511.71 167.088C1511.87 166.93 1511.87 166.772 1511.71 166.614C1511.56 166.456 1511.4 166.456 1511.24 166.456C1511.08 166.614 1511.08 166.772 1511.4 166.93Z" fill="#66B821"/>
<path d="M1494.35 176.731C1494.2 176.257 1494.67 175.783 1495.14 175.783C1495.14 176.099 1495.14 176.573 1494.99 176.889C1494.83 177.205 1494.35 177.522 1494.04 177.205C1494.04 177.047 1493.88 176.731 1493.88 176.573L1494.35 176.731Z" fill="#66B821"/>
<path d="M1505.56 167.246C1505.4 167.246 1505.56 167.088 1505.56 166.93C1505.72 166.93 1505.72 166.772 1505.88 166.772C1506.03 166.772 1506.03 166.772 1506.19 166.772C1506.35 166.93 1506.35 167.088 1506.35 167.246C1506.35 167.404 1506.19 167.562 1505.88 167.562C1505.72 167.562 1505.72 167.562 1505.56 167.562C1505.56 167.562 1505.4 167.404 1505.56 167.246Z" fill="#66B821"/>
<path d="M1488.2 172.937C1488.36 172.937 1488.52 172.937 1488.67 173.095C1488.67 172.937 1488.67 172.779 1488.67 172.621C1488.52 172.463 1488.2 172.621 1488.2 172.937Z" fill="#66B821"/>
<path d="M1511.08 179.261C1511.24 179.261 1511.4 179.26 1511.56 179.419C1511.56 179.26 1511.56 179.102 1511.56 178.944C1511.56 178.786 1511.24 178.944 1511.08 179.261Z" fill="#66B821"/>
<path d="M1599.46 10.1121C1600.09 9.95406 1600.72 9.95406 1601.19 10.2702L1601.35 10.4283C1601.35 10.5864 1601.35 10.5864 1601.19 10.7445C1600.72 11.2187 1600.09 11.851 1599.46 11.693C1598.83 11.5349 1598.67 10.5864 1599.14 10.2702C1599.3 10.2702 1599.46 10.4283 1599.77 10.4283L1599.46 10.1121Z" fill="#66B821"/>
<path d="M535.636 78.562C537.372 78.0877 539.108 77.1392 540.37 76.0326C540.528 75.8746 540.844 75.5584 541.002 75.4003C541.317 74.9261 541.002 74.2937 540.686 73.8195C539.897 72.7129 538.319 72.0806 537.056 72.5548C535.636 72.871 534.531 73.9776 534.058 75.2422C533.742 76.0326 533.742 76.823 534.058 77.4554C534.374 78.0877 535.163 78.562 535.952 78.4039C536.109 78.2458 535.794 77.9296 535.636 77.9296V78.562Z" fill="#66B821"/>
<path d="M528.534 74.768C529.481 74.4519 530.27 73.5034 530.586 72.5549C529.797 71.9225 528.692 71.4483 527.745 71.7645C526.798 72.0806 526.009 73.1872 526.325 74.1357C526.641 75.0842 528.377 75.4004 528.85 74.4519L528.534 74.768Z" fill="#66B821"/>
<path d="M540.055 83.6206C540.37 83.3045 540.528 83.1464 540.686 82.8302V82.6721C540.686 82.6721 540.686 82.514 540.528 82.514C540.213 82.356 539.739 82.514 539.424 82.1979C539.424 82.1979 539.424 82.0398 539.266 82.0398C539.108 82.0398 539.108 82.0398 539.108 82.1979C539.108 82.9883 539.581 83.6206 540.055 83.6206Z" fill="#66B821"/>
<path d="M550.47 88.8374C550.944 88.3632 551.26 87.8889 551.575 87.2566V87.0985C551.575 86.9404 551.417 86.9404 551.417 86.9404C550.786 86.6243 549.839 87.0985 549.524 86.4662C549.524 86.3081 549.366 86.15 549.366 86.15C549.208 85.9919 549.05 86.3081 548.892 86.4662C548.577 87.5728 549.524 88.6793 550.628 88.6793C550.628 88.6793 550.47 88.6793 550.47 88.8374Z" fill="#66B821"/>
<path d="M548.419 107.491C548.892 107.017 549.208 106.542 549.524 105.91V105.752C549.524 105.594 549.366 105.594 549.366 105.594C548.735 105.278 547.788 105.752 547.472 105.12C547.472 104.962 547.314 104.804 547.314 104.804C547.156 104.646 546.999 104.962 546.841 105.12C546.525 106.226 547.472 107.333 548.577 107.333C548.419 107.333 548.419 107.333 548.419 107.491Z" fill="#66B821"/>
<path d="M541.317 66.2314C541.791 66.0734 542.106 65.5991 542.264 65.1249C542.106 65.1249 541.791 64.9668 541.633 64.9668C541.475 64.9668 541.159 65.1249 541.159 65.283C541.002 65.7572 541.159 65.9153 541.317 66.2314C541.317 66.2314 541.159 66.2314 541.317 66.2314Z" fill="#66B821"/>
<path d="M568.619 71.9224C568.777 71.7643 568.777 71.7643 568.777 71.6062C568.777 71.4481 568.777 71.2901 568.619 71.2901C568.461 70.9739 568.303 70.6577 568.146 70.3416C567.988 70.9739 567.672 71.4481 567.514 72.0805V72.2385C567.357 72.3966 567.199 72.2385 567.041 72.2385C566.883 72.2385 566.725 72.5547 566.725 72.8709C566.883 74.4517 568.146 72.5547 568.619 71.9224Z" fill="#66B821"/>
<path d="M628.904 22.1264C628.904 21.9683 629.062 21.8102 629.062 21.6522C628.746 21.4941 628.273 21.6521 628.115 21.8102C627.957 22.1264 628.115 22.6006 628.431 22.6006C628.588 22.6006 629.062 22.4426 629.062 22.7587L628.904 22.1264Z" fill="#66B821"/>
<path d="M569.566 85.3595C569.092 85.5176 568.461 85.2014 568.461 84.7272C568.461 84.2529 569.092 83.9367 569.566 84.0948C570.039 84.2529 570.039 85.2014 569.566 85.3595Z" fill="#66B821"/>
<path d="M549.681 78.8782C549.681 79.1944 549.524 79.8267 549.05 79.8267C548.735 79.8267 548.419 79.3524 548.419 79.0363C548.419 78.8782 548.419 78.7201 548.419 78.562C548.735 78.2459 549.208 79.0363 549.524 78.7201C549.681 78.7201 549.524 79.0363 549.366 78.8782H549.681Z" fill="#66B821"/>
<path d="M536.267 69.3931C536.267 69.5512 536.109 69.7093 536.109 69.7093C535.952 69.3931 535.952 68.9188 536.109 68.6027C536.267 68.4446 536.267 68.1284 536.583 68.1284C536.741 68.1284 536.899 68.2865 537.056 68.2865C537.372 68.4446 537.688 68.2865 537.845 68.6027C537.845 68.7607 537.845 68.9188 537.688 69.0769C537.53 69.235 537.372 69.235 537.214 69.235C536.899 69.235 536.425 69.235 536.109 69.3931H536.267Z" fill="#66B821"/>
<path d="M537.056 64.6508C537.214 64.9669 537.688 64.8088 537.845 64.4927C537.688 64.3346 537.688 64.3346 537.53 64.1765C537.372 64.1765 537.214 64.1765 537.056 64.3346C536.899 64.4927 536.899 64.8088 537.056 64.6508Z" fill="#66B821"/>
<path d="M557.414 67.9703C557.572 68.2865 558.046 68.1284 558.203 67.8123C558.046 67.6542 558.046 67.6542 557.888 67.4961C557.73 67.4961 557.572 67.4961 557.414 67.6542C557.256 67.8123 557.414 67.9703 557.414 67.9703Z" fill="#66B821"/>
<path d="M541.949 69.3932C542.264 69.3932 542.738 69.2351 542.895 68.919C542.58 68.7609 542.422 68.6028 542.106 68.4447C541.949 68.4447 541.791 68.2866 541.791 68.2866C541.475 68.2866 541.317 68.6028 541.317 68.919C541.317 69.2351 541.633 69.3932 541.949 69.3932Z" fill="#66B821"/>
<path d="M552.206 127.251C552.049 127.726 551.733 128.2 551.575 128.674C551.26 128.674 551.26 128.2 551.26 128.042C551.26 127.726 551.417 127.409 551.575 127.251C551.733 127.093 552.206 127.093 552.206 127.251Z" fill="#66B821"/>
<path d="M552.522 116.66C552.838 116.818 553.311 116.344 553.153 116.028C552.995 115.711 552.522 115.395 552.206 115.553C552.049 115.553 551.891 115.711 551.733 115.869C551.575 116.028 551.733 116.344 551.891 116.66C552.049 116.976 552.364 116.66 552.522 116.66Z" fill="#66B821"/>
<path d="M550.313 76.6649C550.628 76.823 551.102 76.6649 551.26 76.3488C551.102 76.1907 550.944 76.0326 550.628 75.8745C550.313 75.7164 549.839 75.8745 549.681 76.1907C549.681 76.6649 550.155 76.9811 550.313 76.6649Z" fill="#66B821"/>
<path d="M546.683 77.6135C546.525 77.7716 546.21 77.6135 546.052 77.4555C546.21 77.1393 546.367 76.9812 546.367 76.665C546.683 76.665 546.999 77.1393 546.841 77.4555L546.683 77.6135Z" fill="#66B821"/>
<path d="M539.897 82.5141C539.897 82.6722 539.897 82.6722 539.897 82.8303C539.739 82.6722 539.424 82.5141 539.424 82.356C539.266 82.198 539.266 81.8818 539.424 81.7237C539.581 81.5656 540.055 81.5656 540.055 81.8818C539.897 82.0399 539.897 82.356 539.897 82.5141Z" fill="#66B821"/>
<path d="M538.792 65.9153C538.634 65.9153 538.634 66.2315 538.792 66.3895C538.95 66.5476 539.108 66.5476 539.266 66.7057C539.424 66.8638 539.581 67.0219 539.581 67.18C539.581 67.338 539.581 67.4961 539.424 67.4961H539.266C538.95 67.4961 538.477 67.4961 538.161 67.18C537.845 67.0219 537.53 66.5476 537.688 66.2315C537.688 65.9153 538.003 65.7572 538.161 65.5991C538.477 65.5991 538.634 65.7572 538.792 65.9153Z" fill="#66B821"/>
<path d="M564.989 58.9597C564.832 58.9597 564.832 59.2759 564.989 59.434C565.147 59.5921 565.305 59.5921 565.463 59.7501C565.621 59.9082 565.778 60.0663 565.778 60.2244C565.778 60.3825 565.778 60.5406 565.621 60.5406H565.463C565.147 60.5406 564.674 60.5405 564.358 60.2244C564.042 60.0663 563.727 59.5921 563.885 59.2759C563.885 58.9597 564.2 58.8016 564.358 58.6436C564.516 58.6436 564.832 58.8016 564.989 58.9597Z" fill="#66B821"/>
<path d="M589.766 42.8352C589.608 42.8352 589.608 43.1514 589.766 43.3095C589.924 43.4675 590.082 43.4675 590.24 43.6256C590.397 43.7837 590.555 43.9418 590.555 44.0999C590.555 44.258 590.555 44.416 590.397 44.416H590.24C589.924 44.416 589.45 44.416 589.135 44.0999C588.819 43.9418 588.504 43.4675 588.661 43.1514C588.661 42.8352 588.977 42.6771 589.135 42.519C589.293 42.519 589.608 42.6771 589.766 42.8352Z" fill="#66B821"/>
<path d="M544.158 65.283C544.474 65.283 544.631 64.9668 544.474 64.8087C544.474 64.4925 544.158 64.3345 544 64.3345C543.842 64.3345 543.684 64.3345 543.684 64.3345V64.4926C543.842 64.6506 543.842 64.9668 544.158 65.283Z" fill="#66B821"/>
<path d="M510.544 155.232C511.017 155.706 511.648 156.022 512.28 156.022C512.437 156.022 512.437 156.022 512.595 155.864C512.753 155.706 512.595 155.39 512.437 155.232C512.28 154.916 512.437 154.442 512.122 153.967C511.964 153.651 511.648 153.493 511.333 153.335C510.859 153.177 510.228 153.019 510.07 153.493C509.912 153.651 510.07 153.967 510.07 154.284C510.228 154.758 510.544 155.232 510.859 155.706L510.544 155.232Z" fill="#66B821"/>
<path d="M601.287 69.235C601.76 69.7092 602.391 70.0254 603.022 70.0254C603.18 70.0254 603.18 70.0254 603.338 69.8673C603.496 69.7093 603.338 69.3931 603.18 69.235C603.022 68.9188 603.18 68.4446 602.865 67.9703C602.707 67.6542 602.391 67.4961 602.076 67.338C601.602 67.1799 600.971 67.0218 600.813 67.4961C600.655 67.6542 600.813 67.9703 600.813 68.2865C600.971 68.7608 601.287 69.235 601.602 69.7093L601.287 69.235Z" fill="#66B821"/>
<path d="M558.835 82.9882C558.992 83.3044 559.466 83.3044 559.781 83.1463C559.939 82.9882 560.255 82.8302 560.255 82.6721C560.255 82.3559 559.939 82.0397 559.624 82.0397C559.308 81.8817 559.15 81.7236 558.835 81.7236C558.677 81.7236 558.519 81.5655 558.519 81.7236C558.361 81.7236 558.361 81.8817 558.361 82.0397C558.203 82.514 558.045 83.1463 558.203 83.6206L558.835 82.9882Z" fill="#66B821"/>
<path d="M546.525 85.2014C547.472 88.5211 551.26 87.0984 551.102 84.2529C551.102 81.0913 545.736 82.1978 546.525 85.2014Z" fill="#66B821"/>
<path d="M561.675 94.054C562.622 97.3737 566.41 95.951 566.252 93.1055C566.252 89.9438 560.886 91.2085 561.675 94.054Z" fill="#66B821"/>
<path d="M532.164 72.0805C531.691 72.0805 531.217 71.4481 531.533 70.9739C531.848 70.9739 532.322 71.132 532.637 71.4481C532.953 71.7643 532.953 72.2385 532.637 72.3966C532.48 72.3966 532.164 72.3966 532.006 72.3966L532.164 72.0805Z" fill="#66B821"/>
<path d="M537.688 61.9633C537.688 61.8052 537.845 61.8052 537.845 61.6471C537.688 61.489 537.53 61.489 537.372 61.489C537.214 61.489 537.056 61.6471 537.214 61.8052C537.214 61.8052 537.372 61.8052 537.372 61.9633C537.53 61.9633 537.688 62.1214 538.003 62.1214L537.688 61.9633Z" fill="#66B821"/>
<path d="M552.364 50.2651C552.522 50.107 552.838 49.9489 552.996 49.7908C553.153 49.6328 553.153 49.3166 552.996 49.0004C552.996 48.8423 552.838 48.8423 552.68 48.8423C552.364 48.6843 551.891 49.0004 551.733 49.3166C551.733 49.7908 552.049 50.2651 552.364 50.2651Z" fill="#66B821"/>
<path d="M591.66 24.1816C591.818 24.0235 592.133 23.8654 592.291 23.7073C592.449 23.5493 592.449 23.2331 592.291 22.9169C592.291 22.7588 592.133 22.7588 591.975 22.7588C591.66 22.6008 591.186 22.9169 591.029 23.2331C590.871 23.7073 591.186 24.0235 591.66 24.1816Z" fill="#66B821"/>
<path d="M560.571 70.4996C560.413 70.8158 559.939 70.9739 559.624 70.6577C559.624 70.4996 559.624 70.1835 559.781 70.0254C559.939 70.0254 560.255 70.1835 560.413 70.3416L560.571 70.4996Z" fill="#66B821"/>
<path d="M526.956 76.9812C526.956 76.8231 527.114 76.665 527.114 76.507C526.956 76.3489 526.956 76.3489 526.798 76.3489C526.641 76.507 526.641 76.8231 526.956 76.9812Z" fill="#66B821"/>
<path d="M646.106 23.2332C645.948 23.2332 645.948 23.5493 646.106 23.7074C646.263 23.8655 646.421 23.8655 646.579 24.0236C646.737 24.1817 646.895 24.3397 646.895 24.4978C646.895 24.6559 646.895 24.814 646.737 24.814H646.579C646.263 24.814 645.79 24.814 645.474 24.4978C645.159 24.3397 644.843 23.8655 645.001 23.5493C645.001 23.2332 645.317 23.0751 645.474 22.917C645.632 22.917 645.948 23.0751 646.106 23.2332Z" fill="#66B821"/>
<path d="M618.015 1.10152C618.962 0.785352 619.751 -0.163142 620.066 -1.11164C619.277 -1.74397 618.173 -2.21822 617.226 -1.90205C616.279 -1.58589 615.49 -0.479308 615.805 0.469188C616.121 1.41768 617.857 1.73385 618.33 0.785354L618.015 1.10152Z" fill="#66B821"/>
<path d="M632.218 50.8974C633.165 50.5813 633.954 49.6328 634.27 48.6843C633.481 48.0519 632.376 47.5777 631.429 47.8938C630.482 48.21 629.693 49.3166 630.009 50.2651C630.324 51.2136 632.06 51.5298 632.534 50.5813L632.218 50.8974Z" fill="#66B821"/>
<path d="M596.237 29.8725C596.237 29.5563 595.921 29.5563 595.605 29.3983C595.29 29.3983 594.974 29.2402 594.974 29.0821V28.924C595.132 28.7659 595.29 28.924 595.447 28.924C595.605 28.924 595.763 28.924 595.921 28.924C596.237 28.924 596.71 29.0821 596.868 29.3983C596.868 29.5563 596.71 29.7144 596.552 29.8725C596.394 29.8725 596.237 29.8725 596.079 29.7144L596.237 29.8725Z" fill="#66B821"/>
<path d="M616.437 3.3147C616.437 3.15662 616.594 2.99854 616.594 2.84046C616.437 2.68237 616.437 2.68237 616.279 2.68237C616.121 2.84046 616.121 3.15662 616.437 3.3147Z" fill="#66B821"/>
<path d="M593.396 24.0234C593.396 23.7072 593.08 23.7072 592.765 23.5491C592.449 23.5491 592.133 23.3911 592.133 23.233V23.0749C592.291 22.9168 592.449 23.0749 592.607 23.0749C592.765 23.0749 592.922 23.0749 593.08 23.0749C593.396 23.0749 593.869 23.233 594.027 23.5491C594.027 23.7072 593.869 23.8653 593.711 24.0234C593.554 24.0234 593.396 24.0234 593.238 23.8653L593.396 24.0234Z" fill="#66B821"/>
<path d="M570.828 146.538C570.671 147.17 570.197 147.644 569.724 147.96H569.566C569.408 147.96 569.408 147.802 569.408 147.644C569.25 147.012 568.935 146.221 569.566 145.747C570.039 145.431 570.828 145.747 570.986 146.221C570.828 146.379 570.671 146.538 570.513 146.696L570.828 146.538Z" fill="#66B821"/>
<g filter="url(#filter0_f_203_55)">
<circle cx="-17" cy="116" r="167" fill="#007C84"/>
</g>
<defs>
<filter id="filter0_f_203_55" x="-684" y="-551" width="1334" height="1334" filterUnits="userSpaceOnUse" color-interpolation-filters="sRGB">
<feFlood flood-opacity="0" result="BackgroundImageFix"/>
<feBlend mode="normal" in="SourceGraphic" in2="BackgroundImageFix" result="shape"/>
<feGaussianBlur stdDeviation="250" result="effect1_foregroundBlur_203_55"/>
</filter>
</defs>
</svg>
