<svg width="16" height="16" viewBox="0 0 16 16" fill="none" xmlns="http://www.w3.org/2000/svg">
<circle cx="8" cy="8" r="4" fill="#66B821"/>
<mask id="path-2-inside-1_203_18" fill="white">
<path d="M0 8C-1.38325e-07 9.58225 0.469192 11.129 1.34824 12.4446C2.22729 13.7602 3.47672 14.7855 4.93853 15.391C6.40034 15.9965 8.00887 16.155 9.56072 15.8463C11.1126 15.5376 12.538 14.7757 13.6569 13.6569C14.7757 12.538 15.5376 11.1126 15.8463 9.56072C16.155 8.00887 15.9965 6.40034 15.391 4.93853C14.7855 3.47672 13.7602 2.22729 12.4446 1.34824C11.129 0.469192 9.58225 1.19457e-07 8 0V1.29346C9.32643 1.29346 10.6231 1.68679 11.726 2.42372C12.8288 3.16064 13.6884 4.20806 14.196 5.43352C14.7036 6.65898 14.8364 8.00744 14.5777 9.30838C14.3189 10.6093 13.6802 11.8043 12.7422 12.7422C11.8043 13.6802 10.6093 14.3189 9.30838 14.5777C8.00744 14.8364 6.65898 14.7036 5.43352 14.196C4.20806 13.6884 3.16064 12.8288 2.42372 11.726C1.68679 10.6231 1.29346 9.32643 1.29346 8H0Z"/>
</mask>
<path d="M0 8C-1.38325e-07 9.58225 0.469192 11.129 1.34824 12.4446C2.22729 13.7602 3.47672 14.7855 4.93853 15.391C6.40034 15.9965 8.00887 16.155 9.56072 15.8463C11.1126 15.5376 12.538 14.7757 13.6569 13.6569C14.7757 12.538 15.5376 11.1126 15.8463 9.56072C16.155 8.00887 15.9965 6.40034 15.391 4.93853C14.7855 3.47672 13.7602 2.22729 12.4446 1.34824C11.129 0.469192 9.58225 1.19457e-07 8 0V1.29346C9.32643 1.29346 10.6231 1.68679 11.726 2.42372C12.8288 3.16064 13.6884 4.20806 14.196 5.43352C14.7036 6.65898 14.8364 8.00744 14.5777 9.30838C14.3189 10.6093 13.6802 11.8043 12.7422 12.7422C11.8043 13.6802 10.6093 14.3189 9.30838 14.5777C8.00744 14.8364 6.65898 14.7036 5.43352 14.196C4.20806 13.6884 3.16064 12.8288 2.42372 11.726C1.68679 10.6231 1.29346 9.32643 1.29346 8H0Z" stroke="#4C5A59" stroke-width="8" mask="url(#path-2-inside-1_203_18)"/>
</svg>
