<svg width="360" height="1253" viewBox="0 0 360 1253" fill="none" xmlns="http://www.w3.org/2000/svg">
<g filter="url(#filter0_f_220_58)">
<circle cx="384" cy="612" r="141" fill="#007C84"/>
</g>
<g filter="url(#filter1_f_220_58)">
<circle cx="-69.5" cy="100.5" r="85.5" fill="#66B821"/>
</g>
<g filter="url(#filter2_f_220_58)">
<circle cx="23.5" cy="70.5" r="98.5" fill="#007C84"/>
</g>
<g opacity="0.5">
<g filter="url(#filter3_f_220_58)">
<circle cx="21.5001" cy="115.5" r="5.23077" fill="#66B821"/>
</g>
<circle cx="21.5" cy="115.5" r="3.92308" fill="#66B821"/>
<g filter="url(#filter4_f_220_58)">
<circle cx="21.5" cy="115.5" r="8" stroke="#66B821"/>
</g>
<circle cx="21.5" cy="115.5" r="8" stroke="#66B821"/>
</g>
<g opacity="0.5">
<g filter="url(#filter5_f_220_58)">
<circle cx="329.5" cy="118.5" r="4.61538" fill="#66B821"/>
</g>
<circle cx="329.5" cy="118.5" r="3.46154" fill="#66B821"/>
<g filter="url(#filter6_f_220_58)">
<circle cx="329.5" cy="118.5" r="7" stroke="#66B821"/>
</g>
<circle cx="329.5" cy="118.5" r="7" stroke="#66B821"/>
</g>
<g opacity="0.5">
<g filter="url(#filter7_f_220_58)">
<circle cx="302.5" cy="456.5" r="4.61538" fill="#66B821"/>
</g>
<circle cx="302.5" cy="456.5" r="3.46154" fill="#66B821"/>
<g filter="url(#filter8_f_220_58)">
<circle cx="302.5" cy="456.5" r="7" stroke="#66B821"/>
</g>
<circle cx="302.5" cy="456.5" r="7" stroke="#66B821"/>
</g>
<g opacity="0.5">
<g filter="url(#filter9_f_220_58)">
<circle cx="34.5" cy="289.5" r="4.61538" fill="#66B821"/>
</g>
<circle cx="34.5" cy="289.5" r="3.46154" fill="#66B821"/>
<g filter="url(#filter10_f_220_58)">
<circle cx="34.5" cy="289.5" r="7" stroke="#66B821"/>
</g>
<circle cx="34.5" cy="289.5" r="7" stroke="#66B821"/>
</g>
<g opacity="0.5">
<g filter="url(#filter11_f_220_58)">
<circle cx="33" cy="531" r="8" fill="#66B821"/>
</g>
<circle cx="33" cy="531" r="6" fill="#66B821"/>
<g filter="url(#filter12_f_220_58)">
<circle cx="33" cy="531" r="12.5" stroke="#66B821"/>
</g>
<circle cx="33" cy="531" r="12.5" stroke="#66B821"/>
</g>
<g opacity="0.6">
<path d="M48.7858 135.461C45.4935 147.251 46.2259 159.78 46.2027 172.376C46.1634 181.249 47.4903 193.164 40.5551 199.523C27.7691 211.268 -1.52439 212.486 -0.270429 234.192C0.441003 246.772 24.853 260.906 15.5351 272.449C2.87395 288.069 -6.41967 304.15 -13.9389 322.8C7.40294 323.941 28.772 325.12 50.1201 326.35C69.1765 327.421 88.5134 327.6 107.706 329.908C140.925 333.954 173.591 348.648 206.804 350.514C243.661 352.586 276.686 341.641 312.886 341.343C352.691 341.034 394.329 345.55 434.631 347.788C422.932 331.7 413.58 314.801 401.984 298.776C391.632 284.418 373.665 280.69 361.086 268.838C349.796 258.23 358.82 250.539 355.289 239.714C352.323 230.647 338.771 221.691 331.239 214.666C315.181 199.702 299.658 184.684 290.906 166.215C272.736 162.043 246.598 151.28 230.347 158.728C220.748 163.119 214.845 167.065 202.137 166.291C178.195 164.802 152.958 153.934 129.726 146.119C116.89 141.789 103.965 137.574 90.8715 134.812C75.112 131.448 63.0646 132.405 48.7858 135.461Z" stroke="#66B821" stroke-width="0.25" stroke-miterlimit="10"/>
<path d="M303.995 159.319C310.939 176.938 324.562 191.231 338.544 205.463C345.214 212.246 357.537 221.138 359.938 229.917C362.657 239.92 352.647 247.774 362.141 257.821C372.831 269.137 390.216 270.327 399.676 283.696C404.444 290.476 407.705 298.37 411.532 305.463C415.946 313.661 420.942 321.607 426.188 329.481" stroke="#66B821" stroke-width="0.25" stroke-miterlimit="10"/>
<path d="M298.084 158.508C304.219 176.392 317.885 190.966 331.822 205.419C338.674 212.509 351.321 221.805 353.625 230.881C356.14 240.874 344.084 249.735 353.223 259.868C363.682 271.45 382.88 270.489 392.958 283.754C397.902 290.244 400.648 298.555 403.948 305.516C407.915 313.775 412.376 321.721 417.523 329.641" stroke="#66B821" stroke-width="0.25" stroke-miterlimit="10"/>
<path d="M289.678 156.958C298.58 175.186 310.988 190.367 325.616 205.85C332.348 212.949 345.357 222.935 347.011 232.168C348.736 241.806 335.991 251.837 343.994 261.808C348.487 267.376 358.886 269.638 365.07 271.785C372.954 274.511 381.47 277.651 386.638 284.602C391.189 290.707 393.437 298.493 396.168 305.119C399.65 313.616 403.689 321.74 408.737 329.789" stroke="#66B821" stroke-width="0.25" stroke-miterlimit="10"/>
<path d="M281.867 155.704C290.819 173.821 304.157 189.495 318.526 205.045C325.418 212.499 338.258 222.689 340.026 232.243C341.89 242.238 327.608 253.469 335.226 263.657C339.489 269.388 350.905 271.29 357.021 272.998C365.014 275.237 374.498 277.732 380.029 284.594C384.735 290.455 386.517 298.598 388.793 305.066C391.774 313.635 395.2 321.736 400.014 329.867" stroke="#66B821" stroke-width="0.25" stroke-miterlimit="10"/>
<path d="M274.835 154.794C283.796 172.895 297.041 188.071 311.123 203.735C318.131 211.555 330.616 221.913 332.603 231.715C334.731 242.33 319.213 254.762 326.602 265.332C330.764 271.273 342.895 272.816 348.969 274.204C357.032 276.05 367.505 277.851 373.356 284.634C378.214 290.25 379.569 298.738 381.367 305.096C383.817 313.7 386.665 321.763 391.223 330.024" stroke="#66B821" stroke-width="0.25" stroke-miterlimit="10"/>
<path d="M268.61 154.222C277.218 171.85 289.824 186.637 303.575 201.91C310.86 209.964 322.543 220.443 324.754 230.577C326.368 238.018 322.589 244.427 320.082 250.604C318.305 254.994 314.856 261.438 318.272 266.789C322.245 272.964 335.046 274.159 341.014 275.285C349.123 276.785 360.551 277.985 366.72 284.691C371.735 290.143 372.652 298.893 374.054 305.114C376.01 313.74 378.214 321.826 382.53 330.167" stroke="#66B821" stroke-width="0.25" stroke-miterlimit="10"/>
<path d="M263.151 153.964C271.233 170.949 282.968 185.319 296.17 200.043C303.48 208.187 316.05 218.731 317.335 229.008C318.34 236.757 314.945 243.829 312.349 250.418C310.498 255.087 306.773 262.124 310.288 267.838C314.269 274.318 327.04 275.191 333.207 276.137C341.321 277.387 353.615 278.01 360.033 284.612C365.228 289.936 365.724 298.898 366.75 305.018C368.209 313.664 369.824 321.711 373.832 330.191" stroke="#66B821" stroke-width="0.25" stroke-miterlimit="10"/>
<path d="M258.365 154.01C265.409 169.377 275.196 182.516 286.889 195.971C294.303 204.479 307.854 215.912 310.03 226.371C311.805 234.805 307.819 242.303 304.94 249.316C302.85 254.396 298.978 262.289 302.864 268.544C307.535 276.032 321.209 276.314 328.591 277.22C336.083 278.138 348.038 278.607 353.935 285.107C358.93 290.579 358.821 300.315 359.445 306.295C360.326 314.469 361.585 322.066 365.068 330.146" stroke="#66B821" stroke-width="0.25" stroke-miterlimit="10"/>
<path d="M254.073 154.332C260.318 168.82 268.957 181.391 279.653 194.195C286.858 202.766 300.031 213.929 302.265 224.247C304.183 232.815 300.704 241.068 298.06 248.358C296.045 253.931 291.615 262.068 295.428 268.818C304.375 284.638 334.576 271.831 346.792 285.061C351.835 290.522 351.381 300.358 351.735 306.246C352.243 314.4 352.975 321.977 356.228 330.168" stroke="#66B821" stroke-width="0.25" stroke-miterlimit="10"/>
<path d="M250.36 154.864C255.903 168.695 263.372 180.828 273.205 193.191C279.56 201.19 291.737 211.565 294.027 220.756C296.213 229.718 293.535 238.472 291.195 246.361C289.493 252.017 284.715 261.835 288.327 268.513C297.148 284.754 326.415 272.383 338.83 284.316C344.579 289.835 343.806 299.505 343.895 305.681C344.064 314.016 344.341 321.679 347.39 330.099" stroke="#66B821" stroke-width="0.25" stroke-miterlimit="10"/>
<path d="M247.22 155.415C251.889 168.18 257.767 179.62 266.383 191.229C272.293 199.236 283.419 208.939 285.697 217.884C288.048 226.937 286.002 236.031 284.072 244.236C282.734 250.135 278.23 260.607 281.634 267.351C290.112 284.05 319.453 272.353 331.535 284.141C337.211 289.688 336.332 299.438 336.261 305.536C336.141 313.83 336.043 321.476 338.908 329.999" stroke="#66B821" stroke-width="0.25" stroke-miterlimit="10"/>
<path d="M244.571 156.093C248.042 166.94 251.967 177.316 258.547 187.502C264.197 196.322 275.237 206.239 277.431 215.817C279.594 225.276 278.153 234.591 276.701 243.439C275.677 249.81 272.498 258.544 275.527 265.488C282.739 282.051 311.367 272.883 323.312 283.444C329.53 288.935 328.821 298.644 328.649 304.904C328.386 313.374 327.83 321.113 330.719 329.896" stroke="#66B821" stroke-width="0.25" stroke-miterlimit="10"/>
<path d="M242.213 156.85C244.882 166.821 247.322 176.685 252.601 186.309C257.579 195.417 266.728 204.04 268.885 213.64C270.934 222.628 270.295 231.469 269.596 240.07C269.058 246.481 266.002 256.558 269.024 263.257C276.634 280.159 304.615 272.176 316.237 283.964C321.657 289.475 321.012 298.232 320.804 304.294C320.502 312.869 319.651 320.869 322.444 329.734" stroke="#66B821" stroke-width="0.25" stroke-miterlimit="10"/>
<path d="M240.088 157.717C241.982 166.629 242.687 175.702 246.283 184.523C249.904 193.38 257.586 201.271 259.882 210.241C262.16 219.26 262.307 228.275 262.219 237.098C262.168 243.85 259.801 253.741 262.755 260.639C269.969 277.631 296.982 271.522 308.329 283.708C313.669 289.465 312.93 298.17 312.683 304.334C312.336 312.929 311.333 321.022 314.046 329.918" stroke="#66B821" stroke-width="0.25" stroke-miterlimit="10"/>
<path d="M238.067 158.675C239.26 166.719 238.117 174.772 240.045 182.824C241.997 191.215 248.303 198.516 250.734 206.772C253.355 215.834 254.224 225 254.813 233.985C255.277 241.116 253.745 250.652 256.657 257.785C263.536 274.807 289.383 270.674 300.311 283.428C305.533 289.528 304.698 298.182 304.419 304.533C304.032 313.233 302.975 321.562 305.527 330.6" stroke="#66B821" stroke-width="0.25" stroke-miterlimit="10"/>
<path d="M235.627 159.688C236.209 167.539 233.22 174.013 233.294 181.66C233.383 188.872 237.997 195.342 240.542 202.388C243.885 211.581 245.391 221.155 246.693 230.356C247.815 238.228 247.372 247.182 250.264 255.036C256.678 272.42 282.61 269.859 292.527 284.03C296.773 290.042 295.958 298.453 295.671 304.434C295.31 313.581 294.047 322.332 296.558 331.842" stroke="#66B821" stroke-width="0.25" stroke-miterlimit="10"/>
<path d="M233.242 160.701C233.187 168.793 228.685 172.977 226.505 180.059C224.551 186.474 228.145 192.432 230.678 199.073C234.233 208.412 236.604 217.948 238.697 227.389C240.495 235.486 240.916 244.266 243.84 252.311C250.104 269.537 274.842 269.253 284.005 283.949C288.039 290.391 287.23 298.692 286.964 305.028C286.528 314.478 285.278 323.591 287.666 333.382" stroke="#66B821" stroke-width="0.25" stroke-miterlimit="10"/>
<path d="M230.768 161.71C230.035 170.228 224.316 172.41 219.758 178.561C215.72 184.005 218.197 189.255 220.837 195.89C227.89 213.78 230.931 231.868 237.367 249.712C243.491 266.646 266.844 268.87 275.265 283.828C279.1 290.653 278.285 298.976 277.946 305.609C277.459 315.401 276.134 324.905 278.447 335.051" stroke="#66B821" stroke-width="0.25" stroke-miterlimit="10"/>
<path d="M228.278 162.699C226.775 171.449 219.812 172.363 213.094 177.161C207.121 181.493 208.247 185.873 211.113 192.903C218.522 211.059 224.438 229.148 231.027 247.356C237.023 263.947 258.925 268.57 266.519 283.766C270.126 290.939 269.305 299.284 268.987 306.276C268.475 316.447 267.145 326.365 269.335 336.88" stroke="#66B821" stroke-width="0.25" stroke-miterlimit="10"/>
<path d="M225.613 163.629C223.412 172.416 214.724 172.617 206.571 175.894C199.045 178.912 198.545 182.663 201.642 190.173C209.298 208.67 218.077 226.772 224.797 245.394C230.636 261.601 250.975 268.441 257.761 283.692C261.091 291.227 260.291 299.631 259.916 306.873C259.38 317.425 258 327.772 260.045 338.705" stroke="#66B821" stroke-width="0.25" stroke-miterlimit="10"/>
<path d="M222.711 164.479C218.218 178.449 184.335 168.322 192.392 187.769C200.207 206.715 211.757 224.815 218.638 243.972C224.289 259.756 243.012 268.479 249.017 283.686C256.444 302.388 247.563 321.833 250.775 340.465" stroke="#66B821" stroke-width="0.25" stroke-miterlimit="10"/>
<path d="M219.467 165.194C216.242 173.99 203.848 172.598 194.321 173.661C184.585 174.738 179.526 177.209 183.929 186.727C192.692 205.469 206.305 223.765 212.521 242.982C217.466 258.301 233.946 267.986 239.8 282.665C247.549 302.208 238.431 322.582 241.385 342.031" stroke="#66B821" stroke-width="0.25" stroke-miterlimit="10"/>
<path d="M215.989 165.878C214.55 182.439 164.763 161.753 175.652 185.215C184.726 204.701 199.696 223.111 206.678 243.035C209.403 250.707 212.851 256.693 218.461 263.581C223.533 269.783 228.817 275.664 231.363 282.772C238.52 302.867 229.521 323.411 232.239 343.399" stroke="#66B821" stroke-width="0.25" stroke-miterlimit="10"/>
<path d="M212.032 166.403C210.751 183.295 156.899 159.871 167.949 184.254C177.147 204.531 194.027 223.294 200.963 244.01C203.391 251.338 206.54 257.284 211.55 264.086C216.093 270.225 220.854 276.129 223.061 282.99C229.652 303.449 220.779 324.157 223.077 344.422" stroke="#66B821" stroke-width="0.25" stroke-miterlimit="10"/>
<path d="M207.546 166.696C206.894 184.273 149.776 158.154 160.869 183.839C170.011 205.043 188.633 224.379 195.318 245.987C199.399 259.161 211.139 270.213 214.973 283.19C217.586 292.105 216.181 301.23 215.457 309.687C214.462 321.338 212.898 332.879 214.04 344.917" stroke="#66B821" stroke-width="0.25" stroke-miterlimit="10"/>
<path d="M202.495 166.729C202.774 176.465 178.078 172.069 170.574 171.947C160.623 171.783 150.996 171.532 153.783 181.864C159.985 205.131 181.895 226.21 187.997 249.724C191.141 261.808 202.7 270.555 206.919 282.216C210.286 291.423 208.335 301.192 207.364 309.859C206.058 321.476 204.083 332.923 205.181 344.989" stroke="#66B821" stroke-width="0.25" stroke-miterlimit="10"/>
<path d="M197.068 166.424C196.452 175.843 172.987 172.018 165.102 172.081C154.79 172.141 145.797 172.196 148.149 182.619C150.769 194.202 158.554 206.546 164.111 217.686C169.942 229.37 175.477 240.869 178.458 252.883C181.523 265.095 195.572 272.042 200.469 283.494C204.235 292.255 201.559 302.188 200.122 310.288C198.13 321.577 195.196 332.549 196.292 344.545" stroke="#66B821" stroke-width="0.25" stroke-miterlimit="10"/>
<path d="M191.363 165.753C190.067 174.927 167.972 171.858 159.829 172.207C149.334 172.664 141.157 173.199 143.084 183.574C145.235 195.125 151.947 207.428 156.702 218.759C161.712 230.684 165.587 242.254 168.673 254.346C171.905 267.192 189.164 273.334 195.106 285.094C199.378 293.556 195.844 303.468 193.819 310.987C190.888 321.75 186.856 331.973 187.651 343.714" stroke="#66B821" stroke-width="0.25" stroke-miterlimit="10"/>
<path d="M185.423 164.791C183.636 173.757 163.041 171.546 154.699 172.342C144.189 173.282 136.963 174.484 138.479 184.677C140.192 196.01 145.617 207.975 149.476 219.214C153.491 230.985 155.595 242.478 158.61 254.166C162.195 267.908 183.463 274.355 190.6 286.785C195.393 295.121 190.978 304.752 188.157 311.788C184.151 321.839 178.786 331.064 178.995 342.538" stroke="#66B821" stroke-width="0.25" stroke-miterlimit="10"/>
<path d="M179.346 163.58C174.122 171.936 160.18 170.878 149.718 172.464C139.376 174.063 133.132 175.97 134.301 185.917C135.536 196.819 139.628 208.233 142.383 219.167C145.176 230.313 145.472 241.689 148.399 252.71C152.329 267.574 178.356 275.365 186.842 288.601C192.241 297.008 186.899 306.058 183.146 312.734C178.002 321.908 171.147 329.996 170.543 341.041" stroke="#66B821" stroke-width="0.25" stroke-miterlimit="10"/>
<path d="M173.098 162.263C164.133 176.636 128.846 165.839 130.544 187.428C131.312 197.756 133.979 208.414 135.512 218.803C136.326 224.338 137.02 229.862 137.475 235.361C137.831 239.78 136.994 245.806 138.134 250.235C139.876 257.158 149.801 263.334 155.869 267.982C164.694 274.72 177.283 281.992 183.677 290.626C189.972 299.197 183.305 307.726 178.534 313.839C172.102 321.994 163.679 328.827 162.12 339.474" stroke="#66B821" stroke-width="0.25" stroke-miterlimit="10"/>
<path d="M166.735 160.77C157.784 175.501 126.368 167.628 127.105 189.05C127.446 198.704 128.605 208.492 128.755 218.11C128.821 223.143 128.742 228.126 128.542 233.098C128.384 236.951 126.954 243.007 127.799 246.944C129.453 254.295 142.133 261.994 148.453 266.757C159.089 274.787 172.359 282.77 180.774 292.683C188.232 301.481 179.911 309.574 174.088 314.999C166.458 322.108 156.385 327.572 153.703 337.821" stroke="#66B821" stroke-width="0.25" stroke-miterlimit="10"/>
<path d="M160.228 159.151C155.52 167.336 144.562 169.139 135.698 173.347C126.996 177.467 123.991 181.78 123.832 190.733C123.719 199.675 123.381 208.455 122.112 217.176C120.927 225.077 116.136 234.792 117.592 243.044C118.946 250.836 134.809 260.346 141.335 265.236C153.512 274.409 168.465 283.499 178.172 294.758C186.398 304.243 176.997 311.3 169.82 316.162C160.965 322.185 149.239 326.278 145.339 336.152" stroke="#66B821" stroke-width="0.25" stroke-miterlimit="10"/>
<path d="M153.57 157.405C149.257 165.532 139.575 168.365 131.638 173.343C123.086 178.71 121.391 184.091 120.675 193.6C120.068 201.615 118.072 209.162 115.371 216.5C113.125 222.517 106.848 231.484 107.808 238.412C109.035 247.441 125.406 256.868 133.224 262.789C147.501 273.579 165.896 284.368 176.635 298.019C184.42 307.897 172.317 313.91 164.696 317.606C154.934 322.367 141.827 325.236 136.953 334.534" stroke="#66B821" stroke-width="0.25" stroke-miterlimit="10"/>
<path d="M146.869 155.625C142.892 163.843 134.035 167.695 127.065 173.657C119.598 180.019 119.15 186.221 117.569 195.303C116.32 202.653 112.909 209.076 108.78 215.116C105.452 220.008 97.3509 227.518 97.881 234.077C98.7118 243.574 117.988 254.802 126.091 260.963C141.873 273 162.038 285.009 173.911 300.097C182.305 310.751 168.445 315.641 159.934 318.645C149.143 322.441 134.39 324.109 128.493 333.155" stroke="#66B821" stroke-width="0.25" stroke-miterlimit="10"/>
<path d="M140.071 153.824C136.411 162.183 128.433 167.131 122.499 174.015C116.276 181.198 116.923 188.397 114.475 197.051C112.521 203.884 107.66 209.058 102.314 213.784C97.909 217.636 88.0571 223.399 88.2477 229.877C88.3959 233.701 92.3787 237.113 95.5495 240.167C102.754 247.02 111.052 253.134 119.042 259.286C136.058 272.422 158.041 285.641 170.83 302.092C179.713 313.511 163.973 317.263 154.764 319.611C143.095 322.577 126.749 323.118 120.007 332.085" stroke="#66B821" stroke-width="0.25" stroke-miterlimit="10"/>
<path d="M133.232 151.989C129.894 160.576 122.751 166.634 117.895 174.341C115.552 178.039 113.62 182.159 112.782 186.562C112.04 190.628 112.86 194.851 111.265 198.658C108.563 205.075 102.149 208.935 95.7516 212.347C90.4136 215.207 78.9475 219.185 78.7695 225.854C78.6631 229.794 83.3809 233.767 86.6544 236.885C94.3829 244.313 103.299 250.978 111.881 257.643C122.285 265.773 132.936 273.703 143.185 282.008C150.928 288.278 161.154 295.922 167.022 303.719C176.203 315.867 158.391 318.531 148.844 320.259C136.421 322.494 118.462 322.043 111.272 331.179" stroke="#66B821" stroke-width="0.25" stroke-miterlimit="10"/>
<path d="M126.305 150.224C123.333 158.935 117.305 165.937 113.468 174.215C111.556 178.286 110.076 182.729 109.511 187.281C109.01 191.372 110.056 195.756 108.361 199.502C105.228 206.257 96.2486 208.942 88.7482 211.273C82.6742 213.176 69.9007 215.55 69.087 222.347C68.5567 226.712 78.2421 234.459 81.1188 237.018C89.981 244.942 99.4485 252.303 108.869 259.677C119.653 268.105 130.664 276.384 141.112 285.125C148.794 291.545 158.671 298.618 163.677 306.692C170.348 317.429 153.141 319.219 145.087 320.455C131.835 322.469 109.987 320.709 102.508 330.857" stroke="#66B821" stroke-width="0.25" stroke-miterlimit="10"/>
<path d="M119.356 148.509C116.648 157.597 111.52 165.558 108.639 174.559C107.164 179.091 106.183 183.845 105.857 188.735C105.595 192.851 106.901 197.523 104.832 201.059C100.964 207.569 90.0582 208.728 82.106 210.114C75.9477 211.194 60.6021 212.393 60.3403 219.577C60.1338 224.478 69.4038 232.03 72.773 235.124C82.0041 243.485 91.9141 251.309 101.771 259.058C112.971 267.912 124.42 276.566 135.284 285.733C142.923 292.167 153.425 299.565 158.01 307.755C164.175 318.721 145.507 319.881 137.545 320.78C123.473 322.436 101.537 320.252 93.4374 330.791" stroke="#66B821" stroke-width="0.25" stroke-miterlimit="10"/>
<path d="M112.546 146.937C110.162 156.253 106.035 164.927 103.971 174.379C102.922 179.199 102.267 184.18 102.193 189.271C102.106 193.165 103.677 198.525 101.646 201.963C94.1003 214.716 54.1822 202.109 52.7174 218.073C52.2189 223.59 60.1808 229.765 64.6034 233.868C73.7075 242.36 83.5584 250.251 93.4298 258.092C104.645 267.038 115.949 275.872 126.936 284.97C134.549 291.283 145.593 298.808 149.995 307.054C152.91 312.497 152.83 314.431 147.478 317.207C141.965 320.07 134.323 320.17 127.674 320.804C113.452 322.186 92.8119 320.671 84.4725 330.968" stroke="#66B821" stroke-width="0.25" stroke-miterlimit="10"/>
<path d="M105.911 145.47C103.674 155.245 100.482 164.698 99.1752 174.757C98.484 179.931 98.2544 185.202 98.3396 190.523C98.3942 194.382 100.105 200.022 97.819 203.265C89.1918 215.784 46.3869 199.651 45.1425 217.442C44.7351 223.251 52.32 229.359 56.9877 233.802C66.2433 242.577 76.2877 250.65 86.3055 258.685C97.4162 267.629 108.615 276.46 119.523 285.592C126.693 291.588 137.253 298.81 141.321 306.665C144.199 312.214 143.512 313.69 137.941 316.169C132.114 318.762 124.641 319.036 117.915 319.733C103.518 321.292 83.95 320.458 75.6847 330.965" stroke="#66B821" stroke-width="0.25" stroke-miterlimit="10"/>
<path d="M99.4278 144.18C97.2199 155.118 94.7848 165.895 94.2654 177.316C93.9574 184.221 97.6865 199.804 92.8923 204.973C82.9252 215.725 38.0199 198.777 37.8616 218.439C37.8178 223.979 45.2241 230.771 49.2658 234.722C57.9694 243.261 67.9462 251.145 77.5546 258.905C88.0512 267.362 98.7299 275.681 109.071 284.314C116.281 290.356 125.212 297.005 130.553 304.442C138.781 315.783 118.131 316.79 109.914 317.93C94.9229 319.956 74.8117 319.748 66.6661 331.169" stroke="#66B821" stroke-width="0.25" stroke-miterlimit="10"/>
<path d="M93.0248 143.137C90.9455 154.584 89.3642 165.942 89.4321 177.883C89.4455 184.93 93.4324 200.725 88.2029 205.925C82.0799 212.078 64.0972 208.971 54.8156 209.102C45.991 209.244 30.7532 210.709 31.1164 220.696C31.296 226.003 39.1648 233.124 42.9772 236.829C51.397 244.962 60.9561 252.565 70.1668 259.995C80.0393 267.96 90.0675 275.75 99.7576 283.853C106.313 289.364 114.645 295.557 119.398 302.401C126.559 312.791 105.621 314.45 98.2942 315.751C83.4722 318.354 65.0791 319.329 57.7485 331.206" stroke="#66B821" stroke-width="0.25" stroke-miterlimit="10"/>
<path d="M86.772 142.306C84.8237 153.951 83.9789 165.566 84.4222 177.729C84.6611 185.257 89.2452 201.979 82.4959 207.188C70.5522 216.472 24.6851 200.89 25.6192 223.148C25.8563 228.935 32.1856 234.201 36.8514 238.708C46.097 247.522 56.2084 255.656 66.293 263.753C75.0323 270.827 84.0012 277.75 92.4491 285.126C97.312 289.356 105.877 295.316 107.946 300.834C111.37 309.917 92.1354 311.873 85.0872 313.5C70.9435 316.766 54.9149 319.2 48.7656 331.259" stroke="#66B821" stroke-width="0.25" stroke-miterlimit="10"/>
<path d="M80.7413 141.793C78.7412 153.775 78.5997 165.838 79.3104 178.388C79.7303 186.098 83.9791 202.435 76.5683 207.601C69.0897 212.829 54.3913 210.834 44.6173 211.807C35.0322 212.729 19.7231 215.413 20.467 226.031C20.8605 231.648 26.8362 236.568 31.3332 240.992C39.7585 249.278 49.2601 256.783 58.5255 264.351C66.411 270.77 74.4115 277.113 81.958 283.847C86.0629 287.482 93.6713 293.037 94.9931 297.823C97.3024 306.054 78.7914 309.062 72.4799 311.026C58.8648 315.222 44.9356 319.055 39.7603 331.398" stroke="#66B821" stroke-width="0.25" stroke-miterlimit="10"/>
<path d="M74.932 141.563C72.853 153.846 73.3364 166.247 74.0871 179.023C74.5465 186.954 77.6864 202.534 70.2985 207.83C57.7872 216.696 13.9476 206.95 15.9513 229.011C16.4482 234.381 21.8746 238.92 26.1495 243.186C33.7677 250.805 42.3959 257.706 50.7875 264.67C57.6965 270.421 64.7474 276.134 71.2698 282.213C74.313 285.065 81.5264 290.689 81.6431 294.417C81.8742 302.186 66.1741 305.778 59.708 308.41C46.8703 313.65 35.0444 318.885 30.7587 331.314" stroke="#66B821" stroke-width="0.25" stroke-miterlimit="10"/>
<path d="M69.3779 141.722C67.1329 154.108 67.9794 166.874 68.2307 179.755C68.4127 187.86 71.3597 202.705 63.9935 208.133C51.4879 217.362 9.47041 210.098 11.8354 232.134C12.985 243.026 34.2484 257.521 42.8585 265.021C48.7421 270.116 54.7678 275.173 60.1961 280.66C62.7394 283.203 68.2399 287.998 67.8398 291.242C66.9941 298.458 52.8107 303.029 46.7631 306.267C34.9459 312.577 25.1739 319.144 21.5778 331.535" stroke="#66B821" stroke-width="0.25" stroke-miterlimit="10"/>
<path d="M64.1492 142.218C61.4899 155.314 61.9601 168.915 62.294 182.643C62.4784 190.444 64.7064 202.227 58.5725 207.822C51.6215 214.174 37.0861 214.399 27.6891 217.236C19.2142 219.78 6.44792 225.586 7.8284 235.623C9.07905 244.843 24.2995 255.425 31.63 262.07C37.2857 267.236 55.7547 280.715 53.936 288.56C53.3931 290.815 47.7318 294.533 45.9699 295.948C42.1055 299.094 37.7028 301.802 33.5558 304.71C23.2834 311.954 15.6534 319.655 12.5963 331.557" stroke="#66B821" stroke-width="0.25" stroke-miterlimit="10"/>
<path d="M59.1443 143.205C55.0193 155.858 56.0792 169.591 56.3393 183.314C56.4764 191.139 58.4398 202.563 52.3423 208.153C45.3375 214.616 32.0657 215.617 22.7489 219.151C14.5192 222.304 3.14144 228.907 4.53265 238.732C5.7505 247.121 17.9853 256.192 24.4154 262.598C29.9033 267.998 43.2187 278.666 40.0865 285.797C39.0611 288.093 34.0614 291.727 32.1371 293.636C28.6708 297.037 24.8202 300.138 21.2258 303.439C12.4001 311.558 6.32282 320.198 3.39869 331.676" stroke="#66B821" stroke-width="0.25" stroke-miterlimit="10"/>
<path d="M52.998 144.72C49.2419 157.198 50.2577 170.644 50.3982 184.055C50.4672 191.952 51.9553 202.798 46.0046 208.533C34.1096 220.091 -1.6294 219.427 1.41705 241.773C3.21516 254.964 34.9388 271.324 26.541 283.653C25.6966 284.06 24.8315 284.517 23.9871 284.923C22.4159 287.414 20.7165 289.804 18.8143 292.069C15.7964 295.712 12.4744 299.167 9.45651 302.811C2.16231 311.515 -2.56384 320.88 -5.75886 331.678" stroke="#66B821" stroke-width="0.25" stroke-miterlimit="10"/>
<path d="M-22.5557 304.831C1.98253 303.505 26.5926 307.585 51.7943 311.409C71.3008 314.398 90.4192 315.827 109.874 318.069C139.847 321.503 170.196 329.593 200.024 331.305C237.349 333.459 272.167 325.158 308.883 324.764C347.475 324.338 387.859 329.23 426.967 331.471" stroke="#66B821" stroke-width="0.25" stroke-miterlimit="10"/>
<path d="M-14.9249 292.709C34.934 291.885 85.6889 315.203 135.583 315.604C158.434 315.779 180.295 313.037 203.411 314.091C240.197 315.765 275.794 312.389 312.36 313.077C348.059 313.714 384.494 318.002 420.494 320.411" stroke="#66B821" stroke-width="0.25" stroke-miterlimit="10"/>
<path d="M-4.45459 281.196C28.9421 282.972 61.5795 293.501 94.7082 302.71C115.294 308.433 137.674 315.521 157.511 311.95C165.549 310.484 171.367 306.629 178.161 303.316C186.472 299.212 196.015 297.861 206.406 298.132C241.774 299.089 277.383 300.219 312.896 301.801C346.806 303.296 380.928 307.108 415 309.841" stroke="#66B821" stroke-width="0.25" stroke-miterlimit="10"/>
<path d="M5.7688 270.25C42.3962 274.368 76.3204 287.327 112.273 298.125C129.329 303.227 150.623 310.217 166.601 305.321C174.143 302.994 177.123 297.397 182.197 292.751C188.577 286.85 197.613 285.967 207.571 286.306C274.614 288.683 342 293.813 409.558 299.939" stroke="#66B821" stroke-width="0.25" stroke-miterlimit="10"/>
<path d="M10.6168 265.121C41.5159 269.812 71.9454 279.05 102.732 285.768C120.611 289.665 136.756 291.609 153.582 289.139C171.439 286.532 187.222 279.64 205.451 277.645C236.999 274.178 272.565 282.119 305.27 285.419C338.408 288.743 371.229 289.35 404.06 290.81" stroke="#66B821" stroke-width="0.25" stroke-miterlimit="10"/>
<path d="M10.2112 258.082C33.3414 260.6 56.6448 264.876 79.7425 266.928C96.2053 268.403 111.967 266.364 128.462 268.306C139.92 269.665 151.432 272.53 162.892 273.556C176.751 274.787 188.615 272.522 201.333 270.12C229.221 264.843 261.361 276.175 290.492 281.817C326.721 288.859 361.456 285.383 396.263 284.025" stroke="#66B821" stroke-width="0.25" stroke-miterlimit="10"/>
<path d="M5.28308 249.623C21.8358 249.074 38.2416 248.234 54.4052 246.464C70.9946 244.627 84.4992 242.866 102.213 248.068C118.066 252.732 133.371 259.724 149.399 263.63C166.665 267.864 181.376 267.056 196.794 263.308C222.999 256.972 250.914 271.164 277.798 279.286C315.68 290.732 351.764 282.953 387.051 278.992" stroke="#66B821" stroke-width="0.25" stroke-miterlimit="10"/>
<path d="M-0.118692 241.362C11.4602 237.525 22.0452 232.117 33.6241 228.28C50.1419 222.826 64.131 224.565 82.63 231.924C120.432 246.946 155.701 268.736 193.352 257.005C218.271 249.233 242.679 265.609 267.51 275.739C305.655 291.328 342.856 280.379 377.823 274.703" stroke="#66B821" stroke-width="0.25" stroke-miterlimit="10"/>
<path d="M-1.76033 234.613C6.80626 227.515 13.8388 220.081 24.947 215.489C41.6094 208.602 57.8608 213.838 76.0287 222.359C114.472 240.38 154.469 266.57 192.565 250.476C215.991 240.59 239.56 259.386 262.539 270.457C299.427 288.194 336.516 276.407 370.13 270.015" stroke="#66B821" stroke-width="0.25" stroke-miterlimit="10"/>
<path d="M0.176519 226.041C9.04354 218.733 18.0393 211.109 29.8696 206.983C45.4809 201.558 62.6301 208.41 78.9038 215.686C115.037 231.895 153.901 255.518 190.087 242.297C214.703 233.32 238.767 251.33 262.903 262.81C299.002 279.965 332.6 271.798 365.732 264.881" stroke="#66B821" stroke-width="0.25" stroke-miterlimit="10"/>
<path d="M6.91401 217.904C17.5388 211.669 28.1292 205.302 41.2233 202.382C55.2828 199.248 72.2425 205.587 86.4624 211.214C119.815 224.42 151.887 239.798 184.705 230.624C210.593 223.366 238.886 241.869 263.904 253.435C278.167 260.033 291.996 265.109 307.189 266.306C327.262 267.919 346.056 263.837 364.147 259.757" stroke="#66B821" stroke-width="0.25" stroke-miterlimit="10"/>
<path d="M15.8603 211.97C27.9233 207.499 39.3959 202.859 53.0602 201.144C66.4004 199.469 80.8802 203.298 94.5485 207.393C108.09 211.475 121.606 216.268 135.44 218.771C150.701 221.546 163.91 220.516 177.695 217.643C205.335 211.831 238.854 231.806 265.188 243.641C280.38 250.465 295.85 256.933 312.079 259.166C330.595 261.72 347.86 258.612 364.313 254.691" stroke="#66B821" stroke-width="0.25" stroke-miterlimit="10"/>
<path d="M24.4445 207.622C49.9641 202.288 73.9545 199.195 102.15 203.69C113.295 205.468 124.488 207.561 135.572 208.089C148.043 208.665 158.791 206.564 170.502 204.907C200.276 200.676 237.913 221.805 266.12 234.034C281.769 240.834 297.74 247.923 314.22 251.498C332.593 255.5 349.157 253.8 365.489 249.865" stroke="#66B821" stroke-width="0.25" stroke-miterlimit="10"/>
<path d="M33.8021 203.716C58.3906 201.306 83.4471 200.551 108.484 199.519C127.702 198.744 145.448 194.897 164.277 193.242C179.132 191.956 196.441 197.697 211.218 202.855C229.888 209.354 248.127 217.236 266.352 224.933C300.598 239.376 332.646 252.958 366.727 245.268" stroke="#66B821" stroke-width="0.25" stroke-miterlimit="10"/>
<path d="M41.9473 199.636C66.3269 199.015 91.6102 201.244 113.833 194.596C128.591 190.195 143.193 183.915 159.862 183.452C174.524 183.06 191.426 188.814 205.8 193.655C225.478 200.254 244.796 208.168 264.036 216.056C297.671 229.811 333.3 247.621 367.415 240.907" stroke="#66B821" stroke-width="0.25" stroke-miterlimit="10"/>
<path d="M47.8552 194.741C71.4578 195.121 97.5591 199.603 116.632 189.126C129.434 182.07 140.34 175.573 157.84 176.381C173.398 177.103 189.945 182.615 205.18 187.685C224.507 194.133 243.553 201.593 262.556 209.159C295.594 222.258 332.817 242 366.686 236.804" stroke="#66B821" stroke-width="0.25" stroke-miterlimit="10"/>
<path d="M50.4873 189.714C74.0476 189.963 97.2132 192.47 117.036 183.479C130.334 177.462 142.626 171.436 159.633 172.468C174.721 173.362 190.975 178.715 205.812 183.561C224.171 189.563 242.342 196.458 260.421 203.471C292.938 216.093 328.853 234.911 362.34 231.596" stroke="#66B821" stroke-width="0.25" stroke-miterlimit="10"/>
<path d="M52.147 184.082C75.5855 183.754 97.5726 183.864 118.994 178.045C133.59 174.113 148.539 169.851 165.141 170.897C193.881 172.742 225.765 186.136 253.409 196.368C286.391 208.577 322.117 226.969 356.174 225.464" stroke="#66B821" stroke-width="0.25" stroke-miterlimit="10"/>
<path d="M53.4636 177.93C76.5912 176.843 99.3759 175.52 122.09 173.188C138.621 171.493 155.842 169.613 173.154 170.84C199.756 172.744 228.219 183.31 254.085 192.286C285.176 203.079 317.424 218.564 349.358 218.798" stroke="#66B821" stroke-width="0.25" stroke-miterlimit="10"/>
<path d="M54.5225 171.487C96.2554 168.004 138.886 168.018 182.238 171.53C204.989 173.394 228.403 180.08 250.804 186.992C280.857 196.33 311.421 210.11 342.037 211.725" stroke="#66B821" stroke-width="0.25" stroke-miterlimit="10"/>
<path d="M55.4541 165.033C80.7189 162.013 104.568 161.71 131.194 165.238C151.384 167.883 171.529 170.96 191.654 172.688C210.291 174.303 228.882 177.425 247.534 182.12C276.532 189.401 305.566 201.858 334.797 204.591" stroke="#66B821" stroke-width="0.25" stroke-miterlimit="10"/>
<path d="M56.4314 158.642C70.2368 156.512 83.4638 154.725 98.28 155.92C110.245 156.902 122.322 159.116 134.39 161.565C156.336 166.025 178.443 171.704 200.457 173.53C217.092 174.889 233.45 175.529 250.235 178.67C276.352 183.549 301.948 193.893 328.033 197.239" stroke="#66B821" stroke-width="0.25" stroke-miterlimit="10"/>
<path d="M57.5334 152.625C71.0682 150.194 83.7695 148.408 98.4501 150.154C111.79 151.748 125.245 154.992 138.46 158.395C161.313 164.294 184.926 172.091 207.995 173.914C221.598 174.97 234.719 173.445 248.316 174.408C273.009 176.121 297.276 186.078 321.898 190.006" stroke="#66B821" stroke-width="0.25" stroke-miterlimit="10"/>
<path d="M58.8054 147.039C72.72 144.225 85.4729 142.753 100.759 145.18C115.131 147.479 129.429 151.574 143.585 155.801C166.433 162.596 190.861 171.863 214.157 173.581C226.17 174.458 236.459 171.5 247.838 170.491C270.196 168.488 294.188 178.714 316.878 182.886" stroke="#66B821" stroke-width="0.25" stroke-miterlimit="10"/>
<path d="M60.4141 142.05C74.7966 138.97 87.2812 137.852 103.143 140.83C117.227 143.539 131.202 147.915 144.979 152.344C168.372 159.891 193.911 170.462 217.891 172.049C230.764 172.885 238.359 168.685 249.405 166.036C268.553 161.392 292.974 171.796 313.041 175.981" stroke="#66B821" stroke-width="0.25" stroke-miterlimit="10"/>
</g>
<defs>
<filter id="filter0_f_220_58" x="-257" y="-29" width="1282" height="1282" filterUnits="userSpaceOnUse" color-interpolation-filters="sRGB">
<feFlood flood-opacity="0" result="BackgroundImageFix"/>
<feBlend mode="normal" in="SourceGraphic" in2="BackgroundImageFix" result="shape"/>
<feGaussianBlur stdDeviation="250" result="effect1_foregroundBlur_220_58"/>
</filter>
<filter id="filter1_f_220_58" x="-655" y="-485" width="1171" height="1171" filterUnits="userSpaceOnUse" color-interpolation-filters="sRGB">
<feFlood flood-opacity="0" result="BackgroundImageFix"/>
<feBlend mode="normal" in="SourceGraphic" in2="BackgroundImageFix" result="shape"/>
<feGaussianBlur stdDeviation="250" result="effect1_foregroundBlur_220_58"/>
</filter>
<filter id="filter2_f_220_58" x="-575" y="-528" width="1197" height="1197" filterUnits="userSpaceOnUse" color-interpolation-filters="sRGB">
<feFlood flood-opacity="0" result="BackgroundImageFix"/>
<feBlend mode="normal" in="SourceGraphic" in2="BackgroundImageFix" result="shape"/>
<feGaussianBlur stdDeviation="250" result="effect1_foregroundBlur_220_58"/>
</filter>
<filter id="filter3_f_220_58" x="12.2693" y="106.269" width="18.4615" height="18.4614" filterUnits="userSpaceOnUse" color-interpolation-filters="sRGB">
<feFlood flood-opacity="0" result="BackgroundImageFix"/>
<feBlend mode="normal" in="SourceGraphic" in2="BackgroundImageFix" result="shape"/>
<feGaussianBlur stdDeviation="2" result="effect1_foregroundBlur_220_58"/>
</filter>
<filter id="filter4_f_220_58" x="9" y="103" width="25" height="25" filterUnits="userSpaceOnUse" color-interpolation-filters="sRGB">
<feFlood flood-opacity="0" result="BackgroundImageFix"/>
<feBlend mode="normal" in="SourceGraphic" in2="BackgroundImageFix" result="shape"/>
<feGaussianBlur stdDeviation="2" result="effect1_foregroundBlur_220_58"/>
</filter>
<filter id="filter5_f_220_58" x="320.885" y="109.885" width="17.2307" height="17.2307" filterUnits="userSpaceOnUse" color-interpolation-filters="sRGB">
<feFlood flood-opacity="0" result="BackgroundImageFix"/>
<feBlend mode="normal" in="SourceGraphic" in2="BackgroundImageFix" result="shape"/>
<feGaussianBlur stdDeviation="2" result="effect1_foregroundBlur_220_58"/>
</filter>
<filter id="filter6_f_220_58" x="318" y="107" width="23" height="23" filterUnits="userSpaceOnUse" color-interpolation-filters="sRGB">
<feFlood flood-opacity="0" result="BackgroundImageFix"/>
<feBlend mode="normal" in="SourceGraphic" in2="BackgroundImageFix" result="shape"/>
<feGaussianBlur stdDeviation="2" result="effect1_foregroundBlur_220_58"/>
</filter>
<filter id="filter7_f_220_58" x="293.885" y="447.885" width="17.2307" height="17.2307" filterUnits="userSpaceOnUse" color-interpolation-filters="sRGB">
<feFlood flood-opacity="0" result="BackgroundImageFix"/>
<feBlend mode="normal" in="SourceGraphic" in2="BackgroundImageFix" result="shape"/>
<feGaussianBlur stdDeviation="2" result="effect1_foregroundBlur_220_58"/>
</filter>
<filter id="filter8_f_220_58" x="291" y="445" width="23" height="23" filterUnits="userSpaceOnUse" color-interpolation-filters="sRGB">
<feFlood flood-opacity="0" result="BackgroundImageFix"/>
<feBlend mode="normal" in="SourceGraphic" in2="BackgroundImageFix" result="shape"/>
<feGaussianBlur stdDeviation="2" result="effect1_foregroundBlur_220_58"/>
</filter>
<filter id="filter9_f_220_58" x="25.8846" y="280.885" width="17.2308" height="17.2307" filterUnits="userSpaceOnUse" color-interpolation-filters="sRGB">
<feFlood flood-opacity="0" result="BackgroundImageFix"/>
<feBlend mode="normal" in="SourceGraphic" in2="BackgroundImageFix" result="shape"/>
<feGaussianBlur stdDeviation="2" result="effect1_foregroundBlur_220_58"/>
</filter>
<filter id="filter10_f_220_58" x="23" y="278" width="23" height="23" filterUnits="userSpaceOnUse" color-interpolation-filters="sRGB">
<feFlood flood-opacity="0" result="BackgroundImageFix"/>
<feBlend mode="normal" in="SourceGraphic" in2="BackgroundImageFix" result="shape"/>
<feGaussianBlur stdDeviation="2" result="effect1_foregroundBlur_220_58"/>
</filter>
<filter id="filter11_f_220_58" x="21" y="519" width="24" height="24" filterUnits="userSpaceOnUse" color-interpolation-filters="sRGB">
<feFlood flood-opacity="0" result="BackgroundImageFix"/>
<feBlend mode="normal" in="SourceGraphic" in2="BackgroundImageFix" result="shape"/>
<feGaussianBlur stdDeviation="2" result="effect1_foregroundBlur_220_58"/>
</filter>
<filter id="filter12_f_220_58" x="16" y="514" width="34" height="34" filterUnits="userSpaceOnUse" color-interpolation-filters="sRGB">
<feFlood flood-opacity="0" result="BackgroundImageFix"/>
<feBlend mode="normal" in="SourceGraphic" in2="BackgroundImageFix" result="shape"/>
<feGaussianBlur stdDeviation="2" result="effect1_foregroundBlur_220_58"/>
</filter>
</defs>
</svg>
