<svg width="133" height="352" viewBox="0 0 133 352" fill="none" xmlns="http://www.w3.org/2000/svg">
<g opacity="0.2">
<g opacity="0.7">
<path opacity="0.11" d="M112.952 215.087C118.823 211.616 126.028 211.616 131.632 215.087L243.449 279.419C245.317 280.487 245.317 282.889 243.449 283.957L130.832 349.09C125.761 352.027 119.356 352.027 114.286 349.09L1.40146 283.957C-0.466599 282.889 -0.466599 280.487 1.40146 279.419L112.952 215.087Z" fill="url(#paint0_linear_27_2458)"/>
</g>
<g opacity="0.7">
<path opacity="0.11" d="M112.952 196.134C118.823 192.664 126.028 192.664 131.632 196.134L243.449 260.467C245.317 261.535 245.317 263.937 243.449 265.005L130.832 330.138C125.761 333.075 119.356 333.075 114.286 330.138L1.40146 265.005C-0.466599 263.937 -0.466599 261.535 1.40146 260.467L112.952 196.134Z" fill="url(#paint1_linear_27_2458)"/>
</g>
<g opacity="0.7">
<path opacity="0.11" d="M112.952 177.448C118.823 173.978 126.028 173.978 131.632 177.448L243.449 241.781C245.317 242.849 245.317 245.251 243.449 246.319L130.832 311.452C125.761 314.389 119.356 314.389 114.286 311.452L1.40146 246.319C-0.466599 245.251 -0.466599 242.849 1.40146 241.781L112.952 177.448Z" fill="url(#paint2_linear_27_2458)"/>
</g>
<g opacity="0.7">
<path opacity="0.11" d="M112.952 158.495C118.823 155.025 126.028 155.025 131.632 158.495L243.449 222.828C245.317 223.896 245.317 226.298 243.449 227.366L130.832 292.499C125.761 295.435 119.356 295.435 114.286 292.499L1.40146 227.366C-0.466599 226.298 -0.466599 223.896 1.40146 222.828L112.952 158.495Z" fill="url(#paint3_linear_27_2458)"/>
</g>
<g style="mix-blend-mode:color-dodge" opacity="0.15">
<path d="M1.40178 223.095L112.952 158.495C118.823 155.025 126.028 155.025 131.633 158.495L243.45 222.828C244.25 223.362 244.784 224.163 244.784 225.23V281.822C244.784 282.622 244.25 283.69 243.45 284.224L130.832 349.357C125.762 352.294 119.357 352.294 114.286 349.357L1.40178 284.224C0.601181 283.69 0.0674591 282.889 0.0674591 281.822V225.23C0.0674591 224.429 0.601181 223.629 1.40178 223.095Z" fill="url(#paint4_linear_27_2458)"/>
</g>
</g>
<g opacity="0.7">
<g style="mix-blend-mode:color-dodge" opacity="0.5">
<path opacity="0.11" d="M112.952 137.14C118.823 133.67 126.028 133.67 131.632 137.14L243.449 201.472C245.317 202.54 245.317 204.943 243.449 206.01L130.832 271.144C125.761 274.08 119.356 274.08 114.286 271.144L1.40146 206.01C-0.466599 204.943 -0.466599 202.54 1.40146 201.472L112.952 137.14Z" fill="url(#paint5_linear_27_2458)"/>
</g>
<g style="mix-blend-mode:color-dodge" opacity="0.5">
<path opacity="0.11" d="M112.952 118.188C118.823 114.717 126.028 114.717 131.632 118.188L243.449 182.52C245.317 183.588 245.317 185.99 243.449 187.058L130.832 252.192C125.761 255.128 119.356 255.128 114.286 252.192L1.40146 187.058C-0.466599 185.99 -0.466599 183.588 1.40146 182.52L112.952 118.188Z" fill="url(#paint6_linear_27_2458)"/>
</g>
<g style="mix-blend-mode:color-dodge" opacity="0.5">
<path opacity="0.11" d="M112.952 99.5021C118.823 96.0319 126.028 96.0319 131.632 99.5021L243.449 163.835C245.317 164.902 245.317 167.305 243.449 168.373L130.832 233.506C125.761 236.442 119.356 236.442 114.286 233.506L1.40146 168.373C-0.466599 167.305 -0.466599 164.902 1.40146 163.835L112.952 99.5021Z" fill="url(#paint7_linear_27_2458)"/>
</g>
<g style="mix-blend-mode:color-dodge" opacity="0.5">
<path opacity="0.11" d="M112.952 80.549C118.823 77.0787 126.028 77.0787 131.632 80.549L243.449 144.882C245.317 145.949 245.317 148.352 243.449 149.419L130.832 214.553C125.761 217.489 119.356 217.489 114.286 214.553L1.40146 149.419C-0.466599 148.352 -0.466599 145.949 1.40146 144.882L112.952 80.549Z" fill="url(#paint8_linear_27_2458)"/>
</g>
</g>
<g opacity="0.6">
<g style="mix-blend-mode:screen" opacity="0.51">
<path opacity="0.11" d="M112.952 59.194C118.823 55.7238 126.028 55.7238 131.632 59.194L243.449 123.527C245.317 124.594 245.317 126.997 243.449 128.065L130.832 193.198C125.761 196.134 119.356 196.134 114.286 193.198L1.40134 128.065C-0.466721 126.997 -0.466721 124.594 1.40134 123.527L112.952 59.194Z" fill="url(#paint9_linear_27_2458)"/>
</g>
<g style="mix-blend-mode:screen" opacity="0.51">
<path opacity="0.11" d="M112.952 40.2418C118.823 36.7716 126.028 36.7716 131.632 40.2418L243.449 104.574C245.317 105.642 245.317 108.045 243.449 109.112L130.832 174.246C125.761 177.182 119.356 177.182 114.286 174.246L1.40146 109.112C-0.466599 108.045 -0.466599 105.642 1.40146 104.574L112.952 40.2418Z" fill="url(#paint10_linear_27_2458)"/>
</g>
<g style="mix-blend-mode:screen" opacity="0.5">
<path opacity="0.11" d="M112.952 21.5558C118.823 18.0856 126.028 18.0856 131.632 21.5558L243.449 85.8883C245.317 86.9561 245.317 89.3585 243.449 90.4263L130.832 155.56C125.761 158.496 119.356 158.496 114.286 155.56L1.40134 90.4263C-0.466721 89.3585 -0.466721 86.9561 1.40134 85.8883L112.952 21.5558Z" fill="url(#paint11_linear_27_2458)"/>
</g>
<g style="mix-blend-mode:screen" opacity="0.81">
<path opacity="0.11" d="M112.951 2.60267C118.822 -0.867555 126.028 -0.867555 131.632 2.60267L243.449 66.9352C245.317 68.003 245.317 70.4054 243.449 71.4732L130.831 136.607C125.761 139.543 119.356 139.543 114.286 136.607L1.40114 71.4732C-0.466919 70.4054 -0.466919 68.003 1.40114 66.9352L112.951 2.60267Z" fill="url(#paint12_linear_27_2458)"/>
</g>
<g style="mix-blend-mode:color-dodge" opacity="0.3">
<path d="M1.40132 67.2021L112.952 2.60267C118.823 -0.867555 126.028 -0.867555 131.632 2.60267L243.449 66.9352C244.25 67.4691 244.784 68.2699 244.784 69.3377V125.929C244.784 126.73 244.25 127.798 243.449 128.331L130.832 193.465C125.761 196.401 119.356 196.401 114.286 193.465L1.40132 128.331C0.600708 127.798 0.0669861 126.997 0.0669861 125.929V69.3377C0.0669861 68.5369 0.600708 67.736 1.40132 67.2021Z" fill="url(#paint13_linear_27_2458)"/>
</g>
<g style="mix-blend-mode:color-dodge" opacity="0.11">
<path opacity="0.11" d="M112.951 2.60267C118.822 -0.867555 126.028 -0.867555 131.632 2.60267L243.449 66.9352C245.317 68.003 245.317 70.4054 243.449 71.4732L130.831 136.607C125.761 139.543 119.356 139.543 114.286 136.607L1.40114 71.4732C-0.466919 70.4054 -0.466919 68.003 1.40114 66.9352L112.951 2.60267Z" fill="url(#paint14_linear_27_2458)"/>
</g>
<path d="M1.40152 69.0712L114.286 134.205C119.357 137.141 125.761 137.141 130.832 134.205L243.449 69.0712C243.983 68.8042 244.25 68.5373 244.517 68.0034C245.318 69.0712 244.784 70.9398 243.449 71.4736L130.832 136.607C125.761 139.543 119.357 139.543 114.286 136.607L1.40152 71.4736C0.0671844 70.6728 -0.199707 69.0712 0.33403 68.0034C0.600891 68.5373 1.13464 68.8042 1.40152 69.0712Z" fill="url(#paint15_linear_27_2458)"/>
</g>
<defs>
<linearGradient id="paint0_linear_27_2458" x1="244.956" y1="281.929" x2="0.130107" y2="281.929" gradientUnits="userSpaceOnUse">
<stop stop-color="#5761D7"/>
<stop offset="0.0725764" stop-color="#5472D8"/>
<stop offset="0.2791" stop-color="#4E9CDB"/>
<stop offset="0.4801" stop-color="#49BDDD"/>
<stop offset="0.6715" stop-color="#45D5DF"/>
<stop offset="0.8493" stop-color="#43E3E0"/>
<stop offset="1" stop-color="#42E8E0"/>
</linearGradient>
<linearGradient id="paint1_linear_27_2458" x1="244.956" y1="263.091" x2="0.130107" y2="263.091" gradientUnits="userSpaceOnUse">
<stop stop-color="#5761D7"/>
<stop offset="0.0725764" stop-color="#5472D8"/>
<stop offset="0.2791" stop-color="#4E9CDB"/>
<stop offset="0.4801" stop-color="#49BDDD"/>
<stop offset="0.6715" stop-color="#45D5DF"/>
<stop offset="0.8493" stop-color="#43E3E0"/>
<stop offset="1" stop-color="#42E8E0"/>
</linearGradient>
<linearGradient id="paint2_linear_27_2458" x1="244.956" y1="244.252" x2="0.130107" y2="244.252" gradientUnits="userSpaceOnUse">
<stop stop-color="#5761D7"/>
<stop offset="0.0725764" stop-color="#5472D8"/>
<stop offset="0.2791" stop-color="#4E9CDB"/>
<stop offset="0.4801" stop-color="#49BDDD"/>
<stop offset="0.6715" stop-color="#45D5DF"/>
<stop offset="0.8493" stop-color="#43E3E0"/>
<stop offset="1" stop-color="#42E8E0"/>
</linearGradient>
<linearGradient id="paint3_linear_27_2458" x1="244.956" y1="225.413" x2="0.130107" y2="225.413" gradientUnits="userSpaceOnUse">
<stop stop-color="#5761D7"/>
<stop offset="0.0725764" stop-color="#5472D8"/>
<stop offset="0.2791" stop-color="#4E9CDB"/>
<stop offset="0.4801" stop-color="#49BDDD"/>
<stop offset="0.6715" stop-color="#45D5DF"/>
<stop offset="0.8493" stop-color="#43E3E0"/>
<stop offset="1" stop-color="#42E8E0"/>
</linearGradient>
<linearGradient id="paint4_linear_27_2458" x1="244.956" y1="253.671" x2="0.13042" y2="253.671" gradientUnits="userSpaceOnUse">
<stop stop-color="#5761D7"/>
<stop offset="0.0725764" stop-color="#5472D8"/>
<stop offset="0.2791" stop-color="#4E9CDB"/>
<stop offset="0.4801" stop-color="#49BDDD"/>
<stop offset="0.6715" stop-color="#45D5DF"/>
<stop offset="0.8493" stop-color="#43E3E0"/>
<stop offset="1" stop-color="#42E8E0"/>
</linearGradient>
<linearGradient id="paint5_linear_27_2458" x1="244.956" y1="203.996" x2="0.130107" y2="203.996" gradientUnits="userSpaceOnUse">
<stop stop-color="#5761D7"/>
<stop offset="0.0725764" stop-color="#5472D8"/>
<stop offset="0.2791" stop-color="#4E9CDB"/>
<stop offset="0.4801" stop-color="#49BDDD"/>
<stop offset="0.6715" stop-color="#45D5DF"/>
<stop offset="0.8493" stop-color="#43E3E0"/>
<stop offset="1" stop-color="#42E8E0"/>
</linearGradient>
<linearGradient id="paint6_linear_27_2458" x1="244.956" y1="185.158" x2="0.130107" y2="185.158" gradientUnits="userSpaceOnUse">
<stop stop-color="#5761D7"/>
<stop offset="0.0725764" stop-color="#5472D8"/>
<stop offset="0.2791" stop-color="#4E9CDB"/>
<stop offset="0.4801" stop-color="#49BDDD"/>
<stop offset="0.6715" stop-color="#45D5DF"/>
<stop offset="0.8493" stop-color="#43E3E0"/>
<stop offset="1" stop-color="#42E8E0"/>
</linearGradient>
<linearGradient id="paint7_linear_27_2458" x1="244.956" y1="166.319" x2="0.130107" y2="166.319" gradientUnits="userSpaceOnUse">
<stop stop-color="#5761D7"/>
<stop offset="0.0725764" stop-color="#5472D8"/>
<stop offset="0.2791" stop-color="#4E9CDB"/>
<stop offset="0.4801" stop-color="#49BDDD"/>
<stop offset="0.6715" stop-color="#45D5DF"/>
<stop offset="0.8493" stop-color="#43E3E0"/>
<stop offset="1" stop-color="#42E8E0"/>
</linearGradient>
<linearGradient id="paint8_linear_27_2458" x1="244.956" y1="147.48" x2="0.130107" y2="147.48" gradientUnits="userSpaceOnUse">
<stop stop-color="#5761D7"/>
<stop offset="0.0725764" stop-color="#5472D8"/>
<stop offset="0.2791" stop-color="#4E9CDB"/>
<stop offset="0.4801" stop-color="#49BDDD"/>
<stop offset="0.6715" stop-color="#45D5DF"/>
<stop offset="0.8493" stop-color="#43E3E0"/>
<stop offset="1" stop-color="#42E8E0"/>
</linearGradient>
<linearGradient id="paint9_linear_27_2458" x1="244.956" y1="126.063" x2="0.129985" y2="126.063" gradientUnits="userSpaceOnUse">
<stop stop-color="#5761D7"/>
<stop offset="0.0725764" stop-color="#5472D8"/>
<stop offset="0.2791" stop-color="#4E9CDB"/>
<stop offset="0.4801" stop-color="#49BDDD"/>
<stop offset="0.6715" stop-color="#45D5DF"/>
<stop offset="0.8493" stop-color="#43E3E0"/>
<stop offset="1" stop-color="#42E8E0"/>
</linearGradient>
<linearGradient id="paint10_linear_27_2458" x1="244.956" y1="107.225" x2="0.130107" y2="107.225" gradientUnits="userSpaceOnUse">
<stop stop-color="#5761D7"/>
<stop offset="0.0725764" stop-color="#5472D8"/>
<stop offset="0.2791" stop-color="#4E9CDB"/>
<stop offset="0.4801" stop-color="#49BDDD"/>
<stop offset="0.6715" stop-color="#45D5DF"/>
<stop offset="0.8493" stop-color="#43E3E0"/>
<stop offset="1" stop-color="#42E8E0"/>
</linearGradient>
<linearGradient id="paint11_linear_27_2458" x1="244.956" y1="88.3861" x2="0.129985" y2="88.3861" gradientUnits="userSpaceOnUse">
<stop stop-color="#5761D7"/>
<stop offset="0.0725764" stop-color="#5472D8"/>
<stop offset="0.2791" stop-color="#4E9CDB"/>
<stop offset="0.4801" stop-color="#49BDDD"/>
<stop offset="0.6715" stop-color="#45D5DF"/>
<stop offset="0.8493" stop-color="#43E3E0"/>
<stop offset="1" stop-color="#42E8E0"/>
</linearGradient>
<linearGradient id="paint12_linear_27_2458" x1="244.956" y1="69.547" x2="0.129786" y2="69.547" gradientUnits="userSpaceOnUse">
<stop stop-color="#5761D7"/>
<stop offset="0.0725764" stop-color="#5472D8"/>
<stop offset="0.2791" stop-color="#4E9CDB"/>
<stop offset="0.4801" stop-color="#49BDDD"/>
<stop offset="0.6715" stop-color="#45D5DF"/>
<stop offset="0.8493" stop-color="#43E3E0"/>
<stop offset="1" stop-color="#42E8E0"/>
</linearGradient>
<linearGradient id="paint13_linear_27_2458" x1="244.956" y1="97.805" x2="0.129946" y2="97.805" gradientUnits="userSpaceOnUse">
<stop stop-color="#5761D7"/>
<stop offset="0.0725764" stop-color="#5472D8"/>
<stop offset="0.2791" stop-color="#4E9CDB"/>
<stop offset="0.4801" stop-color="#49BDDD"/>
<stop offset="0.6715" stop-color="#45D5DF"/>
<stop offset="0.8493" stop-color="#43E3E0"/>
<stop offset="1" stop-color="#42E8E0"/>
</linearGradient>
<linearGradient id="paint14_linear_27_2458" x1="244.956" y1="69.547" x2="0.129786" y2="69.547" gradientUnits="userSpaceOnUse">
<stop stop-color="#5761D7"/>
<stop offset="0.0725764" stop-color="#5472D8"/>
<stop offset="0.2791" stop-color="#4E9CDB"/>
<stop offset="0.4801" stop-color="#49BDDD"/>
<stop offset="0.6715" stop-color="#45D5DF"/>
<stop offset="0.8493" stop-color="#43E3E0"/>
<stop offset="1" stop-color="#42E8E0"/>
</linearGradient>
<linearGradient id="paint15_linear_27_2458" x1="244.955" y1="103.501" x2="0.131755" y2="103.501" gradientUnits="userSpaceOnUse">
<stop stop-color="#5761D7"/>
<stop offset="0.0725764" stop-color="#5472D8"/>
<stop offset="0.2791" stop-color="#4E9CDB"/>
<stop offset="0.4801" stop-color="#49BDDD"/>
<stop offset="0.6715" stop-color="#45D5DF"/>
<stop offset="0.8493" stop-color="#43E3E0"/>
<stop offset="1" stop-color="#42E8E0"/>
</linearGradient>
</defs>
</svg>
