<svg width="24" height="25" viewBox="0 0 24 25" fill="none" xmlns="http://www.w3.org/2000/svg">
<path d="M19.5633 7.05781L21 5.67734V5.375H16.0242L12.4781 14.2438L8.44453 5.375H3.22734V5.67734L4.90547 7.70703C5.06953 7.85703 5.15391 8.07734 5.13281 8.29766V16.2734C5.18438 16.5617 5.09297 16.8547 4.89141 17.0633L3 19.3672V19.6648H8.35781V19.3625L6.46875 17.0656C6.36754 16.9629 6.2914 16.8381 6.24628 16.7011C6.20116 16.5641 6.18826 16.4186 6.20859 16.2758V9.37578L10.9125 19.6695H11.4586L15.5039 9.37578V17.5766C15.5039 17.7922 15.5039 17.8367 15.3633 17.9797L13.9078 19.393V19.6953H20.9672V19.393L19.5633 18.0125C19.4414 17.9188 19.3781 17.7617 19.4039 17.6094V7.46094C19.3918 7.38562 19.4002 7.30843 19.4282 7.23748C19.4563 7.16654 19.5029 7.10447 19.5633 7.05781V7.05781Z" fill="white"/>
</svg>
